<svg width="155" height="166" viewBox="0 0 155 166" fill="none" xmlns="http://www.w3.org/2000/svg">
<g clip-path="url(#clip0_3915_6807)">
<path d="M137.64 39.4307C138.33 42.2307 138.19 45.1807 137.23 47.8907L134.04 56.8907C94.7004 40.6507 50.0404 40.7307 12.1904 56.8907L10.0104 45.5107C9.29044 41.7507 10.3004 37.8607 12.7704 34.9207L21.4704 24.5707C26.9304 18.0607 34.2904 13.4107 42.5204 11.2607L80.4504 1.38075C88.1204 -0.619254 96.2804 0.830746 102.8 5.36075L130.5 24.6307C133.21 26.5207 135.14 29.3307 135.93 32.5407L137.64 39.4307ZM105.09 24.4107C105.69 24.1307 105.61 23.1407 104.97 23.0507L96.3604 21.9207C96.1204 21.9007 95.9304 21.7107 95.8604 21.4507L92.7904 10.1107C92.6304 9.52075 91.9304 9.47075 91.6504 10.0207L86.7604 20.2107C86.6404 20.4707 86.3904 20.6207 86.1304 20.5907L77.4904 19.5907C76.8504 19.5107 76.5204 20.4507 77.0304 20.8807L83.8204 25.0807C84.0704 25.2707 84.1504 25.6607 83.9904 25.9807L79.7904 34.7307C79.5104 35.3107 80.0104 35.9507 80.5404 35.7107L90.7304 31.0107C90.9204 30.9307 91.1404 30.9507 91.3104 31.0807L98.9404 37.2407C99.4304 37.6307 100.09 37.0607 99.9104 36.4107L97.7704 28.5007C97.6704 28.1407 97.8504 27.7507 98.1504 27.6107L105.09 24.4107Z" fill="#48648C"/>
<path d="M56.1114 54.4797C69.5014 53.1297 83.0014 53.2597 96.3914 54.6597C99.0514 54.9397 101.831 55.2397 104.671 55.5697C109.001 56.0797 113.471 56.6497 117.871 57.3097C123.801 58.1897 129.611 59.2197 134.761 60.4397C143.461 62.4997 150.311 65.0797 152.851 68.3697C153.731 69.4997 153.201 71.1597 151.831 71.5597C149.371 72.2797 145.211 72.6497 139.691 72.7697C114.701 73.3297 61.8214 68.7497 11.6914 67.1797C12.9214 66.8297 15.3914 65.4997 18.1514 63.9397C23.4014 61.5097 29.4414 59.2997 37.1014 57.5197C42.5214 56.2597 48.7614 55.2197 56.1114 54.4797Z" fill="#2A2F35"/>
<path d="M104.97 23.0508C105.61 23.1408 105.69 24.1308 105.09 24.4108L98.15 27.6108C97.85 27.7508 97.67 28.1408 97.77 28.5008L99.91 36.4108C100.09 37.0608 99.43 37.6308 98.94 37.2408L91.31 31.0808C91.14 30.9508 90.92 30.9308 90.73 31.0108L80.54 35.7108C80.01 35.9508 79.51 35.3108 79.79 34.7308L83.99 25.9808C84.15 25.6608 84.07 25.2708 83.82 25.0808L77.03 20.8808C76.52 20.4508 76.85 19.5108 77.49 19.5908L86.13 20.5908C86.39 20.6208 86.64 20.4708 86.76 20.2108L91.65 10.0208C91.93 9.47083 92.63 9.52083 92.79 10.1108L95.86 21.4508C95.93 21.7108 96.12 21.9008 96.36 21.9208L104.97 23.0508Z" fill="#FFEF78"/>
<path d="M19.3704 56.6211C20.4304 56.6211 21.3004 57.4811 21.3004 58.5411C21.3004 59.6011 20.4304 60.4811 19.3704 60.4811C18.3104 60.4811 17.4404 59.6111 17.4404 58.5411C17.4404 57.4711 18.3004 56.6211 19.3704 56.6211Z" fill="#FFEF78"/>
<path d="M19.3704 60.4803C20.4304 60.4803 21.3004 59.6103 21.3004 58.5403C21.3004 57.4703 20.4304 56.6203 19.3704 56.6203C18.3104 56.6203 17.4404 57.4803 17.4404 58.5403C17.4404 59.6003 18.3004 60.4803 19.3704 60.4803ZM18.6504 63.4403C16.3704 64.4803 14.2404 65.5703 12.1904 66.6803V56.8903C50.0404 40.7303 94.7004 40.6503 134.04 56.8903L135.26 59.9403C130.11 58.7203 124.3 57.6903 118.37 56.8103C113.97 56.1503 109.5 55.5803 105.17 55.0703C102.33 54.7403 99.5504 54.4403 96.8904 54.1603C83.5004 52.7603 70.0004 52.6303 56.6104 53.9803C49.2604 54.7203 43.0204 55.7603 37.6004 57.0203C29.9404 58.8003 23.9004 61.0103 18.6504 63.4403Z" fill="#364765"/>
<path d="M12.19 66.6816C62.32 68.2516 115.2 72.8316 140.19 72.2716C140.49 72.9716 140.77 73.6916 141.04 74.4116C141.37 75.3016 141.71 76.2116 142.03 77.1316C142.62 78.8016 143.18 80.5116 143.72 82.2816C150.15 103.382 152.59 130.842 150.7 165.162H1.52998C-1.06002 128.282 1.19998 98.3516 8.64997 75.8916C9.71997 72.6616 10.9 69.5916 12.19 66.6816Z" fill="#9DCEE0"/>
<path d="M139.691 72.7697C139.991 73.4697 140.271 74.1897 140.541 74.9097C140.871 75.7997 141.211 76.7097 141.531 77.6297C142.121 79.2997 142.681 81.0097 143.221 82.7797C149.651 103.88 152.091 131.34 150.201 165.66H1.03095C-1.55905 128.78 0.700952 98.8497 8.15095 76.3897C9.22095 73.1597 10.401 70.0897 11.691 67.1797" stroke="#231815" stroke-linecap="round" stroke-linejoin="round"/>
<path d="M133.541 57.3887L134.761 60.4387" stroke="black" stroke-linecap="round" stroke-linejoin="round"/>
<path d="M11.6914 67.1787V57.3887" stroke="black" stroke-linecap="round" stroke-linejoin="round"/>
<path d="M11.6914 57.3888L9.51141 46.0088C8.79141 42.2488 9.80141 38.3588 12.2714 35.4188L20.9714 25.0688C26.4314 18.5588 33.7914 13.9088 42.0214 11.7588L79.9514 1.87879C87.6214 -0.121208 95.7814 1.32879 102.301 5.85879L130.001 25.1288C132.711 27.0188 134.641 29.8288 135.431 33.0388L137.141 39.9288C137.831 42.7288 137.691 45.6788 136.731 48.3888L133.541 57.3888C94.2014 41.1488 49.5414 41.2288 11.6914 57.3888Z" stroke="black" stroke-linecap="round" stroke-linejoin="round"/>
<path d="M11.6914 67.1795C13.7414 66.0695 15.8714 64.9795 18.1514 63.9395" stroke="black" stroke-linecap="round" stroke-linejoin="round"/>
<path d="M134.761 60.4397C143.461 62.4997 150.311 65.0797 152.851 68.3697C153.731 69.4997 153.201 71.1597 151.831 71.5597C149.371 72.2797 145.211 72.6497 139.691 72.7697C114.701 73.3297 61.8214 68.7497 11.6914 67.1797C12.9214 66.8297 15.3914 65.4997 18.1514 63.9397C23.4014 61.5097 29.4414 59.2997 37.1014 57.5197C42.5214 56.2597 48.7614 55.2197 56.1114 54.4797C69.5014 53.1297 83.0014 53.2597 96.3914 54.6597C99.0514 54.9397 101.831 55.2397 104.671 55.5697C109.001 56.0797 113.471 56.6497 117.871 57.3097C123.801 58.1897 129.611 59.2197 134.761 60.4397Z" stroke="black" stroke-linecap="round" stroke-linejoin="round"/>
<path d="M104.471 23.5489C105.111 23.6389 105.191 24.6289 104.591 24.9089L97.651 28.1089C97.351 28.2489 97.171 28.6389 97.271 28.9989L99.411 36.9089C99.591 37.5589 98.931 38.1289 98.441 37.7389L90.811 31.5789C90.641 31.4489 90.421 31.4289 90.231 31.5089L80.041 36.2089C79.511 36.4489 79.011 35.8089 79.291 35.2289L83.491 26.4789C83.651 26.1589 83.571 25.7689 83.321 25.5789L76.531 21.3789C76.021 20.9489 76.351 20.0089 76.991 20.0889L85.631 21.0889C85.891 21.1189 86.141 20.9689 86.261 20.7089L91.151 10.5189C91.431 9.96888 92.131 10.0189 92.291 10.6089L95.361 21.9489C95.431 22.2089 95.621 22.3989 95.861 22.4189L104.471 23.5489Z" stroke="black" stroke-linecap="round" stroke-linejoin="round"/>
<path d="M18.8714 57.1191C19.9314 57.1191 20.8014 57.9791 20.8014 59.0391C20.8014 60.0991 19.9314 60.9791 18.8714 60.9791C17.8114 60.9791 16.9414 60.1091 16.9414 59.0391C16.9414 57.9691 17.8014 57.1191 18.8714 57.1191Z" stroke="black" stroke-linecap="round" stroke-linejoin="round"/>
<path d="M89.1596 89.4199C90.1996 89.4199 91.0096 90.2499 90.8996 91.1899C90.0296 98.7099 83.6496 104.55 75.8996 104.55C68.1496 104.55 61.7796 98.7099 60.8996 91.1899C60.7896 90.2499 61.6096 89.4199 62.6396 89.4199H89.1496H89.1596Z" fill="black"/>
<path d="M33.1604 83.1812C36.5204 77.2212 50.1804 76.8212 53.3104 83.1412C53.5304 83.6112 52.9304 84.0812 52.5304 83.7612C49.6804 81.9112 46.6104 80.7112 43.2004 80.6512C39.9504 80.6012 36.1904 81.1512 34.0004 83.7512C33.6404 84.2212 32.8704 83.7012 33.1804 83.1912L33.1604 83.1812Z" fill="black"/>
<path d="M117.82 83.7113C115.62 81.1413 111.88 80.5813 108.63 80.6413C105.21 80.7113 102.15 81.9013 99.2998 83.7513C98.8998 84.0713 98.2998 83.5913 98.5198 83.1313C101.64 76.8213 115.31 77.2013 118.67 83.1713C118.97 83.7113 118.19 84.2113 117.83 83.7113H117.82Z" fill="black"/>
</g>
<defs>
<clipPath id="clip0_3915_6807">
<rect width="154.28" height="165.66" fill="white"/>
</clipPath>
</defs>
</svg>
