<svg width="180" height="140" viewBox="0 0 180 140" fill="none" xmlns="http://www.w3.org/2000/svg">
<path d="M151.753 140.001C159.199 136.916 166.655 133.399 172.032 127.229C177.139 121.36 179.928 113.401 179.998 105.452C180.078 97.3126 177.389 89.2331 172.822 82.671C181.627 71.014 182.167 53.3477 174.251 41.0475C173.351 39.6507 172.332 38.2941 171.003 37.3495C167.904 35.1487 163.806 35.5808 160.118 36.2642C149.854 38.1634 139.799 41.3289 130.234 45.6902C117.67 39.8718 105.137 37.2389 89.9949 37.5906C75.5624 37.7112 62.3193 39.8718 49.7558 45.6902C40.1908 41.3289 30.146 38.1634 19.8714 36.2642C16.1833 35.5808 12.0854 35.1487 8.98705 37.3495C7.65775 38.2941 6.63828 39.6507 5.73875 41.0475C-2.17713 53.3477 -1.63741 71.014 7.168 82.671C2.61038 89.2331 -0.0782237 97.3126 0.00173467 105.452C0.081693 113.401 2.86025 121.37 7.96758 127.229C13.3448 133.399 20.8009 136.916 28.247 140.001" fill="#9FD6FF"/>
<path d="M80.9198 102.564C80.2402 108.212 82.0792 120.441 90.5548 120.009C98.1908 119.627 99.3602 109.136 99.0504 102.463L89.7152 99.3984L80.9198 102.564Z" fill="#57BFFF"/>
<path d="M165.935 48.693C168.234 50.6023 171.732 59.5862 166.345 70.8513C166.015 71.5547 165.145 71.7456 164.626 71.1728C158.759 64.8419 151.383 59.1541 143.916 55.1143C143.417 54.8531 143.417 54.1094 143.896 53.8381C151.982 49.2155 162.717 46.0098 165.935 48.693Z" fill="#57BFFF"/>
<path d="M36.1028 53.8395C36.5925 54.1209 36.5825 54.8545 36.0828 55.1158C28.6167 59.1656 21.2305 64.8534 15.3736 71.1743C14.8538 71.737 13.9843 71.5561 13.6545 70.8527C8.26728 59.5876 11.7655 50.6037 14.0643 48.6944C17.2826 46.0113 28.017 49.2069 36.1028 53.8395Z" fill="#57BFFF"/>
<path d="M49.7359 108.966C49.7359 94.1532 37.6222 82.1445 22.68 82.1445C14.824 82.1445 7.75773 85.4607 2.8203 90.7566C0.961271 95.3993 -0.0482033 100.414 0.00177071 105.448C0.081729 113.397 2.86028 121.366 7.96762 127.225C10.9761 130.672 14.6341 133.295 18.5821 135.475C19.9214 135.676 21.2907 135.777 22.68 135.777C37.6222 135.777 49.7359 123.768 49.7359 108.956V108.966Z" fill="#57BFFF"/>
<path d="M130.225 108.966C130.225 123.778 142.338 135.787 157.281 135.787C158.69 135.787 160.079 135.676 161.428 135.475C165.366 133.295 169.024 130.672 172.033 127.225C177.14 121.356 179.929 113.397 179.999 105.448C180.049 100.434 179.049 95.4496 177.2 90.827C172.253 85.4909 165.166 82.1445 157.281 82.1445C142.338 82.1445 130.225 94.1532 130.225 108.966Z" fill="#57BFFF"/>
<path d="M130.844 42.7213C135.082 40.2693 140.989 36.9129 140.039 30.7528C140.009 30.5317 139.959 30.3107 139.919 30.0896C138.86 25.1454 135.032 21.5076 131.524 18.4527C120.989 9.29795 108.016 2.33391 94.5728 0.354231C91.3844 -0.118077 88.1361 -0.118077 84.9478 0.354231C71.5048 2.33391 58.5415 9.29795 47.997 18.4627C44.4789 21.5177 40.6609 25.1555 39.6014 30.0996C39.5514 30.3207 39.5115 30.5418 39.4815 30.7629C38.542 36.923 44.4489 40.2794 48.6767 42.7314C57.8219 39.2544 72.4843 34.9935 90.8347 35.1644C108.096 35.3252 121.939 39.3448 130.844 42.7314V42.7213Z" fill="#0B4690"/>
<path d="M91.8543 86.245C90.8049 87.1394 89.2057 87.1394 88.1562 86.245C83.0389 81.9239 70.8852 83.582 70.1756 91.8022C69.1861 103.349 83.8585 105.087 90.0053 98.3844C96.1521 105.087 110.814 103.349 109.825 91.8022C109.125 83.582 96.9617 81.9239 91.8543 86.245Z" fill="white"/>
<path d="M92.3545 72.5781L92.4645 77.3716" stroke="#0070B5" stroke-width="2" stroke-miterlimit="10" stroke-linecap="round"/>
<path d="M86.9469 72.75L86.8369 77.5434" stroke="#0070B5" stroke-width="2" stroke-miterlimit="10" stroke-linecap="round"/>
<path d="M72.5344 76.0083C73.9037 77.988 73.6238 80.7414 72.1746 81.8468C70.7253 82.9522 68.1667 82.2588 66.7974 80.2792C65.4281 78.2995 65.7879 75.7671 67.2272 74.6718C68.6664 73.5764 71.1651 74.0286 72.5344 76.0183V76.0083Z" fill="#016DB1"/>
<path d="M89.9247 90.5274C92.486 90.5274 94.5623 88.8222 94.5623 86.7188C94.5623 84.6153 92.486 82.9102 89.9247 82.9102C87.3634 82.9102 85.2871 84.6153 85.2871 86.7188C85.2871 88.8222 87.3634 90.5274 89.9247 90.5274Z" fill="#FD6690"/>
<path d="M96.9811 134.27C94.8522 134.631 92.3435 134.893 89.525 134.903C86.5765 134.913 83.9579 134.641 81.749 134.27" stroke="#0070B5" stroke-width="2" stroke-miterlimit="10" stroke-linecap="round"/>
<path d="M49.0466 46.4997C48.277 46.4997 47.5474 46.0073 47.2675 45.2033C46.8977 44.1683 47.3974 43.0126 48.3769 42.6308C61.9399 37.2846 76.1425 34.6216 90.6249 34.7422C104.508 34.8527 118.141 37.5057 131.154 42.6308C132.133 43.0227 132.633 44.1683 132.263 45.2033C131.893 46.2384 130.794 46.7609 129.814 46.369C117.221 41.4048 104.028 38.8322 90.5949 38.7317C76.5922 38.6212 62.8394 41.1937 49.7162 46.369C49.4963 46.4595 49.2665 46.4997 49.0466 46.4997Z" fill="#FFB600"/>
<path d="M89.7646 23.5493C90.9404 23.5493 91.8935 22.3211 91.8935 20.8059C91.8935 19.2908 90.9404 18.0625 89.7646 18.0625C88.5889 18.0625 87.6357 19.2908 87.6357 20.8059C87.6357 22.3211 88.5889 23.5493 89.7646 23.5493Z" fill="#FFB600"/>
<path d="M104.487 79.0116C105.936 76.4792 108.415 74.9618 111.164 74.3287C112.653 74.0674 115.321 73.3238 115.541 75.5346C115.581 76.4289 114.892 77.1927 114.002 77.2329C113.233 77.2128 112.453 77.1726 111.693 77.2831C109.684 77.4941 107.545 78.5694 106.416 80.2275C105.577 81.3832 103.807 80.2577 104.487 79.0015V79.0116Z" fill="#016DB1"/>
</svg>
