<svg width="145" height="248" viewBox="0 0 145 248" fill="none" xmlns="http://www.w3.org/2000/svg">
<path d="M132.57 28.2889C137.706 33.1089 138.565 40.9489 134.608 46.7789L129.991 53.5489C113.004 38.9889 59.3447 37.8189 29.2373 53.5489L20.0243 45.5789C14.5884 40.8689 14.3386 32.5089 19.4747 27.4889L36.7217 10.6489C45.9747 1.59892 59.4046 -1.71108 71.8053 1.98892L112.804 14.2289C117.431 15.6089 121.668 18.0489 125.185 21.3489L132.57 28.2889ZM70.0566 20.2289C70.5262 19.7589 70.1066 18.8489 69.477 18.9889L60.9734 20.7289C60.7136 20.7789 60.4438 20.6589 60.3039 20.4089L54.5583 10.6789C54.2385 10.1489 53.539 10.2589 53.4291 10.8589L51.3607 22.4289C51.3107 22.6889 51.1408 22.8889 50.901 22.9389L42.4174 24.8089C41.7879 24.9489 41.7979 25.9489 42.4274 26.1789L49.612 28.7589C49.9218 28.8689 50.1316 29.2489 50.0616 29.6189L48.6127 37.6789C48.4928 38.3489 49.2023 38.8489 49.652 38.4289L56.7266 31.6289C56.8765 31.4789 57.0864 31.4489 57.2962 31.5089L67.8383 35.3089C68.3879 35.4989 68.8275 34.8189 68.4978 34.2689L63.5615 25.9089C63.3816 25.6089 63.4216 25.2189 63.6614 24.9989L70.0566 20.2289Z" fill="#48648C"/>
<path d="M132.57 28.2889C137.706 33.1089 138.565 40.9489 134.608 46.7789L129.991 53.5489C113.004 38.9889 59.3447 37.8189 29.2373 53.5489L20.0243 45.5789C14.5884 40.8689 14.3386 32.5089 19.4747 27.4889L36.7217 10.6489C45.9747 1.59892 59.4046 -1.71108 71.8053 1.98892L112.804 14.2289C117.431 15.6089 121.668 18.0489 125.185 21.3489L132.57 28.2889ZM70.0566 20.2289C70.5262 19.7589 70.1066 18.8489 69.477 18.9889L60.9734 20.7289C60.7136 20.7789 60.4438 20.6589 60.3039 20.4089L54.5583 10.6789C54.2385 10.1489 53.539 10.2589 53.4291 10.8589L51.3607 22.4289C51.3107 22.6889 51.1408 22.8889 50.901 22.9389L42.4174 24.8089C41.7879 24.9489 41.7979 25.9489 42.4274 26.1789L49.612 28.7589C49.9218 28.8689 50.1316 29.2489 50.0616 29.6189L48.6127 37.6789C48.4928 38.3489 49.2023 38.8489 49.652 38.4289L56.7266 31.6289C56.8765 31.4789 57.0864 31.4489 57.2962 31.5089L67.8383 35.3089C68.3879 35.4989 68.8275 34.8189 68.4978 34.2689L63.5615 25.9089C63.3816 25.6089 63.4216 25.2189 63.6614 24.9989L70.0566 20.2289Z" fill="#48648C"/>
<path d="M129.992 53.5485L128.363 63.0685C126.025 61.8585 123.547 60.7685 120.949 59.8085H120.909C118.541 58.9185 116.073 58.1385 113.534 57.4685C107.249 55.7885 100.514 54.7085 93.6594 54.1185C79.1903 52.8685 64.2016 53.7885 51.8009 55.8085C41.9783 57.3985 33.7845 59.6985 28.7383 62.1585L29.2379 53.5485C59.3452 37.8185 113.005 38.9885 129.992 53.5485ZM120.949 53.5385C120.949 51.8085 119.55 50.4085 117.821 50.4085C116.093 50.4085 114.674 51.8085 114.674 53.5385C114.674 55.2685 116.083 56.6885 117.821 56.6885C119.56 56.6885 120.949 55.2785 120.949 53.5385Z" fill="#364765"/>
<path d="M36.8523 186.089C36.8723 186.039 36.8823 185.979 36.9023 185.929L40.6095 182.739L51.7411 194.279C52.5105 195.079 53.6497 195.469 54.7289 195.199C56.3077 194.799 57.3169 193.919 57.8565 192.639C58.3861 191.369 58.0664 189.899 57.197 188.839L47.4544 176.859L55.7381 169.739C55.7381 169.739 55.8081 169.819 55.848 169.859C54.4691 168.309 53.26 166.649 52.2407 164.879C51.6912 164.019 51.1316 162.569 51.0916 161.089C51.0916 160.739 51.1116 160.389 51.1516 160.039C51.1715 159.859 51.2115 159.679 51.2615 159.499C51.2215 159.619 51.1915 159.739 51.1616 159.859L32.9253 176.399C32.7055 176.149 32.4756 175.899 32.2358 175.649L32.2158 175.629C28.8284 171.979 24.1419 168.859 20.085 166.419L20.1349 166.329C22.4032 156.549 24.1319 145.759 25.1012 133.529C22.8928 114.749 24.2518 96.3586 28.8783 78.3086C53.25 79.8386 91.1514 71.7186 120.949 59.8086C123.547 60.7686 126.025 61.8586 128.363 63.0786C155.783 135.419 145.361 247.489 110.957 247.489C102.523 247.199 97.4867 238.319 92.5204 229.269C82.6978 231.739 73.3948 231.279 64.1818 228.899C57.4968 241.809 51.931 246.509 45.4459 246.379C34.1244 246.599 26.5101 228.249 22.5531 211.279C21.6638 207.899 21.0342 204.099 20.6046 199.939L21.6238 199.069C27.7292 199.739 34.2743 194.309 36.8523 186.089ZM66.45 145.999C66.6799 146.119 66.9097 146.259 67.1295 146.409C67.4193 146.609 67.7191 146.809 68.0289 147.009C70.8867 148.869 74.0443 150.259 77.3518 151.159L78.1612 151.369C77.9014 151.299 77.6416 151.219 77.3718 151.139L105.361 127.069C106.94 125.709 107.709 123.549 107.129 121.539C106.59 119.699 105.181 118.299 103.312 117.389C101.214 116.369 98.7058 116.749 96.9771 118.319L66.45 145.999ZM89.5227 96.5086C89.5227 92.4686 87.0146 89.1986 83.9169 89.1986C80.8192 89.1986 78.3111 92.4686 78.3111 96.5086C78.3111 100.549 80.8192 103.809 83.9169 103.809C87.0146 103.809 89.5227 100.539 89.5227 96.5086ZM54.0294 98.3886C54.0294 94.3486 51.5213 91.0786 48.4236 91.0786C45.326 91.0786 42.8178 94.3486 42.8178 98.3886C42.8178 102.429 45.3359 105.699 48.4236 105.699C51.5113 105.699 54.0294 102.429 54.0294 98.3886Z" fill="#9DCEE0"/>
<path d="M120.909 59.7996H120.949C91.1513 71.7196 53.2498 79.8396 28.8782 78.3096C25.4308 78.0996 22.2631 77.6896 19.4153 77.0696C17.5067 76.6596 16.2177 74.7596 16.6773 72.8696C17.6966 68.6596 23.5722 64.8496 28.7383 62.1596C33.7845 59.6996 41.9783 57.3996 51.8009 55.8096C64.2016 53.7896 79.1903 52.8696 93.6594 54.1196C100.514 54.7096 107.249 55.7896 113.534 57.4696L120.909 59.7996Z" fill="#2A2F35"/>
<path d="M117.821 50.4102C119.55 50.4102 120.949 51.8102 120.949 53.5402C120.949 55.2702 119.55 56.6902 117.821 56.6902C116.093 56.6902 114.674 55.2802 114.674 53.5402C114.674 51.8002 116.083 50.4102 117.821 50.4102Z" fill="#FFEF78"/>
<path d="M107.129 121.538C107.708 123.548 106.939 125.708 105.36 127.068L77.371 151.138C74.2633 150.208 70.776 148.738 68.028 147.008C67.7283 146.818 67.4285 146.618 67.1287 146.408C66.9089 146.258 66.679 146.118 66.4492 145.998L96.9762 118.318C98.7049 116.748 101.213 116.368 103.311 117.388C105.18 118.298 106.589 119.698 107.129 121.538Z" fill="#2A2F35"/>
<path d="M78.161 151.369L77.3516 151.159L77.3715 151.139C77.6413 151.219 77.9011 151.299 78.161 151.369Z" fill="#9DCEE0"/>
<path d="M77.3713 151.138L77.3513 151.158C74.0438 150.258 70.8862 148.868 68.0283 147.008C70.7763 148.738 74.2636 150.208 77.3713 151.138Z" fill="#2A2F35"/>
<path d="M69.477 18.9886C70.1065 18.8486 70.5262 19.7586 70.0566 20.2286L63.6614 24.9986C63.4216 25.2186 63.3816 25.6086 63.5615 25.9086L68.4977 34.2686C68.8275 34.8186 68.3878 35.4986 67.8382 35.3086L57.2962 31.5086C57.0863 31.4486 56.8765 31.4786 56.7266 31.6286L49.6519 38.4286C49.2023 38.8486 48.4928 38.3486 48.6127 37.6786L50.0616 29.6186C50.1316 29.2486 49.9217 28.8686 49.612 28.7586L42.4274 26.1786C41.7978 25.9486 41.7878 24.9486 42.4174 24.8086L50.901 22.9386C51.1408 22.8886 51.3107 22.6886 51.3606 22.4286L53.4291 10.8586C53.539 10.2586 54.2385 10.1486 54.5582 10.6786L60.3039 20.4086C60.4438 20.6586 60.7136 20.7786 60.9734 20.7286L69.477 18.9886Z" fill="#FFEF78"/>
<path d="M67.1299 146.41C67.4297 146.62 67.7294 146.82 68.0292 147.01C67.7194 146.81 67.4197 146.61 67.1299 146.41Z" fill="#9DCEE0"/>
<path d="M57.1969 188.839C58.0662 189.899 58.386 191.369 57.8564 192.639C57.3168 193.919 56.3076 194.799 54.7287 195.199C53.6496 195.469 52.5104 195.079 51.741 194.279L40.6094 182.739L47.4542 176.859L57.1969 188.839Z" fill="#2A2F35"/>
<path d="M55.8472 169.86C55.8472 169.86 55.7773 169.78 55.7373 169.74C54.2784 168.13 53.0094 166.4 51.9402 164.55C51.3706 163.64 51.0908 162.45 51.0908 161.09C51.1308 162.57 51.6904 164.02 52.24 164.88C53.2592 166.65 54.4683 168.31 55.8472 169.86Z" fill="#9DCEE0"/>
<path d="M55.7376 169.739L47.4539 176.859L40.609 182.739L36.9018 185.929V185.909C37.4614 183.569 35.8026 179.689 32.9248 176.399L51.1611 159.859C51.1511 159.919 51.1511 159.979 51.1511 160.039C51.0911 160.379 51.0711 160.729 51.0911 161.079C51.0911 162.449 51.3709 163.639 51.9405 164.549C53.0097 166.399 54.2787 168.129 55.7376 169.739Z" fill="#2A2F35"/>
<path d="M51.1614 159.86C51.1913 159.74 51.2213 159.62 51.2613 159.5C51.2113 159.68 51.1714 159.86 51.1514 160.04C51.1514 159.98 51.1514 159.92 51.1614 159.86Z" fill="#9DCEE0"/>
<path d="M51.1524 160.039C51.1118 160.389 51.0916 160.739 51.0916 161.079C51.0713 160.729 51.0916 160.379 51.1524 160.039Z" fill="#2A2F35"/>
<path d="M32.925 176.398C35.8029 179.688 37.4616 183.568 36.902 185.908C37.0419 182.488 35.4232 179.288 32.915 176.408H32.925V176.398Z" fill="#2A2F35"/>
<path d="M20.0846 166.419C24.1416 168.859 28.8281 171.979 32.2155 175.629L32.2355 175.649C32.4653 175.899 32.6951 176.149 32.915 176.409C35.4231 179.289 37.0419 182.489 36.902 185.909V185.929C36.902 185.929 36.872 186.039 36.852 186.089C34.274 194.309 27.7289 199.739 21.6235 199.069C21.2538 199.029 20.874 198.959 20.4943 198.879C17.6964 198.209 14.9685 196.819 12.4604 194.949C6.4649 190.489 1.78842 183.379 0.649278 177.379C-1.04944 160.649 12.0407 145.199 25.1009 133.529C24.1316 145.759 22.4029 156.549 20.1346 166.329L20.0846 166.419Z" fill="#9DCEE0"/>
<path d="M32.9258 176.398H32.9158C32.696 176.148 32.4662 175.898 32.2363 175.648C32.4761 175.898 32.706 176.148 32.9258 176.398Z" fill="#9DCEE0"/>
<path d="M20.4939 198.879C20.5238 199.239 20.5638 199.589 20.6038 199.939L16.2571 203.679C15.3677 204.439 14.1586 204.729 13.0495 204.379C11.2009 203.789 9.53212 201.959 9.33227 199.849C9.21236 198.599 9.78193 197.379 10.7112 196.539L12.4599 194.949C14.968 196.819 17.696 198.209 20.4939 198.879Z" fill="#2A2F35"/>
<path d="M40.6094 182.739L47.4542 176.859" stroke="#1F252B" stroke-linecap="round" stroke-linejoin="round"/>
<path d="M83.9163 89.1992C87.014 89.1992 89.5221 92.4692 89.5221 96.5092C89.5221 100.549 87.014 103.809 83.9163 103.809C80.8187 103.809 78.3105 100.539 78.3105 96.5092C78.3105 92.4792 80.8187 89.1992 83.9163 89.1992Z" stroke="#231815" stroke-linecap="round" stroke-linejoin="round"/>
<path d="M48.4232 91.0781C51.5208 91.0781 54.0289 94.3481 54.0289 98.3881C54.0289 102.428 51.5208 105.698 48.4232 105.698C45.3255 105.698 42.8174 102.428 42.8174 98.3881C42.8174 94.3481 45.3355 91.0781 48.4232 91.0781Z" stroke="#231815" stroke-linecap="round" stroke-linejoin="round"/>
<path d="M20.605 199.939C20.5651 199.589 20.5251 199.239 20.4951 198.879" stroke="#231815" stroke-linecap="round" stroke-linejoin="round"/>
<path d="M51.0908 161.09C51.0908 162.45 51.3706 163.64 51.9402 164.55C53.0094 166.4 54.2784 168.13 55.7373 169.74" stroke="#76A8B7" stroke-linecap="round" stroke-linejoin="round"/>
<path d="M51.1617 159.859C51.1516 159.919 51.1516 159.979 51.1516 160.039C51.1111 160.389 51.0908 160.739 51.0908 161.079" stroke="#76A8B7" stroke-linecap="round" stroke-linejoin="round"/>
<path d="M36.902 185.91C37.0419 182.49 35.4232 179.29 32.915 176.41" stroke="#76A8B7" stroke-linecap="round" stroke-linejoin="round"/>
<path d="M68.0292 147.01C67.7294 146.82 67.4297 146.62 67.1299 146.41" stroke="#231815" stroke-miterlimit="10"/>
<path d="M77.3513 151.158C74.0438 150.258 70.8862 148.868 68.0283 147.008" stroke="#76A8B7" stroke-linecap="round" stroke-linejoin="round"/>
<path d="M56.0371 170.07C68.4478 183.51 93.4489 188.19 118.73 176.22" stroke="#76A8B7" stroke-linecap="round" stroke-linejoin="round"/>
<path d="M55.7373 169.738C55.7373 169.738 55.8073 169.818 55.8472 169.858" stroke="#76A8B7" stroke-linecap="round" stroke-linejoin="round"/>
<path d="M78.2305 151.389C89.9716 154.279 103.302 151.199 111.066 141.549" stroke="#76A8B7" stroke-linecap="round" stroke-linejoin="round"/>
<path d="M77.3516 151.16L78.161 151.37" stroke="#76A8B7" stroke-linecap="round" stroke-linejoin="round"/>
<path d="M28.7383 62.1585L29.2379 53.5485C59.3452 37.8185 113.005 38.9885 129.992 53.5485L128.363 63.0685" stroke="#231815" stroke-linecap="round" stroke-linejoin="round"/>
<path d="M120.909 59.7987C118.54 58.9187 116.072 58.1388 113.534 57.4688" stroke="#231815" stroke-linecap="round" stroke-linejoin="round"/>
<path d="M28.8782 78.3096C25.4308 78.0996 22.2631 77.6896 19.4153 77.0696C17.5067 76.6596 16.2177 74.7596 16.6773 72.8696C17.6966 68.6596 23.5722 64.8496 28.7383 62.1596C33.7845 59.6996 41.9783 57.3996 51.8009 55.8096C64.2016 53.7896 79.1903 52.8696 93.6594 54.1196C100.514 54.7096 107.249 55.7896 113.534 57.4696L120.909 59.7996H120.949" stroke="#231815" stroke-linecap="round" stroke-linejoin="round"/>
<path d="M129.991 53.5489L134.608 46.7789C138.565 40.9489 137.706 33.1089 132.57 28.2889L125.185 21.3489C121.668 18.0489 117.431 15.6089 112.804 14.2289L71.8053 1.98892C59.4046 -1.71108 45.9747 1.59892 36.7217 10.6489L19.4747 27.4889C14.3386 32.5089 14.5884 40.8689 20.0243 45.5789L29.2373 53.5489" stroke="#231815" stroke-linecap="round" stroke-linejoin="round"/>
<path d="M25.101 133.529C24.1318 145.759 22.4031 156.549 20.1348 166.329" stroke="#76A8B7" stroke-linecap="round" stroke-linejoin="round"/>
<path d="M32.2157 175.629C28.8282 171.979 24.1418 168.859 20.0848 166.419C19.1755 165.869 18.2962 165.359 17.4668 164.879" stroke="#76A8B7" stroke-linecap="round" stroke-linejoin="round"/>
<path d="M32.9158 176.408C32.696 176.148 32.4662 175.898 32.2363 175.648" stroke="#76A8B7" stroke-linecap="round" stroke-linejoin="round"/>
<path d="M49.1924 223.879C54.5883 226.099 59.5446 227.749 64.1811 228.889" stroke="#76A8B7" stroke-linecap="round" stroke-linejoin="round"/>
<path d="M42.4174 24.8086C41.7878 24.9486 41.7978 25.9486 42.4274 26.1786L49.612 28.7586C49.9217 28.8686 50.1316 29.2486 50.0616 29.6186L48.6127 37.6786C48.4928 38.3486 49.2023 38.8486 49.6519 38.4286L56.7266 31.6286C56.8765 31.4786 57.0863 31.4486 57.2962 31.5086L67.8382 35.3086C68.3878 35.4986 68.8275 34.8186 68.4977 34.2686L63.5615 25.9086C63.3816 25.6086 63.4216 25.2186 63.6614 24.9986L70.0566 20.2286C70.5262 19.7586 70.1065 18.8486 69.477 18.9886L60.9734 20.7286C60.7136 20.7786 60.4438 20.6586 60.3039 20.4086L54.5582 10.6786C54.2385 10.1486 53.539 10.2586 53.4291 10.8586L51.3606 22.4286C51.3107 22.6886 51.1408 22.8886 50.901 22.9386L42.4174 24.8086Z" stroke="#231815" stroke-miterlimit="10"/>
<path d="M117.821 50.4102C116.083 50.4102 114.674 51.8102 114.674 53.5402C114.674 55.2702 116.083 56.6902 117.821 56.6902C119.56 56.6902 120.949 55.2802 120.949 53.5402C120.949 51.8002 119.55 50.4102 117.821 50.4102Z" stroke="#231815" stroke-miterlimit="10"/>
<path d="M20.6038 199.939L16.2571 203.679C15.3677 204.439 14.1586 204.729 13.0495 204.379C11.2009 203.789 9.53212 201.959 9.33227 199.849C9.21236 198.599 9.78193 197.379 10.7112 196.539L12.4599 194.949" stroke="#231815" stroke-miterlimit="10"/>
<path d="M55.7382 169.738L47.4544 176.858L57.1971 188.838C58.0664 189.898 58.3862 191.368 57.8566 192.638C57.317 193.918 56.3077 194.798 54.7289 195.198C53.6497 195.468 52.5106 195.078 51.7412 194.278L40.6096 182.738L36.9023 185.928" stroke="#231815" stroke-miterlimit="10"/>
<path d="M32.915 176.409L32.925 176.399L51.1613 159.859" stroke="#231815" stroke-miterlimit="10"/>
<path d="M66.4492 145.998L96.9762 118.318C98.7049 116.748 101.213 116.368 103.311 117.388C105.18 118.298 106.589 119.698 107.129 121.538C107.708 123.548 106.939 125.708 105.36 127.068L77.371 151.138L77.351 151.158" stroke="#231815" stroke-miterlimit="10"/>
<path d="M78.2303 151.39C78.2303 151.39 78.1804 151.38 78.1604 151.37C77.9006 151.3 77.6408 151.22 77.371 151.14C74.2633 150.21 70.776 148.74 68.028 147.01C67.7183 146.81 67.4185 146.61 67.1287 146.41C66.9089 146.26 66.679 146.12 66.4492 146" stroke="#76A8B7" stroke-linecap="round" stroke-linejoin="round"/>
<path d="M36.8526 186.09C34.2745 194.31 27.7294 199.74 21.624 199.07" stroke="#76A8B7" stroke-linecap="round" stroke-linejoin="round"/>
<path d="M66.4496 146C60.574 143.37 53.6892 150.77 51.2611 159.5C51.2211 159.62 51.1911 159.74 51.1611 159.86" stroke="#76A8B7" stroke-linecap="round" stroke-linejoin="round"/>
<path d="M51.2613 159.5C51.2114 159.68 51.1714 159.86 51.1514 160.04C51.0915 160.38 51.0715 160.73 51.0915 161.08C51.1314 162.57 51.691 164.02 52.2406 164.88C53.2598 166.65 54.4689 168.31 55.8479 169.86C55.9079 169.93 55.9778 170 56.0378 170.07" stroke="#76A8B7" stroke-linecap="round" stroke-linejoin="round"/>
<path d="M36.8223 186.199C36.8223 186.199 36.8423 186.129 36.8523 186.089C36.8723 186.039 36.8823 185.979 36.9023 185.929V185.909C37.4619 183.569 35.8031 179.689 32.9253 176.399C32.7055 176.149 32.4756 175.899 32.2358 175.649L32.2158 175.629" stroke="#76A8B7" stroke-linecap="round" stroke-linejoin="round"/>
<path d="M12.4609 194.949C14.969 196.819 17.697 198.209 20.4949 198.879C20.8746 198.959 21.2543 199.029 21.624 199.069L20.6048 199.939" stroke="#231815" stroke-miterlimit="10"/>
<path d="M20.6043 199.939C21.0339 204.099 21.6635 207.899 22.5528 211.279C26.5098 228.249 34.1241 246.599 45.4455 246.379C51.9307 246.509 57.4965 241.809 64.1814 228.899C73.3945 231.279 82.6975 231.739 92.5201 229.269C97.4863 238.319 102.523 247.199 110.956 247.489C145.36 247.489 155.782 135.419 128.363 63.0786C126.025 61.8586 123.547 60.7686 120.949 59.8086C91.1511 71.7186 53.2497 79.8386 28.878 78.3086C24.2515 96.3586 22.8925 114.749 25.1009 133.529C12.0407 145.199 -1.04944 160.649 0.649278 177.379C1.78842 183.379 6.4649 190.489 12.4604 194.949" stroke="#231815" stroke-linecap="round" stroke-linejoin="round"/>
<path d="M54.0696 98.3881C54.0696 102.428 51.5596 105.698 48.4596 105.698C45.3596 105.698 42.8496 102.428 42.8496 98.3881C42.8496 94.3481 45.3696 91.0781 48.4596 91.0781C51.5496 91.0781 54.0696 94.3481 54.0696 98.3881Z" stroke="#231815" stroke-linecap="round" stroke-linejoin="round"/>
<path d="M89.5891 96.5092C89.5891 100.539 87.0791 103.809 83.9791 103.809C80.8791 103.809 78.3691 100.539 78.3691 96.5092C78.3691 92.4792 80.8791 89.1992 83.9791 89.1992C87.0791 89.1992 89.5891 92.4692 89.5891 96.5092Z" stroke="#231815" stroke-linecap="round" stroke-linejoin="round"/>
<path d="M54.0696 98.3881C54.0696 102.428 51.5596 105.698 48.4596 105.698C45.3596 105.698 42.8496 102.428 42.8496 98.3881C42.8496 94.3481 45.3696 91.0781 48.4596 91.0781C51.5496 91.0781 54.0696 94.3481 54.0696 98.3881Z" fill="#231815"/>
<path d="M89.5891 96.5092C89.5891 100.539 87.0791 103.809 83.9791 103.809C80.8791 103.809 78.3691 100.539 78.3691 96.5092C78.3691 92.4792 80.8791 89.1992 83.9791 89.1992C87.0791 89.1992 89.5891 92.4692 89.5891 96.5092Z" fill="#231815"/>
<path d="M54.0598 88.5381L42.5898 84.8281" stroke="#231815" stroke-linecap="round" stroke-linejoin="round"/>
<path d="M77.2393 86.8595L88.7293 81.5195" stroke="#231815" stroke-linecap="round" stroke-linejoin="round"/>
<path d="M74.9293 113.939C69.9793 110.909 64.7593 110.849 59.5093 113.029C59.2493 113.129 58.9593 112.999 58.8593 112.739C58.7693 112.509 58.8693 112.249 59.0793 112.129C64.0393 109.129 71.3293 108.599 75.5493 113.149C75.9493 113.549 75.4193 114.219 74.9393 113.939H74.9293Z" fill="#231815"/>
<path d="M85.9599 95.0318C86.6874 94.9844 87.2288 94.2043 87.1692 93.2894C87.1095 92.3746 86.4714 91.6714 85.744 91.7188C85.0165 91.7662 84.4751 92.5463 84.5347 93.4612C84.5944 94.376 85.2325 95.0792 85.9599 95.0318Z" fill="white"/>
<path d="M50.3984 96.7229C51.1227 96.6401 51.6255 95.8346 51.5214 94.9237C51.4173 94.0128 50.7457 93.3416 50.0214 93.4243C49.2971 93.5071 48.7944 94.3126 48.8985 95.2235C49.0026 96.1343 49.6741 96.8056 50.3984 96.7229Z" fill="white"/>
</svg>
