<svg width="213" height="219" viewBox="0 0 213 219" fill="none" xmlns="http://www.w3.org/2000/svg">
<path d="M136.019 197.066C133.709 197.726 130.759 198.596 127.349 199.416L136.019 197.066Z" fill="#9DCEE0"/>
<path d="M171.679 113.256C172.479 123.956 172.699 134.126 171.959 142.446L171.679 113.256Z" fill="#9DCEE0"/>
<path d="M171.679 113.256C170.229 94.0965 166.879 73.2265 163.619 58.1665C165.239 57.2765 166.739 56.3065 168.109 55.2465C169.279 54.3365 169.219 52.5465 167.979 51.7365L160.979 47.1465L68.5489 49.5265C67.2389 53.3565 66.0189 57.2565 64.9089 61.2265C61.3689 73.8165 58.8889 87.1765 58.0289 101.446C57.9789 102.206 57.3989 102.816 56.6389 102.906L40.5589 104.626C36.7989 105.036 33.2389 106.526 30.3189 108.936C23.7189 114.376 18.8689 120.786 16.3489 128.486C15.5589 130.896 16.5589 133.496 18.7889 134.696C22.1489 136.486 26.7489 136.496 32.3289 135.096C33.0589 134.916 33.7489 134.566 34.3489 134.096L39.2789 130.266C40.8989 128.996 42.9489 128.396 44.9989 128.566L50.1689 129.016C51.1789 129.106 51.8289 130.106 51.5189 131.066C43.6789 155.396 47.5289 179.036 60.7589 188.316C61.2789 188.676 61.1389 189.466 60.5389 189.646L55.5789 191.106C53.8089 191.626 52.5389 193.186 52.3989 195.026C51.9089 201.776 51.6789 217.286 59.9289 217.486C59.9289 217.486 65.4189 217.806 66.7589 208.966" fill="#9DCEE0"/>
<path d="M66.7589 208.967C65.5089 208.727 64.1989 208.427 62.8389 208.047L66.7589 208.967Z" fill="#9DCEE0"/>
<path d="M66.7588 208.967C67.6888 209.147 68.5888 209.287 69.4588 209.387C80.8388 210.757 86.9288 206.127 90.1988 200.997C96.1588 201.857 101.559 202.287 109.059 202.067C115.829 201.867 122.109 200.697 127.299 199.427L127.349 199.467C127.349 199.467 137.609 207.137 143.119 215.277C144.479 217.287 147.039 218.077 149.299 217.197C156.569 214.367 170.599 208.007 168.699 201.747C168.699 201.747 168.769 199.447 162.419 199.547C161.359 199.557 160.449 198.807 160.279 197.767C159.769 194.787 158.369 189.097 154.809 186.847C161.859 176.997 168.899 160.207 170.999 149.617C171.419 147.427 171.739 145.017 171.959 142.437C181.699 143.987 189.629 143.377 196.489 141.487C198.659 140.887 200.629 139.727 202.209 138.137C208.709 131.617 211.25 124.078 212 115.338C212.23 112.748 209.5 110.338 208 109.838L203.5 109.338L199.5 109.838C197.33 109.828 195.039 111.517 193.889 113.357C192.479 115.587 190.719 117.727 189.239 119.077C187.119 121.017 184.039 121.387 181.499 120.047C177.879 118.137 174.359 116.227 171.679 113.257" fill="#9DCEE0"/>
<path d="M170.013 53.6801C171.275 54.5212 171.336 56.38 170.145 57.3249C168.751 58.4256 167.224 59.4329 165.575 60.3571C141.28 73.9084 88.8575 66.3878 73 56.3359C90.5165 48.714 118.252 45.038 160.888 47.1252L170.013 53.6801Z" fill="#2A2F35"/>
<path d="M168.5 23.836C170.94 26.7291 172.199 29.6714 171 33.3359L162.815 42.2898C138.205 36.4098 96.6659 35.9298 64.9997 49.8354L57 41.3354C55.3624 39.1231 55.6223 36.0144 57.3669 33.9042L69 22.8354C70.4771 21.0542 74.3344 18.7145 76.2824 17.58C91.7808 8.53775 103 4.33601 117.5 0.835865C119.459 0.393398 129.116 0.587218 131 1.33601L149.996 10.1601C153.518 11.5556 157.995 13.8516 160.5 16.8354L168.5 23.836ZM134.455 18.7485C134.84 18.4762 134.68 17.7615 134.23 17.7728L128.194 17.9317C128.022 17.943 127.872 17.8296 127.798 17.648L124.469 9.74035C124.298 9.33192 123.805 9.3773 123.677 9.80842L121.418 17.7842C121.365 17.9884 121.204 18.1245 121.022 18.1359L114.986 18.3968C114.536 18.4082 114.408 19.1343 114.804 19.3839L119.92 21.6643C120.113 21.7777 120.209 22.05 120.134 22.2996L118.197 29.1522C118.068 29.606 118.475 30.0144 118.817 29.7762L125.304 25.1926C125.432 25.1132 125.582 25.1019 125.71 25.1813L131.619 28.7891C131.993 29.016 132.389 28.5282 132.197 28.0744L129.874 22.5605C129.767 22.3109 129.842 22.0046 130.035 21.8685L134.455 18.7485Z" fill="#48648C"/>
<path d="M162.499 41.8361L160.849 47.1454C118.959 45.1354 91.7087 48.6754 74.4987 56.0054C70.8087 57.5854 67.5887 59.3254 64.7787 61.2254C65.8887 57.2554 63.6896 53.6653 64.9996 49.8353C91.2096 32.6453 140.209 34.8561 162.499 41.8361Z" fill="#364765"/>
<path d="M148.299 79.5156C151.399 79.5156 153.909 82.7856 153.909 86.8256C153.909 90.8656 151.399 94.1356 148.299 94.1356C145.199 94.1356 142.689 90.8656 142.689 86.8256C142.689 82.7856 145.209 79.5156 148.299 79.5156Z" fill="#231815"/>
<path d="M134.517 17.308C135.009 17.2957 135.184 18.067 134.763 18.3608L129.925 21.7274C129.715 21.8743 129.633 22.2048 129.75 22.4742L132.291 28.4239C132.502 28.9136 132.069 29.44 131.659 29.1951L125.194 25.3021C125.053 25.2164 124.889 25.2287 124.749 25.3144L117.651 30.2602C117.276 30.5173 116.831 30.0766 116.972 29.5869L119.092 22.1926C119.174 21.9233 119.068 21.6295 118.857 21.507L113.259 19.0464C112.826 18.777 112.966 17.9935 113.458 17.9813L120.064 17.6997C120.263 17.6875 120.439 17.5406 120.497 17.3202L122.968 8.71393C123.109 8.24873 123.648 8.19976 123.835 8.64048L127.478 17.1733C127.56 17.3692 127.724 17.4916 127.911 17.4794L134.517 17.308Z" fill="#FFEF78"/>
<path d="M114.409 81.1152C117.509 81.1152 120.019 84.3852 120.019 88.4252C120.019 92.4652 117.509 95.7252 114.409 95.7252C111.309 95.7252 108.799 92.4552 108.799 88.4252C108.799 84.3952 111.309 81.1152 114.409 81.1152Z" fill="#231815"/>
<path d="M71.06 50.3359C72.2 50.3359 73.13 51.2559 73.13 52.3959C73.13 53.5359 72.2 54.4659 71.06 54.4659C69.92 54.4659 69 53.5359 69 52.3959C69 51.2559 69.92 50.3359 71.06 50.3359Z" fill="#FFEF78"/>
<path d="M135.889 197.066C133.579 197.726 130.629 198.596 127.219 199.416" stroke="#76A8B7" stroke-linecap="round" stroke-linejoin="round"/>
<path d="M171.549 113.256C172.349 123.956 172.569 134.126 171.829 142.446" stroke="#76A8B7" stroke-linecap="round" stroke-linejoin="round"/>
<path d="M164 61.3359C167.26 76.3959 170.099 94.096 171.549 113.256" stroke="#231815" stroke-linecap="round" stroke-linejoin="round"/>
<path d="M66.629 208.965C65.379 208.725 64.069 208.425 62.709 208.045" stroke="#76A8B7" stroke-linecap="round" stroke-linejoin="round"/>
<path d="M69.3289 209.385C68.4589 209.285 67.5589 209.145 66.6289 208.965" stroke="#231815" stroke-linecap="round" stroke-linejoin="round"/>
<path d="M93.7891 189.625C93.7891 189.625 93.5091 195.585 90.0691 200.995C86.7991 206.125 80.7091 210.755 69.3291 209.385" stroke="#231815" stroke-linecap="round" stroke-linejoin="round"/>
<path d="M127.219 199.466C127.219 199.466 137.479 207.136 142.989 215.276C144.349 217.286 146.909 218.076 149.169 217.196C156.439 214.366 170.469 208.006 168.569 201.746C168.569 201.746 168.639 199.446 162.289 199.546C161.229 199.556 160.319 198.806 160.149 197.766C159.639 194.786 158.239 189.096 154.679 186.846" stroke="#231815" stroke-linecap="round" stroke-linejoin="round"/>
<path d="M171.549 113.256C174.229 116.226 177.749 118.136 181.369 120.046C183.909 121.386 186.989 121.016 189.109 119.076C190.589 117.726 192.349 115.586 193.759 113.356C194.909 111.516 196.289 110.49 198.5 109.836C200.325 109.296 201.597 109.337 203.5 109.337C205.173 109.337 205.5 109.336 207.659 109.836C209.818 110.336 212.3 112.336 212 115.836C211.25 124.576 208.579 131.616 202.079 138.136C200.499 139.726 198.529 140.886 196.359 141.486C189.529 143.376 181.629 143.986 171.939 142.456" stroke="#231815" stroke-linecap="round" stroke-linejoin="round"/>
<path d="M64.779 61.2262C67.589 59.3262 70.809 57.5861 74.499 56.0061C91.709 48.6761 118.959 45.1361 160.849 47.1461L162.5 41.8353C140.21 34.8553 91.21 32.6464 65 49.8364C64.279 55.3364 64.779 58.0871 64.779 61.2262ZM64.779 61.2262C61.239 73.8162 58.759 87.1762 57.899 101.446C57.849 102.206 57.269 102.816 56.509 102.906L40.429 104.626C36.669 105.036 33.109 106.526 30.189 108.936C23.589 114.376 18.739 120.786 16.219 128.486C15.429 130.896 16.429 133.496 18.659 134.696C22.019 136.486 26.619 136.496 32.199 135.096C32.929 134.916 33.619 134.566 34.219 134.096L39.149 130.266C40.769 128.996 42.819 128.396 44.869 128.566L50.039 129.016C51.049 129.106 51.699 130.106 51.389 131.066C43.549 155.396 47.399 179.036 60.629 188.316C61.149 188.676 61.009 189.466 60.409 189.646L55.449 191.106C53.679 191.626 52.409 193.186 52.269 195.026C51.779 201.776 51.549 217.286 59.799 217.486C59.799 217.486 65.289 217.806 66.629 208.966" stroke="#231815" stroke-linecap="round" stroke-linejoin="round"/>
<path d="M161 47.3359L169.783 53.1672C171.339 54.1962 171.414 56.4702 169.946 57.6263C168.227 58.973 166.033 60.2053 164 61.3359" stroke="#231815" stroke-linecap="round" stroke-linejoin="round"/>
<path d="M74 56.3359C89.58 66.0159 140.13 74.3859 164 61.3359" stroke="#231815" stroke-linecap="round" stroke-linejoin="round"/>
<path d="M162.5 41.8361C162.5 41.8361 168.451 38.0602 170.5 33.8358C172.549 29.6114 170.93 27.229 168.5 24.3359C168.5 24.3359 164 19.3361 160 16.3361C156 13.3361 153.123 11.5562 149.616 10.1608C149.616 10.1608 134.5 1.83538 129 1.06268C123.5 0.289985 119.5 0.335383 115.5 1.06222C111.5 1.78906 91.6439 8.53839 76.2103 17.5806C74.2704 18.7151 73.1923 19.3451 71.0409 20.9712C68.8894 22.5973 59.7374 31.7259 58.0001 33.8361C56.2627 35.9463 55.3695 39.1237 57.0003 41.3361L65.0002 49.8361" stroke="#231815" stroke-linecap="round" stroke-linejoin="round"/>
<path d="M73.13 52.3959C73.13 51.2559 72.2 50.3359 71.06 50.3359C69.92 50.3359 69 51.2559 69 52.3959C69 53.5359 69.92 54.4659 71.06 54.4659C72.2 54.4659 73.13 53.5359 73.13 52.3959Z" stroke="#231815" stroke-linecap="round" stroke-linejoin="round"/>
<path d="M142.939 77.2263L153.919 72.2363" stroke="#231815" stroke-linecap="round" stroke-linejoin="round"/>
<path d="M118.039 77.3951L105.849 73.9551" stroke="#231815" stroke-linecap="round" stroke-linejoin="round"/>
<path d="M129.75 22.4742L132.291 28.4239C132.502 28.9136 132.069 29.44 131.659 29.1951L125.194 25.3021C125.053 25.2164 124.889 25.2287 124.749 25.3144L117.651 30.2602C117.276 30.5173 116.831 30.0766 116.972 29.5869L119.092 22.1926C119.174 21.9233 119.068 21.6295 118.857 21.507L113.259 19.0464C112.826 18.777 112.966 17.9935 113.458 17.9813L120.064 17.6997C120.263 17.6875 120.439 17.5406 120.497 17.3202L122.968 8.71393C123.109 8.24873 123.648 8.19976 123.835 8.64048L127.478 17.1733C127.56 17.3692 127.724 17.4916 127.911 17.4794L134.517 17.308C135.009 17.2957 135.184 18.067 134.763 18.3608L129.925 21.7274C129.715 21.8743 129.633 22.2048 129.75 22.4742Z" stroke="#231815" stroke-linecap="round" stroke-linejoin="round"/>
<path d="M127.219 199.416C122.019 200.686 115.719 201.866 108.929 202.066C101.429 202.286 96.0293 201.856 90.0693 200.996" stroke="#231815" stroke-linecap="round" stroke-linejoin="round"/>
<path d="M171.829 142.445C171.609 145.025 171.289 147.425 170.869 149.615C168.769 160.205 161.729 176.995 154.679 186.845" stroke="#231815" stroke-linecap="round" stroke-linejoin="round"/>
<path d="M52.9495 63.3156L17.5495 62.6456C17.1095 62.6456 17.0895 61.9456 17.5495 61.9356L52.9495 61.2656C54.3095 61.2656 54.3295 63.3056 52.9495 63.3056V63.3156Z" fill="#231815"/>
<path d="M52.9495 72.1463L35.2495 71.6763C34.7995 71.6763 34.7895 70.9563 35.2495 70.9563L52.9495 70.4863C54.0595 70.4863 54.0695 72.1563 52.9495 72.1463Z" fill="#231815"/>
<path d="M52.949 85.9765L0.349002 85.2965C-0.0909984 85.2965 -0.140998 84.5765 0.349002 84.5765L52.949 83.8965C54.319 83.8965 54.349 85.9765 52.949 85.9865V85.9765Z" fill="#231815"/>
<path d="M124.699 104.366C128.089 99.1759 135.369 98.4659 140.759 100.596C141.019 100.686 141.159 100.976 141.059 101.236C140.969 101.476 140.729 101.606 140.489 101.556C134.939 100.286 129.809 101.226 125.439 105.036C125.009 105.406 124.379 104.816 124.699 104.366Z" fill="#231815"/>
<path d="M116.399 86.94C117.127 86.8926 117.668 86.1125 117.609 85.1976C117.549 84.2828 116.911 83.5796 116.183 83.627C115.456 83.6744 114.915 84.4545 114.974 85.3694C115.034 86.2842 115.672 86.9874 116.399 86.94Z" fill="white"/>
<path d="M150.246 85.1545C150.97 85.0717 151.473 84.2662 151.369 83.3553C151.265 82.4445 150.593 81.7732 149.869 81.856C149.145 81.9388 148.642 82.7443 148.746 83.6551C148.85 84.566 149.522 85.2373 150.246 85.1545Z" fill="white"/>
</svg>
