<svg width="159" height="237" viewBox="0 0 159 237" fill="none" xmlns="http://www.w3.org/2000/svg">
<path d="M73.8063 133.994C76.2263 135.484 78.4663 137.174 80.3763 139.314C80.6363 139.614 80.6063 140.074 80.3063 140.344C80.0063 140.604 79.5463 140.574 79.2763 140.274C77.7163 138.064 75.6563 136.114 73.4963 134.454C73.2263 134.254 73.5163 133.824 73.7963 134.004L73.8063 133.994Z" fill="#514E47"/>
<path d="M85.9563 132.915C85.8263 134.645 85.8263 136.385 86.0263 138.075C86.0963 138.735 85.0863 138.855 85.0063 138.195C84.9563 137.795 85.1963 131.245 85.9563 132.915Z" fill="#514E47"/>
<path d="M112.095 176.045C109.835 169.995 106.255 164.325 101.045 160.455C100.315 159.905 101.155 158.775 101.895 159.325C107.085 163.575 110.515 169.595 112.515 175.895C112.605 176.155 112.195 176.305 112.095 176.045Z" fill="#514E47"/>
<path d="M110.086 164.874C108.126 162.384 105.706 160.324 102.926 158.824C102.756 158.694 102.506 158.724 102.456 158.374C102.396 158.004 102.606 157.634 102.936 157.494C103.266 157.354 103.386 157.594 103.586 157.674C104.126 158.014 104.716 158.404 105.226 158.784C107.346 160.334 109.176 162.324 110.516 164.564C110.686 164.834 110.276 165.124 110.076 164.864L110.086 164.874Z" fill="#514E47"/>
<path d="M134.996 201.904C130.916 218.314 123.456 235.304 112.546 235.094C106.056 235.224 100.486 230.524 93.7959 217.614C96.1159 217.034 98.5159 216.344 101.006 215.504C104.966 215.244 109.066 214.674 113.166 213.854C118.226 212.854 123.116 211.054 127.496 208.344C130.736 206.344 133.196 204.184 134.996 201.904Z" fill="#6C6C6C"/>
<path d="M129.646 186.476C128.646 185.946 127.716 185.296 126.826 184.566C127.546 184.196 128.276 183.816 128.986 183.426C129.716 183.026 130.626 183.286 131.026 184.016C131.426 184.746 131.156 185.656 130.436 186.056C130.176 186.196 129.906 186.346 129.646 186.476Z" fill="#6C6C6C"/>
<path d="M116.236 60.9349C120.636 62.6249 124.936 64.6449 129.126 67.0249C129.306 67.7349 129.486 68.4449 129.656 69.1649C102.496 80.5049 49.4761 72.1049 26.0361 61.9949C26.2261 61.4049 26.4061 60.8249 26.6061 60.2449C30.6661 59.1249 34.8561 58.1049 39.1461 57.2249C44.9661 56.0149 50.9661 55.0549 57.0761 54.4049C63.7261 53.7049 70.4961 53.3949 77.2761 53.5549C83.9661 53.7349 90.6761 54.3849 97.3061 55.6249C103.726 56.8049 110.076 58.5449 116.246 60.9349H116.236Z" fill="#6C6C6C"/>
<path d="M126.886 187.884C126.716 186.874 126.476 185.874 126.176 184.884C126.396 184.784 126.606 184.674 126.826 184.564C127.716 185.294 128.646 185.944 129.646 186.474C128.736 186.964 127.816 187.434 126.886 187.884Z" fill="#514E47"/>
<path d="M137.926 155.134L137.876 155.044C135.606 145.264 133.876 134.474 132.906 122.244C145.976 133.914 159.076 149.364 157.376 166.094C155.826 174.254 147.716 184.484 138.656 187.274C138.276 187.404 137.896 187.504 137.516 187.594C134.466 188.244 131.906 187.674 129.646 186.474C129.906 186.344 130.176 186.194 130.436 186.054C131.156 185.654 131.426 184.744 131.026 184.014C130.626 183.284 129.716 183.024 128.986 183.424C128.276 183.814 127.546 184.194 126.826 184.564C126.656 184.434 126.486 184.294 126.326 184.154C126.136 183.994 125.956 183.824 125.776 183.664C124.736 180.724 123.186 177.984 121.186 175.664C120.626 171.834 122.336 168.274 125.096 165.084C128.536 161.114 133.596 157.734 137.926 155.134Z" fill="#6C6C6C"/>
<path d="M125.776 183.664C125.956 183.824 126.136 183.994 126.326 184.154C126.486 184.294 126.656 184.434 126.826 184.564C126.606 184.674 126.396 184.784 126.176 184.884C126.056 184.474 125.926 184.074 125.776 183.664Z" fill="#99968D"/>
<path d="M125.776 183.664C125.006 182.944 124.286 182.174 123.666 181.334C123.436 181.024 123.226 180.724 123.036 180.414C121.996 178.794 121.406 177.204 121.186 175.664C123.186 177.984 124.736 180.724 125.776 183.664Z" fill="#6C6C6C"/>
<path d="M124.066 189.165C123.916 188.155 123.706 187.145 123.426 186.165C124.356 185.765 125.266 185.335 126.176 184.885C126.476 185.875 126.716 186.875 126.886 187.885C125.956 188.335 125.016 188.765 124.066 189.165Z" fill="#514E47"/>
<path d="M122.616 37.6751C123.596 40.1851 124.416 42.7851 125.086 45.4551C124.446 44.9451 123.756 44.4851 123.006 44.0951C122.546 43.8551 122.086 43.6151 121.616 43.3851C121.276 43.2051 120.936 43.0451 120.586 42.8751C120.196 42.6851 119.806 42.5051 119.416 42.3251C119.066 42.1451 118.706 41.9851 118.346 41.8251C117.816 41.5851 117.276 41.3451 116.736 41.1151C115.986 40.7851 115.216 40.4751 114.446 40.1651C113.796 39.9051 113.146 39.6451 112.486 39.3951C112.426 39.3751 112.356 39.3451 112.296 39.3251C111.446 39.0051 110.586 38.6951 109.726 38.3951C109.036 38.1551 108.336 37.9251 107.626 37.6951L107.356 37.6051C107.356 37.6051 107.296 37.5851 107.266 37.5851C106.506 37.3351 105.736 37.0951 104.966 36.8651C104.106 36.6151 103.236 36.3751 102.366 36.1351C101.946 36.0251 101.526 35.9051 101.106 35.8051C100.686 35.6951 100.266 35.5851 99.8457 35.4851C99.0057 35.2651 98.1557 35.0651 97.2957 34.8851C97.1157 34.8351 96.9357 34.7951 96.7457 34.7551C96.1057 34.6151 95.4757 34.4751 94.8357 34.3551C94.1657 34.2151 93.4757 34.0851 92.7957 33.9551C92.4257 33.8851 92.0557 33.8251 91.6857 33.7551C91.0057 33.6351 90.3357 33.5251 89.6557 33.4151C88.9757 33.3051 88.2957 33.2051 87.6157 33.1151C87.4557 33.0951 87.2957 33.0651 87.1257 33.0451C86.5457 32.9651 85.9657 32.8951 85.3857 32.8251C85.2857 32.8051 85.1957 32.7951 85.0957 32.7851C84.1357 32.6751 83.1757 32.5651 82.2057 32.4751C80.5557 32.3151 78.9157 32.1951 77.2657 32.1151C75.1757 31.9951 73.0857 31.9351 70.9957 31.9351H70.9457C70.6457 31.9351 70.3457 31.9351 70.0357 31.9451C69.7357 31.9451 69.4357 31.9451 69.1257 31.9551C68.6957 31.9551 68.2757 31.9551 67.8457 31.9851C67.4257 31.9951 66.9957 32.0051 66.5757 32.0251C66.0857 32.0451 65.5957 32.0651 65.1057 32.0951C64.1257 32.1451 63.1457 32.2151 62.1657 32.2951C61.6757 32.3351 61.1857 32.3751 60.7057 32.4251C60.2157 32.4651 59.7357 32.5151 59.2557 32.5751C58.7757 32.6251 58.2957 32.6851 57.8157 32.7451C57.2457 32.8151 56.6657 32.8951 56.0957 32.9751C56.0557 32.9851 56.0157 32.9851 55.9757 32.9951C55.3957 33.0751 54.8157 33.1651 54.2457 33.2651C54.0057 33.2951 53.7657 33.3451 53.5257 33.3851C53.3957 33.4051 53.2757 33.4251 53.1457 33.4551C52.6857 33.5251 52.2357 33.6151 51.7857 33.7051C51.7557 33.7051 51.7357 33.7051 51.7057 33.7051C51.5557 33.7351 51.4057 33.7651 51.2657 33.7951C50.6057 33.9251 49.9557 34.0551 49.3157 34.2051C49.2857 34.2051 49.2557 34.2151 49.2357 34.2251C48.5757 34.3651 47.9257 34.5251 47.2757 34.6851C47.0357 34.7451 46.8057 34.8051 46.5657 34.8651C45.9957 35.0151 45.4257 35.1651 44.8557 35.3251C44.8057 35.3451 44.7457 35.3551 44.6857 35.3751C43.9957 35.5751 43.3157 35.7751 42.6357 35.9951C42.0757 36.1651 41.5257 36.3451 40.9757 36.5351C40.6757 36.6351 40.3757 36.7451 40.0857 36.8451C39.5257 37.0451 38.9657 37.2551 38.4057 37.4651C37.9357 37.6551 37.4657 37.8351 37.0057 38.0351C36.5457 38.2151 36.0857 38.4151 35.6257 38.6151C35.1657 38.8051 34.7157 39.0151 34.2657 39.2251C33.8157 39.4351 33.3657 39.6451 32.9257 39.8651C32.4857 40.0851 32.0457 40.3051 31.6157 40.5351C31.3357 40.6751 31.0557 40.8251 30.7757 40.9851C29.7657 41.5351 28.7757 42.1051 27.8057 42.7151C27.9357 39.9651 28.2657 37.2151 28.8157 34.5151C60.0757 20.8951 91.3357 21.9451 122.606 37.6651H122.616V37.6751Z" fill="#464C51"/>
<path d="M123.006 44.0952C123.756 44.4852 124.446 44.9452 125.086 45.4552C127.236 47.1852 128.776 49.5952 129.396 52.3252C130.576 57.5252 130.666 64.0852 129.126 67.0252C124.936 64.6452 120.636 62.6252 116.236 60.9352C118.556 54.0052 117.916 47.5152 116.736 41.1152C117.276 41.3452 117.816 41.5852 118.346 41.8252C118.706 41.9852 119.066 42.1452 119.416 42.3252C119.806 42.5052 120.196 42.6852 120.586 42.8752C120.936 43.0452 121.276 43.2152 121.616 43.3852C122.086 43.6152 122.546 43.8552 123.006 44.0952Z" fill="#464C51"/>
<path d="M123.426 186.164C122.926 184.354 122.216 182.624 121.296 181.014L123.036 180.414C123.226 180.724 123.436 181.024 123.666 181.334C124.286 182.174 125.006 182.944 125.776 183.664C125.926 184.074 126.056 184.474 126.176 184.884C125.266 185.334 124.356 185.764 123.426 186.164Z" fill="#514E47"/>
<path d="M124.066 189.164C121.856 190.134 119.616 190.994 117.336 191.734C117.276 191.644 117.226 191.554 117.166 191.464C116.726 190.734 116.206 189.874 115.626 189.124C118.276 188.304 120.876 187.314 123.426 186.164C123.706 187.144 123.916 188.154 124.066 189.164Z" fill="#514E47"/>
<path d="M118.696 193.824C118.436 193.414 118.166 193.014 117.886 192.614C117.716 192.384 117.536 192.074 117.336 191.734C119.616 190.994 121.856 190.134 124.066 189.164C124.286 190.714 124.346 192.284 124.246 193.854C124.066 196.674 123.116 196.964 122.796 197.054C122.366 197.184 121.836 197.094 121.326 196.804C120.246 196.184 119.496 195.034 118.696 193.824Z" fill="#99968D"/>
<path d="M118.176 174.646C118.776 174.076 119.716 174.096 120.296 174.686C120.606 175.006 120.896 175.326 121.186 175.666C121.406 177.206 121.996 178.796 123.036 180.416L121.296 181.016C120.416 179.466 119.356 178.036 118.136 176.776C117.566 176.176 117.576 175.226 118.176 174.646Z" fill="#514E47"/>
<path d="M116.736 41.1148C117.916 47.5148 118.556 54.0048 116.236 60.9348C110.066 58.5448 103.716 56.8048 97.2959 55.6248C100.236 49.0348 99.5359 42.0548 97.2959 34.8848C98.1459 35.0748 98.9959 35.2748 99.8459 35.4848C100.266 35.5848 100.686 35.6948 101.106 35.8048C101.526 35.9048 101.946 36.0248 102.366 36.1348C103.236 36.3748 104.106 36.6148 104.966 36.8648C105.736 37.0948 106.506 37.3348 107.266 37.5848C107.296 37.5848 107.326 37.5848 107.356 37.6048L107.626 37.6948C108.326 37.9248 109.026 38.1548 109.726 38.3948C110.586 38.6948 111.446 39.0048 112.296 39.3248C112.356 39.3448 112.426 39.3748 112.486 39.3948C113.146 39.6448 113.796 39.9048 114.446 40.1648C115.216 40.4748 115.986 40.7848 116.736 41.1148Z" fill="#464C51"/>
<path d="M115.826 85.5747C116.566 90.7147 113.876 95.3247 109.826 95.9047C105.786 96.4747 101.906 92.7947 101.176 87.6647C101.096 87.1047 101.056 86.5547 101.066 86.0047L114.186 81.0547C115.006 82.3447 115.586 83.8847 115.826 85.5747Z" fill="white"/>
<path d="M113.675 22.0042C117.375 26.6742 120.385 31.9442 122.605 37.6742C91.3354 21.9542 60.0754 20.9042 28.8154 34.5242V34.5042C29.6154 30.5042 30.8954 26.6142 32.7254 22.9642C53.7254 13.5842 79.5854 10.2842 113.675 22.0042Z" fill="white"/>
<path d="M114.376 192.645C115.366 192.365 116.356 192.065 117.336 191.735C117.536 192.075 117.716 192.385 117.886 192.615C118.166 193.015 118.436 193.415 118.696 193.825C119.496 195.035 120.246 196.185 121.326 196.805C121.836 197.095 122.366 197.185 122.796 197.055C123.116 196.965 124.066 196.675 124.246 193.855C124.346 192.285 124.286 190.715 124.066 189.165C125.016 188.765 125.956 188.335 126.886 187.885C127.256 189.915 127.376 191.985 127.246 194.055C127.036 197.305 125.826 199.285 123.646 199.935C122.426 200.295 121.076 200.115 119.846 199.415C118.126 198.435 117.096 196.855 116.186 195.465C115.946 195.095 115.696 194.715 115.446 194.355C115.196 194.015 114.916 193.545 114.596 193.015C114.526 192.905 114.456 192.785 114.386 192.665V192.645H114.376Z" fill="#514E47"/>
<path d="M114.376 192.645C113.396 192.935 112.406 193.195 111.416 193.425C111.366 192.375 111.266 191.225 111.176 190.395C112.666 190.025 114.156 189.605 115.626 189.125C116.206 189.875 116.726 190.735 117.166 191.465C117.226 191.555 117.276 191.645 117.336 191.735C116.356 192.065 115.366 192.365 114.376 192.645Z" fill="#514E47"/>
<path d="M114.866 188.246C115.126 188.506 115.386 188.806 115.626 189.126C114.156 189.606 112.666 190.026 111.176 190.396C111.166 190.276 111.156 190.166 111.146 190.056C111.056 189.116 111.566 188.216 112.416 187.816C113.246 187.416 114.206 187.586 114.866 188.246Z" fill="#514E47"/>
<path d="M107.136 199.556C106.316 199.116 105.746 197.966 105.196 196.726L104.326 194.796C106.706 194.456 109.076 193.996 111.416 193.426C111.456 194.246 111.466 195.006 111.396 195.476C111.186 196.986 110.616 198.226 109.796 198.986C109.006 199.716 107.886 199.956 107.136 199.556Z" fill="#99968D"/>
<path d="M104.326 194.795L103.046 191.945C105.776 191.585 108.496 191.075 111.176 190.395C111.266 191.225 111.366 192.375 111.416 193.425C109.076 193.995 106.706 194.455 104.326 194.795Z" fill="#514E47"/>
<path d="M111.416 193.425C112.406 193.195 113.396 192.935 114.376 192.645V192.665C114.466 193.945 114.486 195.085 114.376 195.895C114.076 198.085 113.176 199.965 111.846 201.185C110.836 202.115 109.566 202.645 108.306 202.725C107.406 202.785 106.506 202.615 105.726 202.195C103.936 201.235 103.086 199.345 102.466 197.955L101.216 195.175C102.266 195.075 103.296 194.945 104.336 194.795L105.206 196.725C105.756 197.965 106.326 199.115 107.146 199.555C107.896 199.955 109.016 199.715 109.806 198.985C110.626 198.225 111.196 196.985 111.406 195.475C111.476 195.005 111.466 194.245 111.426 193.425H111.416Z" fill="#514E47"/>
<path d="M103.596 157.676C104.136 158.026 104.716 158.415 105.236 158.795C107.356 160.345 109.176 162.325 110.526 164.575C110.696 164.845 110.286 165.135 110.086 164.875C108.126 162.385 105.706 160.325 102.926 158.825C102.766 158.695 102.506 158.725 102.466 158.375C102.456 158.315 102.456 158.265 102.456 158.215L102.696 157.945C102.836 157.785 102.976 157.616 103.096 157.456C103.316 157.446 103.426 157.616 103.596 157.676Z" fill="#514E47"/>
<path d="M103.096 157.455C102.976 157.615 102.836 157.785 102.696 157.945L102.456 158.215C102.466 157.905 102.656 157.625 102.936 157.495C102.996 157.465 103.046 157.455 103.096 157.455Z" fill="#514E47"/>
<path d="M101.246 10.3055C105.956 13.5555 110.136 17.4955 113.676 22.0055C79.5856 10.2855 53.7256 13.5855 32.7256 22.9655C34.0856 20.2455 35.7456 17.6655 37.7556 15.2755C54.4656 4.43554 77.1656 2.52554 101.246 10.3055Z" fill="#464C51"/>
<path d="M106.716 151.574C112.256 154.364 119.126 159.204 125.096 165.084C122.336 168.274 120.626 171.834 121.186 175.664C120.896 175.324 120.606 175.004 120.296 174.684C119.716 174.094 118.776 174.074 118.176 174.644C117.576 175.224 117.566 176.174 118.136 176.774C119.356 178.034 120.416 179.464 121.296 181.014C122.216 182.624 122.926 184.354 123.426 186.164C120.876 187.314 118.276 188.304 115.626 189.124C115.386 188.804 115.126 188.504 114.866 188.244C114.206 187.584 113.246 187.414 112.416 187.814C111.566 188.214 111.056 189.114 111.146 190.054C111.156 190.164 111.166 190.274 111.176 190.394C108.496 191.074 105.776 191.584 103.046 191.944L98.4162 181.644C98.0762 180.884 97.1861 180.544 96.4261 180.884C95.6761 181.224 95.3361 182.114 95.6761 182.874L99.9062 192.294C98.3762 192.424 96.8362 192.514 95.3062 192.544C94.4862 192.564 93.8262 193.254 93.8362 194.074C93.8562 194.904 94.5462 195.564 95.3762 195.544C96.4262 195.524 97.4662 195.474 98.5162 195.404C99.4162 195.344 100.316 195.274 101.206 195.174L102.456 197.954C103.076 199.344 103.926 201.234 105.716 202.194C106.496 202.614 107.396 202.784 108.296 202.724C109.556 202.644 110.826 202.114 111.836 201.184C113.166 199.964 114.066 198.084 114.366 195.894C114.486 195.084 114.466 193.944 114.386 192.664C114.456 192.784 114.526 192.904 114.596 193.014C114.916 193.544 115.196 194.014 115.446 194.354C115.696 194.714 115.946 195.094 116.186 195.464C117.096 196.854 118.126 198.434 119.846 199.414C121.076 200.114 122.426 200.294 123.646 199.934C125.826 199.284 127.036 197.304 127.246 194.054C127.376 191.984 127.256 189.914 126.886 187.884C127.816 187.434 128.736 186.964 129.646 186.474C131.906 187.674 134.466 188.244 137.516 187.594C137.896 187.504 138.276 187.404 138.656 187.274C139.536 192.334 138.596 197.344 134.996 201.904C133.196 204.184 130.736 206.344 127.496 208.344C123.116 211.054 118.226 212.854 113.166 213.854C109.066 214.674 104.966 215.244 101.006 215.504C79.8261 216.914 62.3862 209.534 68.8562 184.124C69.2962 182.384 69.8762 180.684 70.4762 178.994C71.3862 176.434 72.1462 173.984 72.7662 171.644C84.1962 170.794 94.0662 166.554 100.776 159.974C100.776 160.144 100.866 160.314 101.046 160.454C106.256 164.324 109.836 169.994 112.096 176.044C112.196 176.314 112.606 176.164 112.516 175.894C110.516 169.594 107.086 163.574 101.896 159.324C101.786 159.244 101.666 159.194 101.556 159.194C101.866 158.874 102.166 158.554 102.456 158.214C102.456 158.264 102.456 158.314 102.466 158.374C102.506 158.724 102.766 158.694 102.926 158.824C105.706 160.324 108.126 162.384 110.086 164.874C110.286 165.134 110.696 164.844 110.526 164.574C109.176 162.324 107.356 160.344 105.236 158.794C104.716 158.414 104.136 158.024 103.596 157.674C103.426 157.614 103.316 157.444 103.096 157.454C104.216 156.134 105.196 154.734 106.046 153.264C106.356 152.774 106.576 152.204 106.716 151.574Z" fill="#99968D"/>
<path d="M104.326 194.795C103.286 194.945 102.256 195.075 101.206 195.175L99.9062 192.295C100.956 192.205 102.006 192.085 103.046 191.945L104.326 194.795Z" fill="#514E47"/>
<path d="M112.096 176.045C109.836 169.995 106.256 164.325 101.046 160.455C100.866 160.315 100.786 160.145 100.776 159.975C100.926 159.835 101.066 159.695 101.216 159.545C101.336 159.425 101.446 159.315 101.556 159.195C101.666 159.195 101.786 159.245 101.896 159.325C107.086 163.575 110.516 169.595 112.516 175.895C112.606 176.165 112.196 176.315 112.096 176.045Z" fill="#514E47"/>
<path d="M101.556 159.195C101.446 159.315 101.336 159.425 101.216 159.545C101.066 159.695 100.926 159.835 100.776 159.975C100.736 159.555 101.116 159.125 101.556 159.195Z" fill="#514E47"/>
<path d="M103.046 191.946C102.006 192.086 100.956 192.206 99.906 192.296L95.676 182.876C95.336 182.116 95.676 181.226 96.426 180.886C97.186 180.546 98.076 180.886 98.416 181.646L103.046 191.946Z" fill="#514E47"/>
<path d="M97.2956 34.8852C99.5356 42.0552 100.236 49.0352 97.2956 55.6152C90.6656 54.3852 83.9556 53.7352 77.2656 53.5552V53.5152C78.4456 47.7152 78.1056 40.2952 77.2656 32.1152C78.9156 32.2052 80.5656 32.3252 82.2056 32.4752C83.1756 32.5652 84.1356 32.6752 85.0956 32.7852C85.1956 32.7852 85.2856 32.8052 85.3856 32.8252C85.9656 32.8952 86.5556 32.9652 87.1256 33.0452C87.2956 33.0652 87.4556 33.0952 87.6156 33.1152C88.2956 33.2052 88.9756 33.3052 89.6556 33.4152C90.3356 33.5252 91.0056 33.6352 91.6856 33.7552C92.0556 33.8252 92.4256 33.8852 92.7956 33.9552C93.4756 34.0852 94.1656 34.2152 94.8356 34.3552C95.4756 34.4852 96.1156 34.6152 96.7456 34.7552C96.9356 34.7952 97.1156 34.8352 97.2956 34.8752V34.8852Z" fill="#464C51"/>
<path d="M95.3061 192.545C96.8361 192.515 98.3761 192.425 99.9061 192.295L101.206 195.175C100.316 195.275 99.4161 195.345 98.5161 195.405C97.4661 195.475 96.4261 195.525 95.3761 195.545C94.5461 195.565 93.856 194.905 93.836 194.075C93.826 193.255 94.4861 192.565 95.3061 192.545Z" fill="#514E47"/>
<path d="M48.1859 6.49498C60.2059 -0.525023 74.7859 -1.17502 87.9059 3.47498C92.7059 5.17498 97.1759 7.47498 101.246 10.305C77.1659 2.52498 54.4659 4.43498 37.7559 15.265C40.5559 11.915 43.9959 8.94498 48.1859 6.49498Z" fill="white"/>
<path d="M86.0259 138.085C86.0959 138.695 85.2259 138.845 85.0459 138.325C85.2159 138.255 85.3759 138.185 85.5359 138.115C85.6959 138.045 85.8559 137.975 86.0059 137.895C86.0159 137.955 86.0159 138.025 86.0259 138.085Z" fill="#514E47"/>
<path d="M86.0056 137.894C85.8556 137.974 85.6956 138.044 85.5356 138.114C85.3756 138.184 85.2156 138.254 85.0456 138.324C85.0356 138.294 85.0256 138.244 85.0156 138.204C84.9556 137.804 85.1956 131.254 85.9656 132.924C85.8356 134.594 85.8356 136.254 86.0056 137.894Z" fill="#514E47"/>
<path d="M80.0163 140.035C80.1963 139.985 80.3663 139.945 80.5463 139.885C80.5263 140.065 80.4463 140.225 80.3063 140.345C79.9963 140.605 79.5463 140.575 79.2763 140.275C79.2663 140.255 79.2563 140.245 79.2363 140.225C79.4963 140.165 79.7563 140.105 80.0163 140.035Z" fill="#514E47"/>
<path d="M74.9561 83.4552C74.9861 84.0252 74.9662 84.6052 74.9062 85.1852C74.3562 90.5752 70.3661 94.5652 65.9961 94.1252C61.6161 93.6752 58.5161 88.9552 59.0661 83.5652C59.2461 81.7952 59.8061 80.1652 60.6361 78.7852L74.9561 83.4552Z" fill="white"/>
<path d="M73.8061 133.995C76.2261 135.485 78.4661 137.175 80.3761 139.315C80.5161 139.485 80.5761 139.695 80.5461 139.885C80.3661 139.945 80.1961 139.985 80.0161 140.035C79.7561 140.105 79.4961 140.165 79.2361 140.225C77.6861 138.035 75.6361 136.105 73.4961 134.455C73.2261 134.255 73.5161 133.815 73.8061 133.995Z" fill="#514E47"/>
<path d="M61.7357 133.476C65.3957 135.096 68.5357 137.626 70.8257 141.146C73.6457 141.176 76.4857 140.856 79.2357 140.226C79.2557 140.246 79.2657 140.256 79.2757 140.276C79.5457 140.576 79.9957 140.606 80.3057 140.346C80.4457 140.226 80.5257 140.066 80.5457 139.886C82.0857 139.476 83.5957 138.956 85.0457 138.326C85.2257 138.846 86.0957 138.696 86.0257 138.086C86.0157 138.026 86.0157 137.956 86.0057 137.896C87.7057 137.116 89.3257 136.186 90.8457 135.126C92.4057 134.026 94.4057 133.676 96.1857 134.336C97.1957 132.916 98.4357 131.466 99.7957 130.016C100.206 129.576 99.8557 128.866 99.2557 128.916C91.4057 129.556 91.9957 128.306 87.1257 126.716C83.3857 125.496 79.3257 125.936 75.9557 127.956C74.9357 128.566 73.9357 129.246 72.9357 129.976C71.5657 130.986 69.8857 131.466 68.1857 131.346C65.4757 131.146 63.1457 131.556 61.7357 133.476ZM106.666 101.166C114.696 103.036 123.176 100.576 129.096 94.8355C130.506 93.4755 131.886 91.9255 133.236 90.1955C134.266 100.756 134.176 111.436 132.906 122.246C133.876 134.476 135.606 145.266 137.876 155.046L137.926 155.136C133.596 157.736 128.536 161.116 125.096 165.086C119.126 159.206 112.256 154.366 106.716 151.576C106.576 152.206 106.356 152.776 106.046 153.266C105.196 154.736 104.216 156.136 103.096 157.456C103.046 157.456 102.996 157.466 102.936 157.496C102.656 157.626 102.466 157.906 102.456 158.216C102.166 158.556 101.866 158.876 101.556 159.196C101.116 159.126 100.736 159.556 100.776 159.976C94.0657 166.556 84.1957 170.796 72.7657 171.646C72.1457 173.986 71.3857 176.436 70.4757 178.996C69.8757 180.686 69.2957 182.386 68.8557 184.126C62.3857 209.536 79.8257 216.916 101.006 215.506C98.5157 216.346 96.1157 217.036 93.7957 217.606C84.5757 219.996 75.2657 220.456 65.4357 217.986C60.4657 227.036 55.4257 235.916 46.9857 236.206C15.8057 236.206 4.30566 144.266 22.8057 73.1855C30.9357 85.7755 54.1757 99.0355 68.0457 99.7655C79.7057 100.326 82.9257 94.9855 90.3757 95.4355C95.8557 95.5155 99.5157 99.5055 106.666 101.166Z" fill="#6C6C6C"/>
<path d="M99.2563 128.916C99.8563 128.866 100.206 129.576 99.7963 130.016C98.4363 131.466 97.1963 132.916 96.1863 134.336C94.4063 133.676 92.4063 134.026 90.8463 135.126C89.3263 136.186 87.7063 137.116 86.0063 137.896C85.8363 136.256 85.8363 134.596 85.9663 132.926C85.1963 131.256 84.9563 137.806 85.0163 138.206C85.0263 138.246 85.0363 138.296 85.0463 138.326C83.5963 138.956 82.0863 139.476 80.5463 139.886C80.5763 139.696 80.5163 139.486 80.3763 139.316C78.4663 137.176 76.2263 135.486 73.8063 133.996C73.5163 133.816 73.2263 134.256 73.4963 134.456C75.6363 136.106 77.6863 138.036 79.2363 140.226C76.4863 140.856 73.6463 141.176 70.8263 141.146C68.5363 137.626 65.3963 135.096 61.7363 133.476C63.1463 131.556 65.4763 131.146 68.1863 131.346C69.8863 131.466 71.5663 130.986 72.9363 129.976C73.9363 129.246 74.9363 128.566 75.9563 127.956C79.3263 125.936 83.3863 125.496 87.1263 126.716C91.9963 128.306 91.4063 129.556 99.2563 128.916Z" fill="#99968D"/>
<path d="M57.0659 54.4055C54.9059 47.8555 55.1159 40.5355 56.0959 32.9755C56.6659 32.8955 57.2459 32.8155 57.8159 32.7455C58.2959 32.6855 58.7759 32.6255 59.2559 32.5755C59.7359 32.5155 60.2159 32.4655 60.7059 32.4255C61.1859 32.3755 61.6759 32.3355 62.1659 32.2955C63.1459 32.2155 64.1259 32.1455 65.1059 32.0955C65.5959 32.0655 66.0859 32.0455 66.5759 32.0255C66.9959 32.0055 67.4259 31.9955 67.8459 31.9855C68.2759 31.9655 68.6959 31.9555 69.1259 31.9555C69.4259 31.9455 69.7259 31.9455 70.0359 31.9455C70.3459 31.9355 70.6459 31.9355 70.9459 31.9355H70.9959C73.0859 31.9355 75.1759 31.9955 77.2659 32.1055C78.1059 40.2955 78.4459 47.7155 77.2659 53.5155V53.5555C70.4859 53.3955 63.7159 53.7055 57.0659 54.4055Z" fill="#464C51"/>
<path d="M39.1356 57.2244C36.4656 50.5344 36.8356 43.9844 38.4056 37.4844C38.9656 37.2644 39.5256 37.0544 40.0856 36.8544C40.3756 36.7544 40.6756 36.6444 40.9756 36.5444C41.5256 36.3544 42.0756 36.1744 42.6356 36.0044C43.3156 35.7844 43.9956 35.5844 44.6856 35.3844C44.7456 35.3644 44.8056 35.3544 44.8556 35.3344C45.4256 35.1744 45.9956 35.0244 46.5656 34.8744C46.8056 34.8144 47.0356 34.7544 47.2756 34.6944C47.9256 34.5344 48.5756 34.3744 49.2356 34.2344C49.2556 34.2244 49.2856 34.2144 49.3156 34.2144C49.9556 34.0644 50.6056 33.9344 51.2656 33.8044C51.4056 33.7744 51.5556 33.7444 51.7056 33.7144C51.7356 33.7144 51.7556 33.7144 51.7856 33.7144C52.2356 33.6244 52.6956 33.5444 53.1456 33.4644C53.2756 33.4344 53.3956 33.4144 53.5256 33.3944C53.7656 33.3544 54.0056 33.3044 54.2456 33.2744C54.8156 33.1744 55.3956 33.0844 55.9756 33.0044C56.0156 32.9944 56.0556 32.9944 56.0956 32.9844C55.1156 40.5444 54.9056 47.8644 57.0656 54.4144C50.9556 55.0644 44.9556 56.0244 39.1356 57.2344V57.2244Z" fill="#464C51"/>
<path d="M35.6261 38.6244C36.0861 38.4244 36.5461 38.2244 37.0061 38.0444C37.4661 37.8444 37.9361 37.6644 38.4061 37.4844C36.8361 43.9844 36.4661 50.5344 39.1361 57.2244C34.8461 58.1044 30.6561 59.1244 26.5961 60.2444H26.5861C25.8061 58.0144 24.6461 54.6244 24.2761 49.7144C24.0661 46.9144 25.4261 44.2144 27.8061 42.7244C28.7761 42.1144 29.7661 41.5444 30.7761 40.9944C31.0561 40.8344 31.3361 40.6844 31.6161 40.5444C32.0461 40.3144 32.4861 40.0944 32.9261 39.8744C33.3761 39.6544 33.8161 39.4444 34.2661 39.2344C34.7161 39.0244 35.1661 38.8244 35.6261 38.6244Z" fill="#464C51"/>
<path d="M26.0357 61.9941C49.4757 72.1041 102.496 80.5041 129.656 69.1641C131.346 76.1241 132.546 83.1341 133.236 90.1941C131.886 91.9241 130.506 93.4741 129.096 94.8341C123.176 100.574 114.696 103.034 106.666 101.164C99.5157 99.5041 95.8557 95.5141 90.3757 95.4341C82.9257 94.9841 79.7057 100.324 68.0457 99.7641C54.1757 99.0341 30.9357 85.7741 22.8057 73.1841C22.8157 73.1441 22.8257 73.0941 22.8357 73.0541C23.8057 69.2941 24.8757 65.6141 26.0257 61.9941H26.0357ZM109.826 95.9041C113.876 95.3241 116.566 90.7141 115.826 85.5741C115.586 83.8841 115.006 82.3441 114.186 81.0541L101.066 86.0041C101.056 86.5541 101.096 87.1041 101.176 87.6641C101.906 92.7941 105.786 96.4741 109.826 95.9041ZM74.9057 85.1841C74.9657 84.6041 74.9857 84.0241 74.9557 83.4541L60.6357 78.7841C59.8057 80.1641 59.2457 81.7941 59.0657 83.5641C58.5157 88.9541 61.6157 93.6741 65.9957 94.1241C70.3657 94.5641 74.3557 90.5741 74.9057 85.1841Z" fill="#2B3036"/>
<path d="M26.0263 61.9945C24.8763 65.6145 23.8063 69.2945 22.8363 73.0545C21.9763 72.9445 21.2963 72.6845 20.7563 72.3045C19.7563 71.6045 19.2663 70.5145 19.1363 69.2845C19.0663 68.6045 19.1363 67.9245 19.3063 67.2645C19.3463 67.0945 19.3963 66.9245 19.4463 66.7645C19.6363 66.1545 19.8463 65.6145 20.0863 65.1345C20.8863 63.4045 21.8963 62.5345 23.0163 62.1545C23.9563 61.8245 24.9763 61.8445 26.0263 61.9845V61.9945Z" fill="#2B3036"/>
<path d="M23.0159 62.1557C21.8959 62.5357 20.8859 63.4057 20.0859 65.1357C19.8459 65.6157 19.6359 66.1557 19.4459 66.7657C19.3959 66.9257 19.3459 67.0957 19.3059 67.2657C16.2259 68.4757 13.4659 69.3757 11.0759 69.9357C3.32591 71.7557 -0.59409 70.0257 0.76591 63.4057C1.66591 59.3157 18.2759 59.4157 23.0159 62.1557Z" fill="#2B3036"/>
<path d="M11.0757 69.9356C13.4657 69.3756 16.2257 68.4756 19.3057 67.2656C19.1357 67.9256 19.0657 68.6056 19.1357 69.2856C19.2657 70.5156 19.7557 71.6056 20.7557 72.3056C17.5957 77.0456 12.3257 79.3856 5.0957 79.5156C6.2657 75.5356 8.29571 72.3756 11.0757 69.9356Z" fill="#2B3036"/>
<path d="M32.7256 22.9642C53.7256 13.5842 79.5856 10.2842 113.676 22.0042" stroke="#231815" stroke-linecap="round" stroke-linejoin="round"/>
<path d="M122.605 37.6749C91.3354 21.9549 60.0754 20.9049 28.8154 34.5249" stroke="#231815" stroke-linecap="round" stroke-linejoin="round"/>
<path d="M101.246 10.3043C77.1659 2.52427 54.4659 4.43427 37.7559 15.2643" stroke="#231815" stroke-linecap="round" stroke-linejoin="round"/>
<path d="M129.126 67.0234C129.306 67.7334 129.486 68.4434 129.656 69.1634" stroke="#231815" stroke-linecap="round" stroke-linejoin="round"/>
<path d="M26.0264 61.9841C26.2164 61.4041 26.3964 60.8241 26.5964 60.2441" stroke="#231815" stroke-linecap="round" stroke-linejoin="round"/>
<path d="M132.906 122.244C133.876 134.474 135.606 145.264 137.876 155.044" stroke="#505151" stroke-linecap="round" stroke-linejoin="round"/>
<path d="M101.006 215.504C98.5159 216.344 96.1159 217.034 93.7959 217.604" stroke="#505151" stroke-linecap="round" stroke-linejoin="round"/>
<path d="M26.0264 61.9941C49.4664 72.1041 102.486 80.5041 129.646 69.1641C131.336 76.1241 132.536 83.1341 133.226 90.1941" stroke="#231815" stroke-linecap="round" stroke-linejoin="round"/>
<path d="M22.8057 73.1847C22.8057 73.1847 22.8257 73.0947 22.8357 73.0547" stroke="#231815" stroke-linecap="round" stroke-linejoin="round"/>
<path d="M125.086 45.4546C127.236 47.1846 128.776 49.5946 129.396 52.3246C130.576 57.5246 130.666 64.0846 129.126 67.0246C124.936 64.6446 120.636 62.6246 116.236 60.9346C110.066 58.5446 103.716 56.8046 97.2961 55.6246C90.6661 54.3846 83.9561 53.7346 77.2661 53.5546C70.4861 53.3946 63.7161 53.7046 57.0661 54.4046C50.9561 55.0546 44.9561 56.0146 39.1361 57.2246C34.8461 58.1046 30.6561 59.1246 26.5961 60.2446H26.5861C25.8061 58.0146 24.6461 54.6246 24.2761 49.7146C24.0661 46.9146 25.4261 44.2146 27.8061 42.7246" stroke="#231815" stroke-linecap="round" stroke-linejoin="round"/>
<path d="M120.586 42.875C120.936 43.045 121.276 43.215 121.616 43.385" stroke="#231815" stroke-linecap="round" stroke-linejoin="round"/>
<path d="M107.626 37.6934C108.336 37.9234 109.036 38.1534 109.726 38.3934" stroke="#231815" stroke-linecap="round" stroke-linejoin="round"/>
<path d="M104.966 36.8652C105.736 37.0952 106.506 37.3352 107.266 37.5852" stroke="#231815" stroke-linecap="round" stroke-linejoin="round"/>
<path d="M97.2959 34.8848C98.1559 35.0648 99.0059 35.2648 99.8459 35.4848" stroke="#231815" stroke-linecap="round" stroke-linejoin="round"/>
<path d="M94.8359 34.3535C95.4759 34.4735 96.1059 34.6135 96.7459 34.7535" stroke="#231815" stroke-linecap="round" stroke-linejoin="round"/>
<path d="M87.6162 33.1152C88.2962 33.2052 88.9762 33.3052 89.6562 33.4152" stroke="#231815" stroke-linecap="round" stroke-linejoin="round"/>
<path d="M85.3857 32.8242C85.9657 32.8942 86.5457 32.9642 87.1257 33.0442" stroke="#231815" stroke-linecap="round" stroke-linejoin="round"/>
<path d="M77.2656 32.1152C78.9156 32.1952 80.5556 32.3152 82.2056 32.4752" stroke="#231815" stroke-linecap="round" stroke-linejoin="round"/>
<path d="M69.126 31.9534C69.436 31.9434 69.736 31.9434 70.036 31.9434" stroke="#231815" stroke-linecap="round" stroke-linejoin="round"/>
<path d="M54.2461 33.2641C54.8161 33.1641 55.3961 33.0741 55.9761 32.9941" stroke="#231815" stroke-linecap="round" stroke-linejoin="round"/>
<path d="M51.7861 33.7051C52.2361 33.6151 52.6861 33.5251 53.1461 33.4551" stroke="#231815" stroke-linecap="round" stroke-linejoin="round"/>
<path d="M30.7764 40.995C31.0564 40.835 31.3364 40.685 31.6164 40.545C32.0464 40.315 32.4864 40.095 32.9264 39.875C33.3664 39.655 33.8164 39.445 34.2664 39.235C34.7164 39.025 35.1664 38.815 35.6264 38.625" stroke="#231815" stroke-linecap="round" stroke-linejoin="round"/>
<path d="M23.0159 62.1545C23.9559 61.8245 24.9759 61.8445 26.0259 61.9845C24.8759 65.6145 23.8059 69.2945 22.8359 73.0545C21.9759 72.9445 21.2959 72.6845 20.7559 72.3045" stroke="#231815" stroke-linecap="round" stroke-linejoin="round"/>
<path d="M11.0759 69.9337C3.32591 71.7537 -0.59409 70.0237 0.76591 63.4037C1.66591 59.3137 18.2759 59.4137 23.0159 62.1537C21.8959 62.5337 20.8859 63.4037 20.0859 65.1337C19.8459 65.6137 19.6359 66.1537 19.4459 66.7637C19.3959 66.9237 19.3459 67.0937 19.3059 67.2637" stroke="#231815" stroke-linecap="round" stroke-linejoin="round"/>
<path d="M20.7557 72.3037C17.5957 77.0437 12.3257 79.3837 5.0957 79.5137C6.2657 75.5337 8.29571 72.3737 11.0757 69.9337C13.4657 69.3737 16.2257 68.4737 19.3057 67.2637C19.1357 67.9237 19.0657 68.6037 19.1357 69.2837C19.2657 70.5137 19.7557 71.6037 20.7557 72.3037Z" stroke="#231815" stroke-linecap="round" stroke-linejoin="round"/>
<path d="M38.4056 37.4844C36.8356 43.9844 36.4656 50.5344 39.1356 57.2244" stroke="#231815" stroke-linecap="round" stroke-linejoin="round"/>
<path d="M56.0959 32.9746C55.1159 40.5346 54.9059 47.8546 57.0659 54.4046" stroke="#231815" stroke-linecap="round" stroke-linejoin="round"/>
<path d="M77.2656 32.1152C78.1056 40.2952 78.4456 47.7152 77.2656 53.5152" stroke="#231815" stroke-linecap="round" stroke-linejoin="round"/>
<path d="M97.2959 34.8848C99.5359 42.0548 100.236 49.0348 97.2959 55.6148" stroke="#231815" stroke-linecap="round" stroke-linejoin="round"/>
<path d="M116.736 41.1152C117.916 47.5152 118.556 54.0052 116.236 60.9352" stroke="#231815" stroke-linecap="round" stroke-linejoin="round"/>
<path d="M96.1862 134.335C94.4062 133.675 92.4062 134.025 90.8462 135.125C89.3262 136.185 87.7062 137.115 86.0062 137.895C85.8562 137.975 85.6962 138.045 85.5362 138.115C85.3762 138.185 85.2162 138.255 85.0462 138.325C83.5962 138.955 82.0862 139.475 80.5462 139.885C80.3662 139.945 80.1962 139.985 80.0162 140.035C79.7562 140.105 79.4962 140.165 79.2362 140.225C76.4862 140.855 73.6462 141.175 70.8262 141.145" stroke="#505151" stroke-linecap="round" stroke-linejoin="round"/>
<path d="M70.8263 141.144C68.5363 137.624 65.3963 135.094 61.7363 133.474C63.1463 131.554 65.4763 131.144 68.1863 131.344C69.8863 131.464 71.5663 130.984 72.9363 129.974C73.9363 129.244 74.9363 128.564 75.9563 127.954C79.3263 125.934 83.3863 125.494 87.1263 126.714C91.9963 128.304 91.4063 129.554 99.2563 128.914C99.8563 128.864 100.206 129.574 99.7963 130.014C98.4363 131.464 97.1963 132.914 96.1863 134.334" stroke="#231815" stroke-linecap="round" stroke-linejoin="round"/>
<path d="M125.096 165.084C122.336 168.274 120.626 171.834 121.186 175.664C121.406 177.204 121.996 178.794 123.036 180.414C123.226 180.724 123.436 181.024 123.666 181.334C124.286 182.174 125.006 182.944 125.776 183.664C125.956 183.824 126.136 183.994 126.326 184.154C126.486 184.294 126.656 184.434 126.826 184.564C127.716 185.294 128.646 185.944 129.646 186.474C131.906 187.674 134.466 188.244 137.516 187.594C137.896 187.504 138.276 187.404 138.656 187.274" stroke="#505151" stroke-linecap="round" stroke-linejoin="round"/>
<path d="M96.1855 134.334C101.356 135.714 107.506 144.134 106.716 151.574" stroke="#505151" stroke-linecap="round" stroke-linejoin="round"/>
<path d="M106.716 151.574C112.256 154.364 119.126 159.204 125.096 165.084" stroke="#231815" stroke-linecap="round" stroke-linejoin="round"/>
<path d="M72.7656 171.644C84.1956 170.794 94.0656 166.554 100.776 159.974C100.926 159.834 101.066 159.694 101.216 159.544C101.336 159.424 101.446 159.314 101.556 159.194C101.866 158.874 102.166 158.554 102.456 158.214L102.696 157.944C102.836 157.784 102.976 157.614 103.096 157.454C104.216 156.134 105.196 154.734 106.046 153.264C106.356 152.774 106.576 152.204 106.716 151.574" stroke="#505151" stroke-linecap="round" stroke-linejoin="round"/>
<path d="M138.656 187.274C147.716 184.484 155.826 174.254 157.376 166.094C159.076 149.364 145.976 133.914 132.906 122.244C134.176 111.434 134.266 100.754 133.236 90.1936C131.886 91.9236 130.506 93.4736 129.096 94.8336C123.176 100.574 114.696 103.034 106.666 101.164C99.5157 99.5036 95.8557 95.5136 90.3757 95.4336C82.9257 94.9836 79.7057 100.324 68.0457 99.7636C54.1757 99.0336 30.9357 85.7736 22.8057 73.1836C4.30566 144.264 15.8057 236.204 46.9857 236.204C55.4257 235.914 60.4657 227.034 65.4357 217.984C75.2657 220.454 84.5757 219.994 93.7957 217.614C100.486 230.524 106.056 235.224 112.546 235.094C123.456 235.304 130.916 218.314 134.996 201.904" stroke="#231815" stroke-linecap="round" stroke-linejoin="round"/>
<path d="M138.656 187.275C139.536 192.335 138.596 197.345 134.996 201.905C133.196 204.185 130.736 206.345 127.496 208.345C123.116 211.055 118.226 212.855 113.166 213.855C109.066 214.675 104.966 215.245 101.006 215.505C79.8261 216.915 62.3862 209.535 68.8562 184.125C69.2962 182.385 69.8762 180.685 70.4762 178.995C71.3862 176.435 72.1462 173.985 72.7662 171.645" stroke="#231815" stroke-linecap="round" stroke-linejoin="round"/>
<path d="M39.2061 164.934C50.8561 170.444 62.4361 172.424 72.7661 171.644" stroke="#505151" stroke-linecap="round" stroke-linejoin="round"/>
<path d="M70.826 141.144C61.716 141.064 52.726 137.524 46.876 130.264" stroke="#505151" stroke-linecap="round" stroke-linejoin="round"/>
<path d="M140.546 153.594C139.716 154.074 138.836 154.584 137.926 155.134C133.596 157.734 128.536 161.114 125.096 165.084" stroke="#505151" stroke-linecap="round" stroke-linejoin="round"/>
<path d="M122.606 37.6736H122.616C123.596 40.1836 124.416 42.7836 125.086 45.4536C124.446 44.9436 123.756 44.4836 123.006 44.0936C122.546 43.8536 122.086 43.6136 121.616 43.3836C121.276 43.2036 120.936 43.0436 120.586 42.8736C120.196 42.6836 119.806 42.5036 119.416 42.3236C119.066 42.1436 118.706 41.9836 118.346 41.8236C117.816 41.5836 117.276 41.3436 116.736 41.1136C115.986 40.7836 115.216 40.4736 114.446 40.1636C113.796 39.9036 113.146 39.6436 112.486 39.3936C112.426 39.3736 112.356 39.3436 112.296 39.3236C111.446 39.0036 110.586 38.6936 109.726 38.3936C109.026 38.1536 108.326 37.9236 107.626 37.6936L107.356 37.6036C107.356 37.6036 107.296 37.5836 107.266 37.5836C106.506 37.3336 105.736 37.0936 104.966 36.8636C104.106 36.6136 103.236 36.3736 102.366 36.1336C101.946 36.0236 101.526 35.9036 101.106 35.8036C100.686 35.6936 100.266 35.5836 99.8457 35.4836C98.9957 35.2736 98.1457 35.0736 97.2957 34.8836C97.1157 34.8336 96.9357 34.7936 96.7457 34.7536C96.1157 34.6136 95.4757 34.4836 94.8357 34.3536C94.1657 34.2136 93.4757 34.0836 92.7957 33.9536C92.4257 33.8836 92.0557 33.8236 91.6857 33.7536C91.0057 33.6336 90.3357 33.5236 89.6557 33.4136C88.9757 33.3036 88.2957 33.2036 87.6157 33.1136C87.4557 33.0936 87.2957 33.0636 87.1257 33.0436C86.5557 32.9636 85.9657 32.8936 85.3857 32.8236C85.2857 32.8036 85.1957 32.7936 85.0957 32.7836C84.1357 32.6736 83.1757 32.5636 82.2057 32.4736C80.5657 32.3236 78.9157 32.2036 77.2657 32.1136C75.1757 31.9936 73.0857 31.9336 70.9957 31.9336H70.9457C70.6457 31.9336 70.3457 31.9336 70.0357 31.9436C69.7257 31.9436 69.4257 31.9436 69.1257 31.9536C68.6957 31.9536 68.2757 31.9536 67.8457 31.9836C67.4257 31.9936 66.9957 32.0036 66.5757 32.0236C66.0857 32.0436 65.5957 32.0636 65.1057 32.0936C64.1257 32.1436 63.1457 32.2136 62.1657 32.2936C61.6757 32.3336 61.1857 32.3736 60.7057 32.4236C60.2157 32.4636 59.7357 32.5136 59.2557 32.5736C58.7757 32.6236 58.2957 32.6836 57.8157 32.7436C57.2457 32.8136 56.6657 32.8936 56.0957 32.9736C56.0557 32.9836 56.0157 32.9836 55.9757 32.9936C55.3957 33.0736 54.8157 33.1636 54.2457 33.2636C54.0057 33.2936 53.7657 33.3436 53.5257 33.3836C53.3957 33.4036 53.2757 33.4236 53.1457 33.4536C52.6957 33.5336 52.2357 33.6136 51.7857 33.7036C51.7557 33.7036 51.7357 33.7036 51.7057 33.7036C51.5557 33.7336 51.4057 33.7636 51.2657 33.7936C50.6057 33.9236 49.9557 34.0536 49.3157 34.2036C49.2857 34.2036 49.2557 34.2136 49.2357 34.2236C48.5757 34.3636 47.9257 34.5236 47.2757 34.6836C47.0357 34.7436 46.8057 34.8036 46.5657 34.8636C45.9957 35.0136 45.4257 35.1636 44.8557 35.3236C44.8057 35.3436 44.7457 35.3536 44.6857 35.3736C43.9957 35.5736 43.3157 35.7736 42.6357 35.9936C42.0757 36.1636 41.5257 36.3436 40.9757 36.5336C40.6757 36.6336 40.3757 36.7436 40.0857 36.8436C39.5257 37.0436 38.9657 37.2536 38.4057 37.4636C37.9357 37.6536 37.4657 37.8336 37.0057 38.0336C36.5457 38.2136 36.0857 38.4136 35.6257 38.6136C35.1657 38.8136 34.7157 39.0136 34.2657 39.2236C33.8157 39.4336 33.3757 39.6436 32.9257 39.8636C32.4857 40.0836 32.0457 40.3036 31.6157 40.5336C31.3357 40.6736 31.0557 40.8236 30.7757 40.9836C29.7657 41.5336 28.7757 42.1036 27.8057 42.7136C27.9357 39.9636 28.2657 37.2136 28.8157 34.5136" stroke="#231815" stroke-linecap="round" stroke-linejoin="round"/>
<path d="M101.246 10.3047C105.956 13.5547 110.136 17.4947 113.676 22.0047" stroke="#231815" stroke-linecap="round" stroke-linejoin="round"/>
<path d="M32.7256 22.9634C34.0856 20.2434 35.7456 17.6634 37.7556 15.2734" stroke="#231815" stroke-linecap="round" stroke-linejoin="round"/>
<path d="M83.5958 103.975C87.9758 105.395 92.7158 105.115 96.8558 103.015L98.6558 102.095C98.7958 102.005 98.9858 102.065 99.0658 102.205C99.1358 102.335 99.0958 102.485 98.9758 102.565C94.7258 105.855 87.9158 108.225 83.0758 104.825C82.6358 104.455 83.0758 103.765 83.5958 103.975Z" fill="#231815"/>
<path d="M125.086 45.455C124.446 44.945 123.756 44.485 123.006 44.095C122.546 43.855 122.086 43.615 121.616 43.385C121.276 43.205 120.936 43.045 120.586 42.875C120.196 42.685 119.806 42.505 119.416 42.325C119.066 42.145 118.706 41.985 118.346 41.825C117.816 41.585 117.276 41.345 116.736 41.115C115.986 40.785 115.216 40.475 114.446 40.165C113.796 39.905 113.146 39.645 112.486 39.395C112.426 39.375 112.356 39.345 112.296 39.325C111.446 39.005 110.586 38.695 109.726 38.395C109.026 38.155 108.326 37.925 107.626 37.695C107.536 37.665 107.446 37.635 107.356 37.605C107.326 37.595 107.296 37.585 107.266 37.585C106.506 37.335 105.736 37.095 104.966 36.865C104.106 36.615 103.236 36.375 102.366 36.135C101.946 36.025 101.526 35.905 101.106 35.805C100.686 35.695 100.266 35.585 99.8457 35.485C98.9957 35.275 98.1457 35.075 97.2957 34.885C97.1157 34.835 96.9357 34.795 96.7457 34.755C96.1157 34.615 95.4757 34.485 94.8357 34.355C94.1657 34.215 93.4757 34.085 92.7957 33.955C92.4257 33.885 92.0557 33.825 91.6857 33.755C91.0057 33.635 90.3357 33.525 89.6557 33.415C88.9757 33.305 88.2957 33.205 87.6157 33.115C87.4557 33.095 87.2957 33.065 87.1257 33.045C86.5557 32.965 85.9657 32.895 85.3857 32.825C85.2857 32.805 85.1957 32.795 85.0957 32.785C84.1357 32.675 83.1757 32.565 82.2057 32.475C80.5657 32.325 78.9157 32.205 77.2657 32.115C75.1757 31.995 73.0857 31.935 70.9957 31.935H70.9457C70.3457 31.935 69.7257 31.945 69.1257 31.955C68.6957 31.955 68.2757 31.965 67.8457 31.985C67.4257 31.995 66.9957 32.005 66.5757 32.025C66.0857 32.045 65.5957 32.065 65.1057 32.095C64.1257 32.145 63.1457 32.215 62.1657 32.295C61.6757 32.335 61.1857 32.375 60.7057 32.425C60.2157 32.465 59.7357 32.515 59.2557 32.575C58.7757 32.625 58.2957 32.685 57.8157 32.745C57.2457 32.815 56.6657 32.895 56.0957 32.975C56.0557 32.985 56.0157 32.985 55.9757 32.995C55.3957 33.075 54.8157 33.165 54.2457 33.265C54.0057 33.295 53.7657 33.345 53.5257 33.385C53.3957 33.405 53.2757 33.425 53.1457 33.455C52.6957 33.535 52.2357 33.615 51.7857 33.705C51.7557 33.705 51.7357 33.705 51.7057 33.715C51.5557 33.745 51.4057 33.775 51.2657 33.805C50.6057 33.935 49.9557 34.065 49.3157 34.215C49.2857 34.215 49.2557 34.215 49.2357 34.235C48.5757 34.375 47.9257 34.535 47.2757 34.695C47.0357 34.755 46.8057 34.815 46.5657 34.875C45.9957 35.025 45.4257 35.175 44.8557 35.335C44.8057 35.355 44.7457 35.365 44.6857 35.385C43.9957 35.585 43.3157 35.785 42.6357 36.005C42.0757 36.175 41.5257 36.355 40.9757 36.545C40.6757 36.645 40.3757 36.755 40.0857 36.855C39.5257 37.055 38.9657 37.265 38.4057 37.475C37.9357 37.665 37.4657 37.845 37.0057 38.045C36.5457 38.225 36.0857 38.425 35.6257 38.625C35.1657 38.825 34.7157 39.025 34.2657 39.235C33.8157 39.445 33.3757 39.655 32.9257 39.875C32.4857 40.095 32.0457 40.315 31.6157 40.545C31.3357 40.685 31.0557 40.835 30.7757 40.995C29.7657 41.545 28.7757 42.115 27.8057 42.725C27.9357 39.975 28.2657 37.225 28.8157 34.525V34.505C29.6157 30.505 30.8957 26.615 32.7257 22.965C34.0857 20.245 35.7457 17.665 37.7557 15.275C40.5557 11.915 43.9957 8.94498 48.1857 6.49498C60.2057 -0.525023 74.7857 -1.17502 87.9057 3.47498C92.7057 5.17498 97.1757 7.47498 101.246 10.305C105.956 13.555 110.136 17.495 113.676 22.005C117.376 26.675 120.386 31.945 122.606 37.675H122.616C123.596 40.185 124.416 42.785 125.086 45.455Z" stroke="black" stroke-linecap="round" stroke-linejoin="round"/>
</svg>
