<svg width="171" height="144" viewBox="0 0 171 144" fill="none" xmlns="http://www.w3.org/2000/svg">
<g clip-path="url(#clip0_3663_7813)">
<path d="M169.28 52.7408C162.9 54.5908 157.25 54.9108 152.31 53.7808C149.38 53.1108 146.7 51.9208 144.27 50.2308C144.77 49.2508 144.91 47.9408 144.85 46.4708C144.85 46.2008 144.82 45.9208 144.8 45.6408C144.81 44.2908 144.48 43.1908 143.94 42.3008C154.74 38.7508 157.15 46.4708 169.28 52.7408Z" fill="#2B3036"/>
<path d="M152.31 53.7805C153.98 57.5805 155.11 62.4905 158.49 68.4405C152.15 66.5105 147.24 63.7205 143.72 60.0905C143.18 58.3205 142.62 56.6105 142.03 54.9405C141.71 54.0205 141.37 53.1105 141.04 52.2205C142.71 52.0805 143.71 51.3505 144.27 50.2305C146.7 51.9205 149.38 53.1105 152.31 53.7805Z" fill="#2B3036"/>
<path d="M143.72 60.0892C150.15 81.1892 152.59 108.649 150.7 142.969H1.52998C-1.06002 106.089 1.19998 76.1592 8.64997 53.6992C9.00997 54.0992 9.36998 54.4892 9.72997 54.8892C10.76 56.0092 11.77 57.0792 12.79 58.1092C14.12 59.4692 15.43 60.7392 16.75 61.9392C17.07 62.2292 17.39 62.5192 17.71 62.7892C18.04 63.0892 18.36 63.3692 18.69 63.6392C22.27 66.6892 25.84 69.1192 29.48 70.8592C29.81 71.0192 30.15 71.1692 30.48 71.3192C30.81 71.4692 31.15 71.6092 31.48 71.7392C31.78 71.8692 32.09 71.9792 32.39 72.0892C32.45 72.1092 32.51 72.1292 32.56 72.1592C32.87 72.2692 33.18 72.3792 33.49 72.4792C33.76 72.5692 34.04 72.6592 34.32 72.7392C34.6 72.8192 34.87 72.8992 35.15 72.9792C35.43 73.0592 35.71 73.1292 36 73.1892L36.21 73.2492C36.46 73.3092 36.72 73.3592 36.98 73.4092C37.16 73.4492 37.34 73.4892 37.53 73.5192C38.18 73.6392 38.82 73.7292 39.47 73.8092C39.8 73.8492 40.12 73.8792 40.45 73.9092C46.19 74.3792 52.29 73.1792 59.07 70.0692C62.71 68.3992 66.57 67.1992 70.54 66.7592C75.4 66.2092 80.2 66.6392 84.94 67.8892C86.61 68.3292 88.23 68.9292 89.81 69.6192C110.48 78.7292 124.08 70.8592 140.65 56.1692C141.11 55.7692 141.57 55.3592 142.03 54.9392C142.62 56.6092 143.18 58.3192 143.72 60.0792V60.0892Z" fill="#6C6C6C"/>
<path d="M144.85 46.4705C144.91 47.9405 144.77 49.2505 144.27 50.2305C143.71 51.3505 142.71 52.0805 141.04 52.2205H141.03C140.7 51.3105 140.34 50.4205 139.98 49.5505C139.67 48.8105 139.35 48.0805 139.03 47.3605C138.9 47.0605 138.76 46.7505 138.63 46.4505L138.3 45.7305C138.11 45.3105 137.92 44.9005 137.72 44.4905C137.37 43.7605 137.02 43.0605 136.66 42.3505C136.94 42.3805 137.23 42.4305 137.52 42.4705C138.48 41.8505 138.63 40.5105 138.24 38.8105C140.32 39.2805 142.69 40.2605 143.94 42.3005C144.48 43.1905 144.81 44.2905 144.8 45.6405C144.82 45.9205 144.84 46.2005 144.85 46.4705Z" fill="#2B3036"/>
<path d="M142.03 54.9402C141.57 55.3602 141.11 55.7702 140.65 56.1702C124.08 70.8602 110.48 78.7302 89.8104 69.6202C88.2304 68.9302 86.6104 68.3302 84.9404 67.8902C80.2004 66.6402 75.4004 66.2102 70.5404 66.7602C66.5704 67.2002 62.7104 68.4002 59.0704 70.0702C52.2904 73.1802 46.1904 74.3802 40.4504 73.9102C40.1204 73.8802 39.8004 73.8502 39.4704 73.8102C38.8204 73.7302 38.1804 73.6402 37.5304 73.5202C37.3504 73.4902 37.1604 73.4502 36.9804 73.4102C36.7204 73.3602 36.4704 73.3102 36.2104 73.2502L36.0004 73.1902C35.7204 73.1302 35.4304 73.0602 35.1504 72.9802C34.8704 72.9002 34.6004 72.8202 34.3204 72.7402C34.0404 72.6602 33.7704 72.5702 33.4904 72.4802C33.1804 72.3802 32.8704 72.2702 32.5604 72.1602C32.5104 72.1302 32.4504 72.1102 32.3904 72.0902C32.0904 71.9802 31.7804 71.8702 31.4804 71.7402C31.1504 71.6102 30.8104 71.4702 30.4804 71.3202C30.1504 71.1702 29.8204 71.0202 29.4804 70.8602C25.8404 69.1202 22.2704 66.6902 18.6904 63.6402C18.3604 63.3602 18.0304 63.0802 17.7104 62.7902C17.3904 62.5102 17.0704 62.2302 16.7504 61.9402C15.4304 60.7402 14.1204 59.4702 12.7904 58.1102C12.1304 57.4402 11.4704 56.7502 10.8004 56.0402C10.4404 55.6602 10.0804 55.2702 9.73039 54.8902C9.37039 54.4902 9.01039 54.1002 8.65039 53.7002C9.72039 50.4702 10.9004 47.4002 12.1904 44.4902C51.7504 51.0402 92.0304 51.3902 133.05 45.2102C134.61 44.9902 136.16 44.7402 137.72 44.4902C137.92 44.9002 138.11 45.3102 138.3 45.7302L138.63 46.4502C138.76 46.7502 138.9 47.0602 139.03 47.3602C139.35 48.0802 139.67 48.8102 139.98 49.5502C140.34 50.4202 140.69 51.3102 141.03 52.2102H141.04C141.37 53.1102 141.71 54.0202 142.03 54.9402Z" fill="#2B3036"/>
<path d="M138.24 38.8109C138.63 40.5109 138.48 41.8509 137.52 42.4709C137.23 42.4309 136.94 42.3809 136.66 42.3509C135.65 42.1909 134.65 42.0409 133.65 41.9009C133.34 41.8609 133.03 41.8109 132.72 41.7709C134.54 37.0009 130.61 30.0209 126.26 22.8809C127.86 23.2809 129.32 24.1309 130.43 25.3509C133.37 28.5709 137.33 34.7209 138.24 38.8109Z" fill="#464C51"/>
<path d="M136.66 42.3503C137.02 43.0603 137.37 43.7603 137.72 44.4903C136.16 44.7403 134.61 44.9903 133.05 45.2103C92.0304 51.3903 51.7504 51.0403 12.1904 44.4903C12.5004 43.7703 12.8204 43.0703 13.1504 42.3803C18.0504 41.6403 22.9604 40.9803 27.8804 40.4103C34.8004 39.6003 41.7404 38.9603 48.7504 38.5003C55.6104 38.0403 62.5304 37.7603 69.5304 37.6703C76.6004 37.5703 83.7504 37.6703 91.0204 37.9703C97.8204 38.2403 104.73 38.7003 111.76 39.3403C118.62 39.9603 125.6 40.7703 132.72 41.7703C133.03 41.8103 133.34 41.8603 133.65 41.9003C134.65 42.0403 135.65 42.1903 136.66 42.3403V42.3503Z" fill="#6C6C6C"/>
<path d="M126.07 22.8297C126.13 22.8497 126.2 22.8597 126.26 22.8797C130.61 30.0197 134.54 36.9997 132.72 41.7697C125.6 40.7697 118.62 39.9597 111.76 39.3397C114.66 35.5397 111.76 27.3197 109.3 19.4297C110.06 19.5497 110.84 19.6697 111.6 19.8097C112.84 20.0197 114.07 20.2497 115.31 20.4897C116.07 20.6297 116.83 20.7797 117.58 20.9397C118.82 21.1797 120.05 21.4497 121.29 21.7197C122.89 22.0697 124.48 22.4397 126.07 22.8297Z" fill="#464C51"/>
<path d="M69.5296 16.9193C67.9896 16.9693 66.4496 17.0293 64.8996 17.1093C64.3396 17.1293 63.7796 17.1593 63.2196 17.1993C59.9096 17.3993 56.5796 17.6693 53.2296 18.0093C52.5896 18.0693 51.9396 18.1393 51.2896 18.2193C51.1496 18.2293 51.0096 18.2493 50.8696 18.2593C50.4896 18.2993 50.1196 18.3493 49.7396 18.3893C49.3596 18.4293 48.9896 18.4793 48.6096 18.5293C45.8196 18.8693 43.0196 19.2593 40.2096 19.6993C39.4596 19.8093 38.6996 19.9393 37.9396 20.0693C36.9296 20.2293 35.9196 20.3993 34.8996 20.5893C34.1296 20.7193 33.3596 20.8593 32.5896 21.0093C30.7696 21.3493 28.9396 21.7093 27.1096 22.0893H27.0996C25.5196 22.4193 23.9396 22.7593 22.3496 23.1193C25.6996 18.9693 29.4296 15.2393 33.7396 12.0693C33.7596 12.0593 33.7796 12.0593 33.7996 12.0493C35.0996 11.6593 36.3996 11.2893 37.7096 10.9393C38.3296 10.7693 38.9396 10.6093 39.5596 10.4493C42.9196 9.58933 46.2896 8.84933 49.6696 8.24933C49.6696 8.24933 49.6696 8.24933 49.6896 8.24933C65.8696 5.32933 82.1796 5.31933 98.6496 8.54933C98.6596 8.54933 98.6696 8.54933 98.6896 8.54933C100.01 8.80933 101.35 9.08933 102.68 9.38933C103.34 9.53933 104.01 9.69933 104.68 9.85933C107.42 10.5193 110.18 11.2793 112.92 12.1193C113.6 12.3293 114.28 12.5493 114.96 12.7693C118.99 15.6293 122.71 18.9893 126.07 22.8293C124.48 22.4393 122.89 22.0693 121.29 21.7193C120.05 21.4493 118.82 21.1793 117.58 20.9393C116.82 20.7793 116.07 20.6293 115.31 20.4893C114.07 20.2493 112.84 20.0193 111.6 19.8093C110.84 19.6793 110.07 19.5493 109.3 19.4293C108.51 19.2993 107.71 19.1793 106.91 19.0593C105.67 18.8693 104.42 18.6993 103.17 18.5393C101.92 18.3693 100.67 18.2193 99.4196 18.0893C98.2096 17.9493 97.0096 17.8293 95.7996 17.7193C95.6296 17.6993 95.4596 17.6893 95.2896 17.6693C94.1496 17.5593 93.0096 17.4693 91.8696 17.3893C91.2596 17.3393 90.6396 17.2993 90.0196 17.2593C88.6896 17.1693 87.3596 17.0993 86.0196 17.0393C85.0696 16.9893 84.1196 16.9493 83.1696 16.9293C79.7696 16.8193 76.3496 16.7893 72.9096 16.8393C71.7896 16.8493 70.6596 16.8793 69.5296 16.9193Z" fill="#464C51"/>
<path d="M114.75 12.59C114.75 12.59 114.76 12.7 114.7 12.68C114.11 12.49 113.51 12.3 112.92 12.12C110.18 11.28 107.42 10.52 104.68 9.86C104.01 9.69 103.35 9.54 102.68 9.39C101.35 9.09 100.01 8.81 98.6903 8.55C98.6703 8.55 98.6603 8.55 98.6503 8.55C82.1803 5.32 65.8703 5.33 49.6903 8.25C49.6803 8.25 49.6703 8.25 49.6703 8.25C46.2903 8.85 42.9203 9.59 39.5603 10.45C38.9403 10.61 38.3203 10.77 37.7103 10.94C36.4003 11.29 35.1003 11.66 33.8003 12.05C33.7903 12.05 33.7803 12.05 33.7903 12.03C43.5103 4.89 56.1603 0.55 74.2503 0.5C89.6903 0.54 103.49 4.69 114.75 12.59Z" fill="white"/>
<path d="M109.3 19.4298C111.77 27.3198 114.66 35.5398 111.76 39.3398C104.73 38.6998 97.8195 38.2398 91.0195 37.9698V37.5898C93.6395 34.2298 91.5995 25.4798 90.0195 17.2598C90.6395 17.2998 91.2495 17.3398 91.8695 17.3898C93.0095 17.4698 94.1495 17.5698 95.2895 17.6698C95.4595 17.6898 95.6295 17.6998 95.7995 17.7198C97.0095 17.8298 98.2095 17.9498 99.4195 18.0898C100.67 18.2298 101.92 18.3798 103.17 18.5398C104.42 18.6998 105.67 18.8698 106.91 19.0598C107.71 19.1798 108.5 19.2998 109.3 19.4298Z" fill="#464C51"/>
<path d="M90.0203 17.2598C91.6003 25.4798 93.6403 34.2298 91.0303 37.5898V37.9698C83.7503 37.6698 76.6003 37.5698 69.5303 37.6698V16.9198C70.6603 16.8898 71.7903 16.8598 72.9103 16.8398C76.3503 16.7898 79.7703 16.8198 83.1703 16.9298C84.1203 16.9598 85.0703 16.9898 86.0203 17.0398C87.3603 17.0998 88.6903 17.1698 90.0203 17.2598Z" fill="#464C51"/>
<path d="M69.5299 37.6299V37.6699C62.5299 37.7599 55.6099 38.0399 48.7499 38.4999C46.6899 34.6599 49.1899 26.0399 50.8699 18.2599C51.0099 18.2499 51.1499 18.2299 51.2899 18.2199C51.9399 18.1399 52.5799 18.0699 53.2299 18.0099C56.5799 17.6699 59.9099 17.3999 63.2199 17.1999L64.8999 17.1099C66.4499 17.0299 67.9899 16.9699 69.5299 16.9199V37.6299Z" fill="#464C51"/>
<path d="M49.7403 18.3898C50.1203 18.3498 50.4903 18.2998 50.8703 18.2598C49.1903 26.0398 46.6903 34.6598 48.7503 38.4898C41.7403 38.9598 34.8003 39.5998 27.8803 40.4098C26.3703 36.7298 28.7203 29.5598 32.5903 21.0098C33.3603 20.8698 34.1303 20.7198 34.9003 20.5898C35.9203 20.3998 36.9303 20.2298 37.9403 20.0698C38.7003 19.9398 39.4603 19.8198 40.2103 19.6998C43.0203 19.2598 45.8203 18.8698 48.6103 18.5298C48.9903 18.4798 49.3603 18.4298 49.7403 18.3898Z" fill="#464C51"/>
<path d="M27.1101 22.0898C28.9401 21.7098 30.7701 21.3498 32.5901 21.0098C28.7201 29.5598 26.3701 36.7298 27.8801 40.4098C22.9601 40.9798 18.0501 41.6398 13.1501 42.3798C12.9601 42.4098 12.7601 42.4398 12.5701 42.4698C9.3001 40.9998 14.7301 30.3198 18.5001 25.5198C19.4601 24.2998 20.8301 23.4598 22.3501 23.1198C23.9401 22.7598 25.5201 22.4198 27.1001 22.0998H27.1101V22.0898Z" fill="#464C51"/>
<path d="M12.1904 44.4909C12.5004 43.7709 12.8204 43.0709 13.1504 42.3809" stroke="#231815" stroke-miterlimit="10"/>
<path d="M39.4697 73.8105C39.7997 73.8505 40.1197 73.8806 40.4497 73.9106" stroke="#231815" stroke-miterlimit="10"/>
<path d="M36.21 73.25C36.47 73.31 36.72 73.36 36.98 73.41C37.16 73.45 37.34 73.49 37.53 73.52" stroke="#231815" stroke-miterlimit="10"/>
<path d="M35.1504 72.9805C35.4304 73.0605 35.7204 73.1305 36.0004 73.1905" stroke="#231815" stroke-miterlimit="10"/>
<path d="M32.5596 72.1602C32.8696 72.2702 33.1796 72.3802 33.4896 72.4802C33.7596 72.5702 34.0396 72.6602 34.3196 72.7402" stroke="#231815" stroke-miterlimit="10"/>
<path d="M29.4795 70.8594C29.8095 71.0194 30.1495 71.1694 30.4795 71.3194C30.8095 71.4694 31.1495 71.6094 31.4795 71.7394C31.7795 71.8694 32.0895 71.9794 32.3895 72.0894" stroke="#231815" stroke-miterlimit="10"/>
<path d="M16.75 61.9395C17.07 62.2295 17.39 62.5195 17.71 62.7895C18.04 63.0895 18.36 63.3695 18.69 63.6395" stroke="#231815" stroke-miterlimit="10"/>
<path d="M9.72949 54.8906C10.7595 56.0106 11.7695 57.0806 12.7895 58.1106" stroke="#231815" stroke-miterlimit="10"/>
<path d="M143.72 60.0892C150.15 81.1892 152.59 108.649 150.7 142.969H1.52998C-1.06002 106.089 1.19998 76.1592 8.64997 53.6992" stroke="#231815" stroke-miterlimit="10"/>
<path d="M137.72 44.4902C136.16 44.7402 134.61 44.9902 133.05 45.2102C92.0304 51.3902 51.7504 51.0402 12.1904 44.4902C10.9004 47.4002 9.72039 50.4702 8.65039 53.7002C9.01039 54.1002 9.37039 54.4902 9.73039 54.8902C10.0804 55.2702 10.4404 55.6602 10.8004 56.0402C11.4704 56.7502 12.1304 57.4402 12.7904 58.1102C14.1204 59.4702 15.4304 60.7402 16.7504 61.9402C17.0704 62.2302 17.3904 62.5102 17.7104 62.7902C18.0304 63.0802 18.3604 63.3602 18.6904 63.6402C22.2704 66.6902 25.8404 69.1202 29.4804 70.8602C29.8204 71.0202 30.1504 71.1702 30.4804 71.3202C30.8104 71.4702 31.1504 71.6102 31.4804 71.7402C31.7804 71.8702 32.0904 71.9802 32.3904 72.0902C32.4504 72.1102 32.5104 72.1302 32.5604 72.1602C32.8704 72.2702 33.1804 72.3802 33.4904 72.4802C33.7704 72.5702 34.0404 72.6602 34.3204 72.7402C34.6004 72.8202 34.8704 72.9002 35.1504 72.9802C35.4304 73.0602 35.7104 73.1302 36.0004 73.1902L36.2104 73.2502C36.4604 73.3102 36.7204 73.3602 36.9804 73.4102C37.1604 73.4502 37.3504 73.4902 37.5304 73.5202C38.1804 73.6402 38.8204 73.7302 39.4704 73.8102C39.8004 73.8502 40.1204 73.8802 40.4504 73.9102C46.1904 74.3802 52.2904 73.1802 59.0704 70.0702C62.7104 68.4002 66.5704 67.2002 70.5404 66.7602C75.4004 66.2102 80.2004 66.6402 84.9404 67.8902C86.6104 68.3302 88.2304 68.9302 89.8104 69.6202C110.48 78.7302 124.08 70.8602 140.65 56.1702C141.11 55.7702 141.57 55.3602 142.03 54.9402" stroke="#231815" stroke-miterlimit="10"/>
<path d="M141.039 52.2208H141.029C140.699 51.3108 140.339 50.4208 139.979 49.5508" stroke="#231815" stroke-miterlimit="10"/>
<path d="M126.26 22.8809C127.86 23.2809 129.32 24.1309 130.43 25.3509C133.37 28.5709 137.33 34.7209 138.24 38.8109" stroke="#231815" stroke-miterlimit="10"/>
<path d="M136.66 42.3495C135.65 42.1895 134.65 42.0395 133.65 41.8995C133.34 41.8595 133.03 41.8095 132.72 41.7695" stroke="#231815" stroke-miterlimit="10"/>
<path d="M126.07 22.8301C126.13 22.8501 126.2 22.8601 126.26 22.8801C130.61 30.0201 134.54 37.0001 132.72 41.7701C125.6 40.7701 118.62 39.9601 111.76 39.3401C104.73 38.7001 97.8201 38.2401 91.0201 37.9701C83.7501 37.6701 76.6001 37.5701 69.5301 37.6701C62.5301 37.7601 55.6101 38.0401 48.7501 38.5001C41.7401 38.9601 34.8001 39.6001 27.8801 40.4101C22.9601 40.9801 18.0501 41.6401 13.1501 42.3801C12.9601 42.4101 12.7601 42.4401 12.5701 42.4701C9.3001 41.0001 14.7301 30.3201 18.5001 25.5201C19.4601 24.3001 20.8301 23.4601 22.3501 23.1201" stroke="#231815" stroke-miterlimit="10"/>
<path d="M115.31 20.4902C116.07 20.6302 116.83 20.7802 117.58 20.9402" stroke="#231815" stroke-miterlimit="10"/>
<path d="M95.7998 17.7207C97.0098 17.8307 98.2098 17.9507 99.4198 18.0907C100.67 18.2307 101.92 18.3807 103.17 18.5407C104.42 18.7007 105.67 18.8707 106.91 19.0607C107.71 19.1807 108.5 19.3007 109.3 19.4307C110.06 19.5507 110.84 19.6707 111.6 19.8107" stroke="#231815" stroke-miterlimit="10"/>
<path d="M90.0195 17.2598C90.6395 17.2998 91.2495 17.3398 91.8695 17.3898C93.0095 17.4698 94.1495 17.5698 95.2895 17.6698" stroke="#231815" stroke-miterlimit="10"/>
<path d="M69.5303 16.9198C70.6603 16.8898 71.7903 16.8598 72.9103 16.8398C76.3503 16.7898 79.7703 16.8198 83.1703 16.9298C84.1203 16.9598 85.0703 16.9898 86.0203 17.0398" stroke="#231815" stroke-miterlimit="10"/>
<path d="M63.2197 17.1994L64.8997 17.1094" stroke="#231815" stroke-miterlimit="10"/>
<path d="M51.29 18.2198C51.94 18.1398 52.58 18.0698 53.23 18.0098" stroke="#231815" stroke-miterlimit="10"/>
<path d="M48.6104 18.5306C48.9904 18.4806 49.3604 18.4306 49.7404 18.3906" stroke="#231815" stroke-miterlimit="10"/>
<path d="M37.9404 20.0692C38.7004 19.9392 39.4604 19.8192 40.2104 19.6992" stroke="#231815" stroke-miterlimit="10"/>
<path d="M32.5898 21.0098C33.3598 20.8698 34.1298 20.7198 34.8998 20.5898" stroke="#231815" stroke-miterlimit="10"/>
<path d="M112.92 12.1208C113.6 12.3308 114.28 12.5508 114.96 12.7708C118.99 15.6308 122.71 18.9908 126.07 22.8308C124.48 22.4408 122.89 22.0708 121.29 21.7208C120.05 21.4508 118.82 21.1808 117.58 20.9408C116.82 20.7808 116.07 20.6308 115.31 20.4908C114.07 20.2508 112.84 20.0208 111.6 19.8108C110.84 19.6808 110.07 19.5508 109.3 19.4308C108.51 19.3008 107.71 19.1808 106.91 19.0608C105.67 18.8708 104.42 18.7008 103.17 18.5408C101.92 18.3708 100.67 18.2208 99.4196 18.0908C98.2096 17.9508 97.0096 17.8308 95.7996 17.7208C95.6296 17.7008 95.4596 17.6908 95.2896 17.6708C94.1496 17.5608 93.0096 17.4708 91.8696 17.3908C91.2596 17.3408 90.6396 17.3008 90.0196 17.2608C88.6896 17.1708 87.3596 17.1008 86.0196 17.0408C85.0696 16.9908 84.1196 16.9508 83.1696 16.9308C79.7696 16.8208 76.3496 16.7908 72.9096 16.8408C71.7896 16.8508 70.6596 16.8808 69.5296 16.9208C67.9896 16.9708 66.4496 17.0308 64.8996 17.1108C64.3396 17.1308 63.7796 17.1608 63.2196 17.2008C59.9096 17.4008 56.5796 17.6708 53.2296 18.0108C52.5896 18.0708 51.9396 18.1408 51.2896 18.2208C51.1496 18.2308 51.0096 18.2508 50.8696 18.2608C50.4896 18.3008 50.1196 18.3508 49.7396 18.3908C49.3596 18.4308 48.9896 18.4808 48.6096 18.5308C45.8196 18.8708 43.0196 19.2608 40.2096 19.7008C39.4596 19.8108 38.6996 19.9408 37.9396 20.0708C36.9296 20.2308 35.9196 20.4008 34.8996 20.5908C34.1296 20.7208 33.3596 20.8608 32.5896 21.0108C30.7696 21.3508 28.9396 21.7108 27.1096 22.0908H27.0996C25.5196 22.4208 23.9396 22.7608 22.3496 23.1208C25.6996 18.9708 29.4296 15.2408 33.7396 12.0708C33.7596 12.0608 33.7796 12.0608 33.7996 12.0508" stroke="#231815" stroke-miterlimit="10"/>
<path d="M102.68 9.39062C103.35 9.54063 104.01 9.69062 104.68 9.86062" stroke="#231815" stroke-miterlimit="10"/>
<path d="M37.71 10.9392C38.33 10.7692 38.94 10.6092 39.56 10.4492" stroke="#231815" stroke-miterlimit="10"/>
<path d="M126.14 22.9101C126.14 22.9101 126.09 22.8601 126.07 22.8301" stroke="#231815" stroke-miterlimit="10"/>
<path d="M33.7999 12.05C33.7999 12.05 33.7799 12.05 33.7899 12.03C43.5099 4.89 56.1599 0.55 74.2499 0.5C89.6899 0.54 103.49 4.69 114.75 12.59C114.8 12.62 114.76 12.7 114.7 12.68C114.11 12.49 113.51 12.3 112.92 12.12C110.18 11.28 107.42 10.52 104.68 9.86C104.01 9.7 103.34 9.54 102.68 9.39C101.35 9.09 100.01 8.81 98.6899 8.55C98.6699 8.55 98.6599 8.55 98.6499 8.55C82.1799 5.32 65.8699 5.33 49.6899 8.25C49.6799 8.25 49.6699 8.25 49.6699 8.25C46.2899 8.85 42.9199 9.59 39.5599 10.45C38.9399 10.61 38.3199 10.77 37.7099 10.94C36.3999 11.29 35.0999 11.66 33.7999 12.05Z" stroke="#231815" stroke-miterlimit="10"/>
<path d="M141.03 52.2105C140.69 51.3105 140.34 50.4205 139.98 49.5505C139.67 48.8105 139.35 48.0805 139.03 47.3605C138.9 47.0605 138.76 46.7505 138.63 46.4505L138.3 45.7305C138.11 45.3105 137.92 44.9005 137.72 44.4905C137.37 43.7605 137.02 43.0605 136.66 42.3505C136.94 42.3805 137.23 42.4305 137.52 42.4705C138.48 41.8505 138.63 40.5105 138.24 38.8105C140.32 39.2805 142.69 40.2605 143.94 42.3005" stroke="#231815" stroke-miterlimit="10"/>
<path d="M144.27 50.2308C144.77 49.2508 144.91 47.9408 144.85 46.4708C144.85 46.2008 144.82 45.9208 144.8 45.6408C144.81 44.2908 144.48 43.1908 143.94 42.3008C154.74 38.7508 157.15 46.4708 169.28 52.7408C162.9 54.5908 157.25 54.9108 152.31 53.7808" stroke="#231815" stroke-miterlimit="10"/>
<path d="M143.72 60.0905C143.18 58.3205 142.62 56.6105 142.03 54.9405C141.71 54.0205 141.37 53.1105 141.04 52.2205C142.71 52.0805 143.71 51.3505 144.27 50.2305C146.7 51.9205 149.38 53.1105 152.31 53.7805C153.98 57.5805 155.11 62.4905 158.49 68.4405C152.15 66.5105 147.24 63.7205 143.72 60.0905Z" stroke="#231815" stroke-miterlimit="10"/>
<path d="M32.5903 21.0098C28.7203 29.5598 26.3703 36.7298 27.8803 40.4098" stroke="#231815" stroke-miterlimit="10"/>
<path d="M50.8699 18.2598C49.1899 26.0398 46.6899 34.6598 48.7499 38.4898" stroke="#231815" stroke-miterlimit="10"/>
<path d="M69.5303 16.8105V16.9205V37.6305" stroke="#231815" stroke-miterlimit="10"/>
<path d="M89.9404 16.8594C89.9704 16.9894 89.9904 17.1294 90.0204 17.2594C91.6004 25.4794 93.6404 34.2294 91.0304 37.5894" stroke="#231815" stroke-miterlimit="10"/>
<path d="M109.3 19.4297C111.77 27.3197 114.66 35.5397 111.76 39.3397" stroke="#231815" stroke-miterlimit="10"/>
<path d="M52.3504 59.9992C51.8304 65.0792 47.4204 68.7692 42.5104 68.2692C37.6004 67.7692 34.0204 63.2592 34.5404 58.1792C34.7104 56.5092 35.3104 54.9792 36.2104 53.6992L52.3704 58.3692C52.4204 58.9092 52.4104 59.4492 52.3504 59.9992Z" fill="white"/>
<path d="M97.4895 59.9992C98.0095 65.0792 102.42 68.7692 107.33 68.2692C112.24 67.7692 115.82 63.2592 115.3 58.1792C115.13 56.5092 114.53 54.9792 113.63 53.6992L97.4695 58.3692C97.4195 58.9092 97.4295 59.4492 97.4895 59.9992Z" fill="white"/>
<path d="M87.5297 73.5605C88.5697 73.5605 89.3797 74.3906 89.2697 75.3306C88.3997 82.8506 82.0197 88.6906 74.2697 88.6906C66.5197 88.6906 60.1497 82.8506 59.2697 75.3306C59.1597 74.3906 59.9797 73.5605 61.0097 73.5605H87.5197H87.5297Z" fill="black"/>
</g>
<defs>
<clipPath id="clip0_3663_7813">
<rect width="170.62" height="143.47" fill="white"/>
</clipPath>
</defs>
</svg>
