<svg width="220" height="205" viewBox="0 0 220 205" fill="none" xmlns="http://www.w3.org/2000/svg">
<path d="M218.436 119.067C220.156 123.727 219.386 136.507 189.086 136.027C190.636 127.277 191.086 117.377 190.916 107.847C190.846 104.017 190.686 100.247 190.446 96.6367C190.716 100.367 190.926 104.107 191.026 107.847C194.656 110.527 202.456 116.027 205.606 116.147C209.776 116.317 216.686 114.317 218.436 119.067Z" fill="#6C6C6C"/>
<path d="M213.516 65.7477C214.106 66.2477 213.956 67.1977 213.256 67.5177C210.546 68.7677 204.426 71.0077 198.346 69.3177C195.476 62.0377 189.256 59.1477 189.256 59.1477C189.526 57.8277 189.556 56.7577 189.426 55.9077H189.506C189.506 55.9077 199.216 53.5277 213.516 65.7477Z" fill="#2B3036"/>
<path d="M205.056 83.5865C205.296 83.7165 205.176 84.0865 204.906 84.0465C201.576 83.5065 193.356 81.5965 188.406 75.5565C187.856 71.2865 187.186 67.0265 186.386 62.7865C187.316 62.4565 187.956 61.8565 188.386 61.2565C189.116 60.2265 189.256 59.1465 189.256 59.1465C189.256 59.1465 195.476 62.0365 198.346 69.3165C198.696 70.1865 198.996 71.1265 199.226 72.1365C199.506 73.3365 199.636 74.5465 199.706 75.7765C199.786 77.1765 200.446 81.0065 205.056 83.5865Z" fill="#2B3036"/>
<path d="M87.5454 195.796C86.4554 199.686 84.3754 201.796 82.4754 202.936C80.2454 204.276 77.4654 204.196 75.2254 202.866C68.4454 198.856 68.3654 190.046 69.0554 184.636C69.4154 181.876 71.0154 179.426 73.3854 177.966L76.5454 176.006C77.5854 175.366 77.7354 173.936 76.8654 173.086C74.1354 170.416 71.9154 167.496 70.1254 164.356C63.9454 153.576 62.9054 140.456 64.1554 127.956C68.3054 130.336 72.6754 130.586 76.8354 129.496C79.5754 128.786 82.2154 127.496 84.6554 125.856C85.1554 130.226 85.3454 133.866 85.4254 136.056C85.4454 136.826 86.3354 137.276 86.9454 136.806C89.9654 134.486 94.7254 134.116 96.4654 134.066C96.8354 134.056 97.1754 133.846 97.3154 133.496C98.4454 130.566 102.545 128.396 104.795 127.386C105.455 127.096 105.555 126.216 104.995 125.756C102.965 124.116 98.8754 120.456 94.9954 114.996C97.5954 110.666 98.5454 106.496 96.9354 104.236C94.5054 100.826 91.0854 99.7362 87.4354 99.8762C83.7654 91.6162 77.9954 87.6663 74.1354 85.8563C74.2154 85.7763 74.2954 85.6863 74.3754 85.6063C74.4454 85.5263 74.5254 85.4463 74.6054 85.3663C74.6954 85.2663 74.7954 85.1762 74.8754 85.0962L75.1254 84.8462C75.2154 84.7562 75.2854 84.6763 75.3654 84.6163C75.4354 84.5363 75.5054 84.4663 75.5754 84.4063C75.6354 84.3363 75.7054 84.2763 75.7654 84.2163C75.8254 84.1463 75.8754 84.0962 75.9354 84.0562L76.0754 83.9162C76.1254 83.8662 76.1654 83.8262 76.1954 83.8062L76.2854 83.7163C76.2854 83.7163 76.3054 83.6863 76.3254 83.6763C76.3254 83.6663 76.3554 83.6563 76.3554 83.6463C76.3854 83.6063 76.4054 83.6063 76.4054 83.6063C76.8554 82.0263 77.2254 80.3663 77.5454 78.6763C78.2554 74.9862 78.7354 71.1262 79.2554 67.5862C79.2554 67.5862 80.5154 69.5263 82.8054 72.0063C86.4954 76.0063 92.8654 81.4162 100.915 82.3462C111.695 83.5962 112.135 78.0062 117.915 78.3462C123.695 78.6762 129.585 85.4563 138.915 85.7863C147.955 86.1163 166.545 78.9762 184.465 63.1763C185.025 62.6763 185.595 62.1762 186.155 61.6562C186.235 62.0362 186.305 62.4063 186.375 62.7863C187.175 67.0263 187.845 71.2862 188.395 75.5562C189.225 81.8862 189.825 88.2463 190.295 94.6063C190.345 95.2762 190.395 95.9562 190.435 96.6362C190.675 100.246 190.835 104.016 190.905 107.846C191.075 117.376 190.625 127.276 189.075 136.026C186.765 147.696 182.165 159.106 174.445 168.256C174.145 168.606 173.845 168.956 173.545 169.296C173.025 169.866 172.995 170.726 173.455 171.356C177.245 176.636 177.985 184.516 178.125 187.736C178.155 188.556 178.775 189.226 179.585 189.356C185.025 190.226 186.805 192.716 187.055 195.286C187.435 199.136 184.215 202.396 180.345 202.396H165.985C164.145 202.396 162.405 201.476 161.445 199.906C157.405 193.286 151.455 188.266 147.465 185.456V185.406C147.385 185.416 147.305 185.436 147.235 185.456C142.035 186.716 135.735 187.896 128.945 188.096C121.445 188.316 114.755 187.926 108.795 187.066L108.565 186.936C105.385 192.246 99.2654 197.206 87.5354 195.796H87.5454Z" fill="#6C6C6C"/>
<path d="M189.426 55.9075C189.556 56.7575 189.526 57.8275 189.256 59.1475C189.256 59.1475 189.116 60.2275 188.386 61.2575C187.956 61.8575 187.316 62.4575 186.386 62.7875C186.316 62.4075 186.246 62.0375 186.166 61.6575C185.856 60.0375 185.516 58.4275 185.156 56.8175C184.976 55.9875 184.786 55.1575 184.586 54.3175V52.3575H184.926C184.926 52.3575 188.826 52.0475 189.426 55.9075Z" fill="#2B3036"/>
<path d="M185.156 56.8173C185.516 58.4273 185.856 60.0373 186.166 61.6573C185.606 62.1773 185.036 62.6773 184.476 63.1773C166.556 78.9773 147.966 86.1173 138.926 85.7873C129.596 85.4573 123.706 78.6773 117.926 78.3473C112.146 78.0073 111.706 83.5973 100.926 82.3473C92.8756 81.4173 86.5056 76.0073 82.8156 72.0073C80.5256 69.5273 79.2656 67.5873 79.2656 67.5873V67.5573C79.2956 67.3773 79.3256 67.1973 79.3456 67.0173C80.2056 61.2373 81.1456 55.3773 82.4556 49.6273C82.4556 49.6273 83.3456 49.3873 85.0156 49.0273C85.0156 49.0273 120.236 70.5673 179.126 52.5673H179.136C180.946 53.1173 182.766 53.6973 184.586 54.3173C184.786 55.1573 184.976 55.9873 185.156 56.8173ZM146.296 70.2473C146.296 68.7373 145.966 67.3073 145.386 66.0773L132.756 68.7873C132.676 69.2673 132.646 69.7473 132.646 70.2473C132.646 74.8473 135.706 78.5673 139.476 78.5673C143.246 78.5673 146.296 74.8473 146.296 70.2473ZM110.526 68.0273C110.566 67.5373 110.586 67.0573 110.566 66.5873L99.5956 62.7873C98.9556 63.9473 98.5156 65.3073 98.3656 66.7873C97.9056 71.2873 100.246 75.1973 103.616 75.5373C106.966 75.8773 110.066 72.5273 110.526 68.0273Z" fill="#2B3036"/>
<path d="M184.585 52.3565V54.3165C182.765 53.6965 180.945 53.1165 179.135 52.5665H179.125C175.965 51.6165 172.825 50.7665 169.715 50.0265C171.315 42.6565 168.465 34.7865 168.325 34.3965C173.645 36.4165 177.815 38.4665 180.595 39.9665C181.215 40.3065 181.765 40.6065 182.245 40.8865C183.695 41.7265 184.585 43.0165 184.585 44.6865V52.3565Z" fill="#464C51"/>
<path d="M94.4653 32.6362C91.9053 33.4762 89.3153 34.4262 86.6953 35.4962C88.1053 31.8762 89.7753 28.3662 91.7953 25.0262C91.7953 25.0262 91.8053 25.0162 91.8253 25.0062C93.0153 24.4462 126.115 9.14622 177.605 32.0462C178.705 34.6362 179.695 37.2862 180.595 39.9662C177.815 38.4662 173.645 36.4162 168.325 34.3962H168.315C163.865 32.7062 158.615 31.0362 152.685 29.7262C152.675 29.7262 152.675 29.7262 152.675 29.7262C148.485 28.7962 143.965 28.0462 139.145 27.5862C134.185 27.1062 128.925 26.9462 123.405 27.2162C118.525 27.4662 113.445 28.0462 108.195 29.0562C103.735 29.9262 99.1453 31.0962 94.4653 32.6462V32.6362Z" fill="#464C51"/>
<path d="M173.695 24.0861C175.145 26.6461 176.435 29.3161 177.605 32.0461C126.115 9.14607 93.0152 24.4461 91.8252 25.0061C93.4652 22.2561 95.3652 19.6161 97.5252 17.1261C98.9852 15.4461 100.535 13.9061 102.165 12.4861C102.165 12.4861 102.175 12.4861 102.185 12.4761C103.075 12.1561 132.325 1.82607 173.695 24.0861Z" fill="white"/>
<path d="M93.6556 47.4067C97.6256 46.7867 102.546 46.1467 108.196 45.6767C112.806 45.2867 117.916 45.0167 123.406 44.9667C128.556 44.9167 134.046 45.0567 139.796 45.4667H139.836C144.676 45.8167 149.696 46.3567 154.836 47.1367C159.706 47.8667 164.676 48.8167 169.716 50.0267C172.826 50.7667 175.966 51.6167 179.126 52.5667C120.236 70.5667 85.0156 49.0267 85.0156 49.0267C86.9256 48.6067 89.8656 48.0167 93.6556 47.4067Z" fill="#6C6C6C"/>
<path d="M120.276 2.69628C121.116 2.55628 140.806 -0.663719 165.526 12.8563C165.536 12.8563 165.536 12.8663 165.546 12.8663C168.716 16.2263 171.396 20.0163 173.696 24.0863C132.326 1.82628 103.076 12.1563 102.186 12.4763C107.516 7.84628 113.666 4.61628 120.276 2.69628Z" fill="#464C51"/>
<path d="M168.326 34.3966C168.466 34.7866 171.316 42.6566 169.716 50.0266C164.676 48.8166 159.706 47.8666 154.836 47.1366C156.986 38.0166 152.886 30.1166 152.686 29.7266C158.616 31.0366 163.866 32.7066 168.316 34.3866H168.326V34.3966Z" fill="#464C51"/>
<path d="M160.555 8.27682C162.345 9.68682 163.995 11.2168 165.525 12.8568C140.805 -0.663177 121.115 2.55682 120.275 2.69682C127.115 0.696824 134.445 0.0968239 141.845 0.756824C148.695 1.37682 155.165 4.01682 160.555 8.27682Z" fill="white"/>
<path d="M152.686 29.7262C152.886 30.1162 156.986 38.0162 154.836 47.1262C149.696 46.3562 144.676 45.8162 139.836 45.4662L139.856 45.1862C141.746 37.6062 139.146 27.5762 139.146 27.5762C143.966 28.0362 148.486 28.7862 152.676 29.7162C152.676 29.7162 152.676 29.7162 152.686 29.7162V29.7262Z" fill="#464C51"/>
<path d="M145.386 66.0762C145.966 67.3062 146.296 68.7362 146.296 70.2462C146.296 74.8462 143.246 78.5662 139.476 78.5662C135.706 78.5662 132.646 74.8462 132.646 70.2462C132.646 69.7462 132.676 69.2662 132.756 68.7862L145.386 66.0762Z" fill="white"/>
<path d="M139.145 27.577C139.145 27.577 141.745 37.6069 139.855 45.1869L139.835 45.467H139.795C134.045 45.057 128.555 44.917 123.405 44.967V27.207C128.925 26.937 134.185 27.097 139.145 27.577Z" fill="#464C51"/>
<path d="M123.406 27.207V44.967C117.916 45.017 112.806 45.287 108.196 45.677C105.866 40.547 108.196 29.047 108.196 29.047C113.446 28.037 118.526 27.457 123.406 27.207Z" fill="#464C51"/>
<path d="M110.565 66.5871C110.585 67.0571 110.565 67.5371 110.525 68.0271C110.065 72.5271 106.965 75.8771 103.615 75.5371C100.245 75.1971 97.9053 71.2871 98.3653 66.7871C98.5153 65.3071 98.9553 63.9471 99.5953 62.7871L110.565 66.5871Z" fill="white"/>
<path d="M108.195 29.0469C108.195 29.0469 105.865 40.5469 108.195 45.6769C102.545 46.1469 97.6254 46.7869 93.6554 47.4069C91.8454 39.0069 94.3454 32.9269 94.4654 32.6369C99.1454 31.0869 103.735 29.9169 108.195 29.0469Z" fill="#464C51"/>
<path d="M91.8753 119.586C91.8753 119.586 91.9453 119.646 91.9853 119.696C93.2353 121.296 94.3653 123.156 95.4553 124.866C95.6053 125.116 96.0053 124.886 95.8653 124.626C95.3453 123.636 94.8253 122.646 94.2753 121.666C93.8153 120.876 93.1553 119.596 92.5753 118.896C92.5053 118.816 92.4453 118.756 92.3753 118.716C93.3753 117.486 94.2553 116.236 94.9953 114.996C98.8753 120.456 102.965 124.116 104.995 125.756C105.555 126.216 105.455 127.096 104.795 127.386C102.545 128.396 98.4453 130.566 97.3153 133.496C97.1753 133.846 96.8353 134.056 96.4653 134.066C94.7253 134.116 89.9653 134.486 86.9453 136.806C86.3353 137.276 85.4453 136.826 85.4253 136.056C85.3453 133.866 85.1553 130.226 84.6553 125.856C86.4053 124.686 88.0353 123.326 89.5153 121.866L91.3353 129.706C91.4253 130.176 92.1653 130.036 92.0953 129.566C92.0753 129.486 90.9953 121.506 90.9653 121.436C90.8953 121.136 90.6953 120.956 90.4753 120.886C90.9153 120.426 91.3453 119.956 91.7453 119.476C91.8153 119.536 91.9053 119.576 92.0253 119.606C91.9853 119.626 91.9153 119.606 91.8753 119.586Z" fill="#99968D"/>
<path d="M78.9356 101.836C80.0256 101.426 81.1455 101.036 82.2855 100.736C82.5055 100.926 82.8255 100.976 83.0855 100.816C83.2255 100.726 83.3355 100.606 83.3855 100.456C84.7355 100.126 86.0956 99.916 87.4356 99.876C91.0856 99.736 94.5056 100.826 96.9356 104.236C98.5456 106.496 97.5955 110.666 94.9955 114.996C94.2555 116.236 93.3755 117.486 92.3755 118.716C91.8155 118.336 91.2555 119.126 91.7455 119.476C91.3455 119.956 90.9156 120.426 90.4756 120.886C89.9656 120.736 89.3055 121.146 89.5056 121.846V121.866C88.0356 123.326 86.4056 124.686 84.6556 125.856C82.2156 127.496 79.5755 128.786 76.8355 129.496C72.6755 130.586 68.3056 130.336 64.1556 127.956C64.1456 127.956 64.1455 127.946 64.1355 127.946C63.9655 127.846 63.7955 127.746 63.6255 127.636C63.0955 127.316 62.5655 126.946 62.0455 126.546C54.8555 121.016 56.0155 112.766 59.8655 104.976C60.0955 104.506 60.3355 104.046 60.5855 103.586C61.0755 102.666 61.6055 101.746 62.1655 100.856C62.4455 100.406 62.7255 99.956 63.0055 99.516C63.2955 99.076 63.5855 98.636 63.8855 98.206C64.3255 97.556 64.7755 96.926 65.2355 96.306C65.8455 95.466 66.4555 94.666 67.0655 93.886C67.2155 93.696 67.3755 93.496 67.5255 93.306C67.8355 92.926 68.1355 92.556 68.4355 92.186L68.8855 91.646C69.4855 90.936 70.0755 90.256 70.6355 89.616C70.6855 89.556 70.7455 89.486 70.8055 89.426C70.8055 89.426 70.8055 89.4227 70.8055 89.416C70.8855 89.326 70.9555 89.246 71.0355 89.166C72.5055 90.666 73.8256 92.346 75.0056 94.186C76.5256 96.536 77.8256 99.126 78.9356 101.836Z" fill="#6C6C6C"/>
<path d="M95.8651 124.627C96.0051 124.887 95.6051 125.117 95.4551 124.867C94.3651 123.157 93.2351 121.297 91.9851 119.697C91.9451 119.647 91.9051 119.627 91.8751 119.587C91.9151 119.607 91.9851 119.627 92.0251 119.607C91.9051 119.577 91.8151 119.537 91.7451 119.477C91.8551 119.357 91.9651 119.227 92.0651 119.107C92.1751 118.977 92.2751 118.847 92.3751 118.717C92.4451 118.757 92.5051 118.817 92.5751 118.897C93.1551 119.597 93.8151 120.877 94.2751 121.667C94.8251 122.647 95.3451 123.637 95.8651 124.627Z" fill="#514E47"/>
<path d="M94.4651 32.6367C94.3451 32.9267 91.8451 39.0067 93.6551 47.4067C89.8651 48.0167 86.9251 48.6067 85.0151 49.0267C83.3451 49.3867 82.4551 49.6267 82.4551 49.6267L82.6351 40.2967C82.6351 38.4067 83.6051 36.7867 85.3451 36.0567C85.7951 35.8667 86.2451 35.6767 86.6951 35.4967C89.3151 34.4267 91.9051 33.4767 94.4651 32.6367Z" fill="#464C51"/>
<path d="M92.3755 118.716C92.2755 118.846 92.1755 118.976 92.0655 119.106C91.9655 119.226 91.8556 119.356 91.7456 119.476C91.2556 119.126 91.8155 118.336 92.3755 118.716Z" fill="#514E47"/>
<path d="M92.0956 129.567C92.1656 130.037 91.4256 130.177 91.3356 129.707L89.5156 121.867L90.0256 121.357C90.1756 121.207 90.3256 121.047 90.4756 120.887C90.6956 120.957 90.8956 121.137 90.9656 121.437C90.9956 121.507 92.0756 129.487 92.0956 129.567Z" fill="#514E47"/>
<path d="M90.4756 120.886C90.3256 121.046 90.1756 121.206 90.0256 121.356L89.5156 121.866V121.846C89.3056 121.146 89.9656 120.736 90.4756 120.886Z" fill="#514E47"/>
<path d="M87.4358 99.8777C86.0958 99.9177 84.7358 100.128 83.3858 100.458C83.4558 100.278 83.4458 100.068 83.3358 99.8777C81.8358 97.4077 80.3158 94.8777 78.0058 93.0677C77.8258 92.9277 77.5958 93.1577 77.6858 93.3377L75.0058 94.1877C73.8258 92.3477 72.5058 90.6677 71.0358 89.1677C70.0758 88.1877 69.0558 87.2877 67.9658 86.4977C67.9658 86.4977 68.7558 85.6577 70.0958 84.4277C70.0958 84.4277 71.7458 84.7277 74.1258 85.8577H74.1358C77.9958 87.6677 83.7658 91.6177 87.4358 99.8777Z" fill="#99968D"/>
<path d="M83.3352 99.8766C83.4452 100.067 83.4552 100.277 83.3852 100.457C83.2252 100.487 83.0752 100.527 82.9152 100.567C82.7052 100.617 82.4952 100.677 82.2852 100.737C82.2052 100.677 82.1452 100.597 82.1052 100.497C80.9452 97.9966 79.7152 95.3566 77.7352 93.4066C77.7152 93.3866 77.6952 93.3566 77.6852 93.3366C77.5952 93.1566 77.8252 92.9266 78.0052 93.0666C80.3152 94.8766 81.8352 97.4066 83.3352 99.8766Z" fill="#514E47"/>
<path d="M82.9152 100.567C83.0752 100.527 83.2252 100.487 83.3852 100.457C83.3352 100.607 83.2252 100.727 83.0852 100.817C82.8252 100.977 82.5052 100.927 82.2852 100.737C82.4952 100.677 82.7052 100.617 82.9152 100.567Z" fill="#514E47"/>
<path d="M82.1059 100.496C82.1459 100.596 82.2059 100.676 82.2859 100.736C81.1459 101.036 80.0259 101.426 78.9359 101.836C77.8259 99.1259 76.5259 96.5359 75.0059 94.1859L77.6859 93.3359C77.6859 93.3359 77.7159 93.3859 77.7359 93.4059C79.7159 95.3559 80.9459 97.9959 82.1059 100.496Z" fill="#99968D"/>
<path d="M79.2658 67.5563V67.5863C78.7458 71.1263 78.2658 74.9863 77.5558 78.6763C74.4958 80.5963 71.8358 82.8463 70.0958 84.4263C68.0558 81.6863 65.5158 80.1863 63.1558 79.3763C63.3058 79.2363 63.4158 79.0563 63.4358 78.8463C63.9558 74.9363 63.5258 71.0463 62.4858 67.2863C62.3958 66.9663 61.8858 67.0863 61.9558 67.4163C62.5758 71.0563 62.6058 74.9263 61.7358 78.5063C61.6958 78.6663 61.6958 78.8163 61.7358 78.9663C58.5858 78.2063 56.0558 78.5663 56.0558 78.5663H56.0458C56.4958 72.1363 50.6158 64.5863 48.3658 61.9563C47.9358 61.4463 48.1958 60.6663 48.8358 60.4963C53.8458 59.1663 59.7358 63.2963 59.7358 63.2963C67.1758 55.9863 75.6758 66.2963 75.6758 66.2963C76.9258 66.2463 77.9658 66.4363 78.8358 66.7863C78.9858 67.0563 79.1158 67.2963 79.2558 67.5563H79.2658Z" fill="#99968D"/>
<path d="M70.8055 89.4173C70.8055 89.4173 70.8155 89.4173 70.8055 89.4273C70.7455 89.4873 70.6855 89.5573 70.6355 89.6173C70.0755 90.2573 69.4855 90.9373 68.8855 91.6473L68.4355 92.1873C68.1355 92.5573 67.8355 92.9273 67.5255 93.3073C67.3755 93.4973 67.2155 93.6973 67.0655 93.8873C66.4555 94.6673 65.8355 95.4673 65.2355 96.3073C64.7755 96.9273 64.3255 97.5573 63.8855 98.2073C63.5855 98.6373 63.2955 99.0773 63.0055 99.5173C62.7255 99.9573 62.4455 100.407 62.1655 100.857C61.6055 101.747 61.0755 102.667 60.5855 103.587C60.3355 104.047 60.0955 104.507 59.8655 104.977C56.0155 112.767 54.8555 121.017 62.0455 126.547C62.5655 126.947 63.0955 127.317 63.6255 127.637C63.7955 127.747 63.9655 127.847 64.1355 127.947C64.1455 127.947 64.1455 127.957 64.1555 127.957C62.9055 140.457 63.9455 153.577 70.1255 164.357C58.4555 175.257 2.80552 180.767 0.575516 136.027C-1.86448 86.8373 55.6355 80.7773 55.6355 80.7773C55.6355 80.7773 57.5055 81.3973 59.9155 82.3773C59.8855 82.3973 59.8655 82.4273 59.8455 82.4473L52.5055 90.8773C52.2555 91.1473 52.6755 91.5473 52.9355 91.2873C52.9655 91.2473 61.0155 83.4273 61.0355 83.3973C61.1655 83.2473 61.2255 83.0773 61.2255 82.9273C61.8055 83.1673 62.4155 83.4373 63.0155 83.7273C63.0155 83.7373 63.0055 83.7373 63.0055 83.7473L60.0655 91.9773C59.9355 92.3173 60.4655 92.5173 60.5955 92.1773C60.5955 92.1773 63.5655 84.8573 63.8555 84.1173C65.3555 84.8573 66.8255 85.6673 67.9655 86.4973C69.0155 87.3373 69.9655 88.3173 70.8055 89.4173Z" fill="#99968D"/>
<path d="M70.0957 84.4276C68.7557 85.6576 67.9657 86.4976 67.9657 86.4976C66.8257 85.6676 65.3557 84.8576 63.8557 84.1176C63.8657 84.0776 63.8757 84.0576 63.8757 84.0576C64.0857 83.4976 63.2257 83.1876 63.0157 83.7276C62.4157 83.4376 61.8057 83.1676 61.2257 82.9276C61.2457 82.3076 60.4157 81.8276 59.9157 82.3776C57.5057 81.3976 55.6357 80.7776 55.6357 80.7776C55.8757 80.0676 56.0157 79.3276 56.0557 78.5676H56.0657C56.0657 78.5676 58.5957 78.2076 61.7457 78.9676C61.8357 79.2876 62.1057 79.5476 62.4557 79.5876C62.7257 79.6276 62.9757 79.5376 63.1557 79.3776C65.5157 80.1876 68.0557 81.6876 70.0957 84.4276Z" fill="#514E47"/>
<path d="M63.0156 83.7261C63.2256 83.1861 64.0856 83.4961 63.8756 84.0561C63.8756 84.0561 63.8756 84.0761 63.8556 84.1161C63.7156 84.0461 63.5756 83.9861 63.4356 83.9161C63.2956 83.8461 63.1556 83.7861 63.0156 83.7261Z" fill="#514E47"/>
<path d="M63.4353 83.9166C63.5753 83.9866 63.7153 84.0466 63.8553 84.1166C63.5653 84.8566 60.5953 92.1766 60.5953 92.1766C60.4653 92.5166 59.9353 92.3166 60.0653 91.9766L63.0053 83.7466C63.0053 83.7466 63.0153 83.7366 63.0153 83.7266C63.1553 83.7866 63.2953 83.8466 63.4353 83.9166Z" fill="#514E47"/>
<path d="M62.4855 67.2872C63.5255 71.0472 63.9555 74.9372 63.4355 78.8472C63.4155 79.0572 63.3055 79.2372 63.1555 79.3772C62.9355 79.2972 62.7055 79.2272 62.4855 79.1672C62.2355 79.0972 61.9855 79.0272 61.7455 78.9672C61.6955 78.8172 61.6955 78.6672 61.7455 78.5072C62.6155 74.9272 62.5855 71.0572 61.9655 67.4172C61.8955 67.0872 62.4055 66.9672 62.4955 67.2872H62.4855Z" fill="#514E47"/>
<path d="M62.4851 79.1668C62.7051 79.2268 62.9351 79.2968 63.1551 79.3768C62.9751 79.5368 62.7251 79.6268 62.4551 79.5868C62.1051 79.5468 61.8351 79.2868 61.7451 78.9668C61.9851 79.0268 62.2351 79.0968 62.4851 79.1668Z" fill="#514E47"/>
<path d="M59.915 82.3778C60.415 81.8278 61.245 82.3078 61.225 82.9278C61.095 82.8678 60.975 82.8178 60.855 82.7678C60.535 82.6278 60.225 82.4978 59.915 82.3778Z" fill="#514E47"/>
<path d="M60.8553 82.767C60.9753 82.817 61.0953 82.867 61.2253 82.927C61.2253 83.077 61.1653 83.247 61.0353 83.397C61.0153 83.427 52.9653 91.247 52.9353 91.287C52.6753 91.547 52.2553 91.147 52.5053 90.877L59.8453 82.447C59.8453 82.447 59.8853 82.397 59.9153 82.377C60.2253 82.497 60.5353 82.627 60.8553 82.767Z" fill="#514E47"/>
<path d="M155.915 183.098C153.655 183.748 150.785 184.588 147.465 185.408C147.395 185.418 147.315 185.438 147.245 185.458" stroke="#505151" stroke-linecap="round" stroke-linejoin="round"/>
<path d="M165.546 12.8672C168.716 16.2272 171.396 20.0172 173.696 24.0872C175.146 26.6472 176.436 29.3172 177.606 32.0472C178.706 34.6372 179.696 37.2872 180.596 39.9672" stroke="#231815" stroke-linecap="round" stroke-linejoin="round"/>
<path d="M102.186 12.4768C107.516 7.84682 113.666 4.61682 120.276 2.69682C127.116 0.696824 134.446 0.0968239 141.846 0.756824C148.696 1.37682 155.166 4.01682 160.556 8.27682C162.346 9.68682 163.996 11.2168 165.526 12.8568" stroke="#231815" stroke-linecap="round" stroke-linejoin="round"/>
<path d="M91.8252 25.0063C93.4652 22.2563 95.3652 19.6163 97.5252 17.1263C98.9852 15.4463 100.535 13.9063 102.165 12.4863" stroke="#231815" stroke-linecap="round" stroke-linejoin="round"/>
<path d="M86.6953 35.4973C88.1053 31.8773 89.7753 28.3673 91.7953 25.0273" stroke="#231815" stroke-linecap="round" stroke-linejoin="round"/>
<path d="M82.8154 72.0064C86.5054 76.0064 92.8754 81.4164 100.925 82.3464C111.705 83.5964 112.145 78.0064 117.925 78.3464C123.705 78.6764 129.595 85.4564 138.925 85.7864C147.965 86.1164 166.555 78.9764 184.475 63.1764C185.035 62.6764 185.605 62.1764 186.165 61.6564C185.855 60.0364 185.515 58.4264 185.155 56.8164C184.975 55.9864 184.785 55.1564 184.585 54.3164" stroke="#231815" stroke-linecap="round" stroke-linejoin="round"/>
<path d="M82.4556 49.627C81.1456 55.377 80.2056 61.2369 79.3456 67.0169C79.3256 67.1969 79.2956 67.3769 79.2656 67.5569" stroke="#231815" stroke-linecap="round" stroke-linejoin="round"/>
<path d="M179.126 52.5673C120.236 70.5673 85.0156 49.0273 85.0156 49.0273" stroke="#231815" stroke-linecap="round" stroke-linejoin="round"/>
<path d="M74.1357 85.8577C74.2157 85.7777 74.2957 85.6877 74.3757 85.6077C74.4457 85.5277 74.5257 85.4477 74.6057 85.3677C74.6957 85.2677 74.7957 85.1777 74.8757 85.0977L75.1257 84.8477C75.2157 84.7577 75.2857 84.6777 75.3657 84.6177C75.4357 84.5377 75.5057 84.4677 75.5757 84.4077C75.6357 84.3377 75.7057 84.2777 75.7657 84.2177C75.8257 84.1477 75.8757 84.0977 75.9357 84.0577L76.0757 83.9177C76.1257 83.8677 76.1657 83.8277 76.1957 83.8077L76.2857 83.7177C76.2857 83.7177 76.3057 83.6877 76.3257 83.6777C76.3257 83.6677 76.3557 83.6577 76.3557 83.6477C76.3857 83.6077 76.4057 83.6077 76.4057 83.6077C76.8557 82.0277 77.2257 80.3677 77.5457 78.6777" stroke="#231815" stroke-linecap="round" stroke-linejoin="round"/>
<path d="M190.915 107.847C190.845 104.017 190.685 100.247 190.445 96.6367" stroke="#231815" stroke-linecap="round" stroke-linejoin="round"/>
<path d="M189.086 136.028C190.636 127.278 191.086 117.378 190.916 107.848" stroke="#505151" stroke-linecap="round" stroke-linejoin="round"/>
<path d="M76.2155 102.967C74.7955 103.607 73.4955 104.247 72.3555 104.817" stroke="#231815" stroke-linecap="round" stroke-linejoin="round"/>
<path d="M65.2354 96.3067C65.8354 95.4667 66.4554 94.6667 67.0654 93.8867" stroke="#231815" stroke-linecap="round" stroke-linejoin="round"/>
<path d="M71.0357 89.166C70.9557 89.246 70.8857 89.326 70.8057 89.416" stroke="#231815" stroke-linecap="round" stroke-linejoin="round"/>
<path d="M87.5458 195.797C85.5158 195.547 83.3058 195.117 80.9258 194.457" stroke="#505151" stroke-linecap="round" stroke-linejoin="round"/>
<path d="M112.006 176.037C112.006 176.037 111.746 181.657 108.576 186.937C105.396 192.247 99.2759 197.207 87.5459 195.797" stroke="#231815" stroke-linecap="round" stroke-linejoin="round"/>
<path d="M93.6551 47.4067C89.8651 48.0167 86.9251 48.6067 85.0151 49.0267C83.3451 49.3867 82.4551 49.6267 82.4551 49.6267L82.6351 40.2967C82.6351 38.4067 83.6051 36.7867 85.3451 36.0567C85.7951 35.8667 86.2451 35.6767 86.6951 35.4967C89.3151 34.4267 91.9051 33.4767 94.4651 32.6367" stroke="#231815" stroke-linecap="round" stroke-linejoin="round"/>
<path d="M168.325 34.3965C173.645 36.4165 177.815 38.4665 180.595 39.9665C181.215 40.3065 181.765 40.6065 182.245 40.8865C183.695 41.7265 184.585 43.0165 184.585 44.6865V54.3165C182.765 53.6965 180.945 53.1165 179.135 52.5665H179.125C175.965 51.6165 172.825 50.7665 169.715 50.0265" stroke="#231815" stroke-linecap="round" stroke-linejoin="round"/>
<path d="M93.6554 47.4067C91.8454 39.0067 94.3454 32.9267 94.4654 32.6367" stroke="#231815" stroke-linecap="round" stroke-linejoin="round"/>
<path d="M169.715 50.0267C164.675 48.8167 159.705 47.8667 154.835 47.1367C149.695 46.3567 144.675 45.8167 139.835 45.4667H139.795C134.045 45.0567 128.555 44.9167 123.405 44.9667C117.915 45.0167 112.805 45.2867 108.195 45.6767C102.545 46.1467 97.6253 46.7867 93.6553 47.4067" stroke="#231815" stroke-linecap="round" stroke-linejoin="round"/>
<path d="M168.325 34.3965C168.465 34.7865 171.315 42.6565 169.715 50.0265" stroke="#231815" stroke-linecap="round" stroke-linejoin="round"/>
<path d="M152.686 29.7266C158.616 31.0366 163.866 32.7066 168.316 34.3866" stroke="#231815" stroke-linecap="round" stroke-linejoin="round"/>
<path d="M94.4658 32.637C99.1458 31.087 103.736 29.917 108.196 29.047C113.446 28.037 118.526 27.457 123.406 27.207C128.926 26.937 134.186 27.097 139.146 27.577C143.966 28.037 148.486 28.787 152.676 29.717" stroke="#231815" stroke-linecap="round" stroke-linejoin="round"/>
<path d="M91.7959 25.0262C91.7959 25.0262 91.8059 25.0162 91.8259 25.0062C93.0159 24.4462 126.116 9.14622 177.606 32.0462" stroke="#231815" stroke-linecap="round" stroke-linejoin="round"/>
<path d="M102.165 12.4861C102.165 12.4861 102.175 12.4861 102.185 12.4761C103.075 12.1561 132.325 1.82607 173.695 24.0861" stroke="#231815" stroke-linecap="round" stroke-linejoin="round"/>
<path d="M120.245 2.70628C120.245 2.70628 120.245 2.70628 120.275 2.69628C121.115 2.55628 140.805 -0.663719 165.525 12.8563C165.535 12.8563 165.535 12.8663 165.545 12.8663" stroke="#231815" stroke-linecap="round" stroke-linejoin="round"/>
<path d="M93.6553 47.4162V47.4062" stroke="#231815" stroke-linecap="round" stroke-linejoin="round"/>
<path d="M108.196 29.0469C108.196 29.0469 105.866 40.5469 108.196 45.6769" stroke="#231815" stroke-linecap="round" stroke-linejoin="round"/>
<path d="M123.405 27.207V44.967" stroke="#231815" stroke-linecap="round" stroke-linejoin="round"/>
<path d="M139.146 27.5762C139.146 27.5762 141.746 37.6062 139.856 45.1862" stroke="#231815" stroke-linecap="round" stroke-linejoin="round"/>
<path d="M152.676 29.7168C152.676 29.7168 152.676 29.7168 152.686 29.7168C152.886 30.1068 156.986 38.0068 154.836 47.1168" stroke="#231815" stroke-linecap="round" stroke-linejoin="round"/>
<path d="M168.325 34.3965H168.315" stroke="#231815" stroke-linecap="round" stroke-linejoin="round"/>
<path d="M184.926 52.3575C184.926 52.3575 188.826 52.0475 189.426 55.9075C189.556 56.7575 189.526 57.8275 189.256 59.1475" stroke="#231815" stroke-linecap="round" stroke-linejoin="round"/>
<path d="M189.506 55.8961C189.506 55.8961 199.216 53.5261 213.516 65.7461C214.106 66.2461 213.956 67.1961 213.256 67.5161C210.546 68.7661 204.426 71.0061 198.346 69.3161" stroke="#231815" stroke-linecap="round" stroke-linejoin="round"/>
<path d="M186.385 62.7863C186.315 62.4063 186.245 62.0362 186.165 61.6562" stroke="#231815" stroke-linecap="round" stroke-linejoin="round"/>
<path d="M198.346 69.3165C198.696 70.1865 198.996 71.1265 199.226 72.1365C199.506 73.3365 199.636 74.5465 199.706 75.7765C199.786 77.1765 200.446 81.0065 205.056 83.5865C205.296 83.7165 205.176 84.0865 204.906 84.0465C201.576 83.5065 193.356 81.5965 188.406 75.5565C187.856 71.2865 187.186 67.0265 186.386 62.7865C187.316 62.4565 187.956 61.8565 188.386 61.2565C189.116 60.2265 189.256 59.1465 189.256 59.1465C189.256 59.1465 195.476 62.0365 198.346 69.3165Z" stroke="#231815" stroke-linecap="round" stroke-linejoin="round"/>
<path d="M79.2656 67.5859C79.2656 67.5859 80.5256 69.5259 82.8156 72.0059" stroke="#231815" stroke-linecap="round" stroke-linejoin="round"/>
<path d="M64.1555 127.956C62.9055 140.456 63.9455 153.576 70.1255 164.356C58.4555 175.256 2.80552 180.766 0.575516 136.026C-1.86448 86.8363 55.6355 80.7763 55.6355 80.7763C55.8755 80.0663 56.0155 79.3263 56.0555 78.5663C56.5055 72.1363 50.6255 64.5863 48.3755 61.9563C47.9455 61.4463 48.2055 60.6663 48.8455 60.4963C53.8555 59.1663 59.7455 63.2963 59.7455 63.2963C67.1855 55.9863 75.6855 66.2963 75.6855 66.2963C76.9355 66.2463 77.9755 66.4363 78.8455 66.7863C78.9955 67.0563 79.1255 67.2963 79.2655 67.5563V67.5863C78.7455 71.1263 78.2655 74.9863 77.5555 78.6763C74.4955 80.5963 71.8355 82.8463 70.0955 84.4263" stroke="#231815" stroke-linecap="round" stroke-linejoin="round"/>
<path d="M67.9658 86.4961C69.0158 87.3361 69.9658 88.3161 70.8058 89.4161C70.8058 89.4161 70.8058 89.4194 70.8058 89.4261" stroke="#231815" stroke-linecap="round" stroke-linejoin="round"/>
<path d="M89.5155 121.868C88.0355 123.328 86.4056 124.688 84.6556 125.858C82.2156 127.498 79.5755 128.788 76.8355 129.498C72.6755 130.588 68.3056 130.338 64.1556 127.958C64.1456 127.958 64.1455 127.948 64.1355 127.948C63.9655 127.848 63.7955 127.748 63.6255 127.638C63.0955 127.318 62.5655 126.948 62.0455 126.548C54.8555 121.018 56.0155 112.768 59.8655 104.978C60.0955 104.508 60.3355 104.048 60.5855 103.588C61.0755 102.668 61.6055 101.748 62.1655 100.858C62.4455 100.408 62.7255 99.9577 63.0055 99.5177C63.2955 99.0777 63.5855 98.6377 63.8855 98.2077C64.3255 97.5577 64.7755 96.9277 65.2355 96.3077C65.8455 95.4677 66.4555 94.6677 67.0655 93.8877C67.2155 93.6977 67.3755 93.4977 67.5255 93.3077C67.8355 92.9277 68.1355 92.5577 68.4355 92.1877L68.8855 91.6477C69.4855 90.9377 70.0755 90.2577 70.6355 89.6177C70.6855 89.5577 70.7455 89.4877 70.8055 89.4277" stroke="#231815" stroke-linecap="round" stroke-linejoin="round"/>
<path d="M91.7456 119.477C91.3456 119.957 90.9156 120.427 90.4756 120.887" stroke="#231815" stroke-linecap="round" stroke-linejoin="round"/>
<path d="M87.4355 99.877C91.0855 99.737 94.5055 100.827 96.9355 104.237C98.5455 106.497 97.5955 110.667 94.9955 114.997C94.2555 116.237 93.3755 117.487 92.3755 118.717" stroke="#231815" stroke-linecap="round" stroke-linejoin="round"/>
<path d="M76.2158 102.966C77.0858 102.586 77.9958 102.196 78.9358 101.836" stroke="#231815" stroke-linecap="round" stroke-linejoin="round"/>
<path d="M59.9157 82.3773C57.5057 81.3973 55.6357 80.7773 55.6357 80.7773" stroke="#231815" stroke-linecap="round" stroke-linejoin="round"/>
<path d="M63.0156 83.7277C62.4156 83.4377 61.8056 83.1677 61.2256 82.9277" stroke="#231815" stroke-linecap="round" stroke-linejoin="round"/>
<path d="M67.9655 86.4972C66.8255 85.6672 65.3555 84.8572 63.8555 84.1172" stroke="#231815" stroke-linecap="round" stroke-linejoin="round"/>
<path d="M94.9953 114.996C98.8753 120.456 102.965 124.116 104.995 125.756C105.555 126.216 105.455 127.096 104.795 127.386C102.545 128.396 98.4453 130.566 97.3153 133.496C97.1753 133.846 96.8353 134.056 96.4653 134.066C94.7253 134.116 89.9653 134.486 86.9453 136.806C86.3353 137.276 85.4453 136.826 85.4253 136.056C85.3453 133.866 85.1553 130.226 84.6553 125.856" stroke="#231815" stroke-linecap="round" stroke-linejoin="round"/>
<path d="M82.2858 100.738C81.1458 101.038 80.0258 101.428 78.9358 101.838C77.8258 99.1277 76.5258 96.5377 75.0058 94.1877C73.8258 92.3477 72.5058 90.6677 71.0358 89.1677C70.0758 88.1877 69.0558 87.2877 67.9658 86.4977C67.9658 86.4977 68.7558 85.6577 70.0958 84.4277C70.0958 84.4277 71.7458 84.7277 74.1258 85.8577H74.1358C77.9958 87.6677 83.7658 91.6177 87.4358 99.8777C86.0958 99.9177 84.7358 100.128 83.3858 100.458" stroke="#231815" stroke-linecap="round" stroke-linejoin="round"/>
<path d="M63.1553 79.377C65.5153 80.187 68.0553 81.687 70.0953 84.427" stroke="#231815" stroke-linecap="round" stroke-linejoin="round"/>
<path d="M56.0654 78.5676C56.0654 78.5676 58.5954 78.2076 61.7454 78.9676" stroke="#231815" stroke-linecap="round" stroke-linejoin="round"/>
<path d="M147.246 185.457C142.046 186.717 135.746 187.897 128.956 188.097C121.456 188.317 114.766 187.927 108.806 187.067" stroke="#231815" stroke-linecap="round" stroke-linejoin="round"/>
<path d="M147.476 185.457C151.466 188.267 157.416 193.287 161.456 199.907C162.416 201.477 164.156 202.397 165.996 202.397H180.356C184.226 202.397 187.446 199.137 187.066 195.287C186.816 192.717 185.036 190.227 179.596 189.357C178.786 189.227 178.166 188.557 178.136 187.737C177.996 184.517 177.256 176.637 173.466 171.357C173.006 170.727 173.036 169.867 173.556 169.297C173.856 168.957 174.156 168.607 174.456 168.257C182.176 159.107 186.776 147.697 189.086 136.027C219.386 136.507 220.156 123.727 218.436 119.067C216.686 114.317 209.776 116.317 205.606 116.147C202.456 116.027 194.656 110.527 191.026 107.847C190.926 104.107 190.716 100.367 190.446 96.6366C190.406 95.9566 190.356 95.2766 190.306 94.6066C189.836 88.2466 189.236 81.8866 188.406 75.5566" stroke="#231815" stroke-linecap="round" stroke-linejoin="round"/>
<path d="M70.1254 164.357C71.9154 167.497 74.1354 170.417 76.8654 173.087C77.7354 173.937 77.5854 175.367 76.5454 176.007L73.3854 177.967C71.0154 179.427 69.4154 181.877 69.0554 184.637C68.3654 190.047 68.4454 198.857 75.2254 202.867C77.4654 204.197 80.2454 204.277 82.4754 202.937C84.3754 201.797 86.4554 199.687 87.5454 195.797" stroke="#231815" stroke-linecap="round" stroke-linejoin="round"/>
<path d="M113.975 87.2876C116.255 87.8276 118.605 88.3776 120.985 87.9976C123.375 87.6776 125.765 86.6976 127.885 85.5476C128.025 85.4676 128.215 85.5176 128.295 85.6676C128.355 85.7976 128.325 85.9476 128.205 86.0276C124.285 89.0976 117.915 91.3476 113.455 88.1376C113.025 87.7776 113.465 87.0776 113.975 87.2876Z" fill="#231815"/>
<path d="M56.0654 78.5661C56.0654 78.5661 58.9954 78.1461 62.4854 79.1661C65.0254 79.9061 67.8654 81.4261 70.0954 84.4261" stroke="#231815" stroke-linecap="round" stroke-linejoin="round"/>
<path d="M67.9657 86.4973C66.7157 85.5873 65.0857 84.7073 63.4357 83.9173C62.5657 83.5073 61.6957 83.1173 60.8557 82.7673C58.0157 81.5673 55.6357 80.7773 55.6357 80.7773" stroke="#231815" stroke-linecap="round" stroke-linejoin="round"/>
<path d="M76.2155 102.967C74.7955 103.607 73.4955 104.247 72.3555 104.817" stroke="#231815" stroke-linecap="round" stroke-linejoin="round"/>
<path d="M76.2155 102.968C77.0855 102.588 77.9956 102.198 78.9356 101.838C80.2256 101.348 81.5655 100.898 82.9155 100.568C84.4255 100.178 85.9456 99.9177 87.4356 99.8777C91.0856 99.7377 94.5056 100.828 96.9356 104.238C98.5456 106.498 97.5955 110.668 94.9955 114.998C94.1755 116.368 93.1855 117.758 92.0655 119.108C91.4255 119.878 90.7455 120.628 90.0255 121.358C88.4155 123.008 86.6056 124.548 84.6556 125.858C82.2156 127.498 79.5755 128.788 76.8355 129.498C72.6755 130.588 68.3056 130.338 64.1556 127.958C64.1456 127.958 64.1455 127.948 64.1355 127.948C63.9655 127.848 63.7955 127.748 63.6255 127.638C63.0955 127.318 62.5655 126.948 62.0455 126.548C54.8555 121.018 56.0155 112.768 59.8655 104.978C60.0955 104.508 60.3355 104.048 60.5855 103.588C61.0755 102.668 61.6055 101.748 62.1655 100.858C62.4455 100.408 62.7255 99.9577 63.0055 99.5177C63.2955 99.0777 63.5855 98.6377 63.8855 98.2077C64.3255 97.5577 64.7755 96.9277 65.2355 96.3077C65.8455 95.4677 66.4555 94.6677 67.0655 93.8877C67.2155 93.6977 67.3755 93.4977 67.5255 93.3077C67.8355 92.9277 68.1355 92.5577 68.4355 92.1877C68.5855 92.0077 68.7355 91.8277 68.8855 91.6477C69.4855 90.9377 70.0755 90.2577 70.6355 89.6177C70.6855 89.5577 70.7455 89.4877 70.8055 89.4277" stroke="#231815" stroke-linecap="round" stroke-linejoin="round"/>
<path d="M21.7151 112.768C16.8251 117.058 13.8251 123.668 13.7051 130.398C13.6751 132.258 13.9751 134.398 15.8451 135.128C16.7051 135.458 17.6651 135.348 18.5051 134.958C20.3951 134.078 21.4751 132.238 22.7951 130.678C23.5751 129.758 24.7751 127.768 25.9951 126.738C26.4951 126.318 27.2251 126.778 27.1051 127.438C26.7751 129.288 26.3151 131.878 26.3951 133.168C26.4951 134.828 26.9951 136.528 28.0951 137.718C29.1951 138.908 30.9551 139.498 32.4051 138.868C33.7351 138.288 34.5551 136.888 35.2851 135.568C37.9551 130.738 40.6151 125.918 43.2851 121.088" stroke="#514E47" stroke-width="4" stroke-miterlimit="10" stroke-linecap="round"/>
<path d="M10.0654 120.586C20.2654 127.436 31.9854 131.716 44.0054 132.986" stroke="#514E47" stroke-width="4" stroke-miterlimit="10" stroke-linecap="round"/>
</svg>
