<svg width="247" height="238" viewBox="0 0 247 238" fill="none" xmlns="http://www.w3.org/2000/svg">
<path d="M164.499 162.96C164.369 162.99 164.239 163.01 164.109 163.01C164.229 162.94 164.369 162.91 164.499 162.96Z" fill="#514E47"/>
<path d="M55.4795 117.8C51.0295 119.56 45.6295 120.32 39.5295 120.33C38.7595 120.34 38.2996 119.48 38.7396 118.84C44.3296 110.79 53.0796 105.89 62.5396 105.96L62.6496 106.04C62.2496 107.57 62.4096 109.34 63.0396 110.6L62.9195 110.87H62.9095C59.5096 112.25 57.1995 114.8 55.4795 117.79V117.8Z" fill="#2B3036"/>
<path d="M167.99 158.561L170.05 161.571C169.1 161.931 168.12 162.231 167.11 162.461C166.96 162.451 166.83 162.481 166.72 162.551C165.99 162.731 165.26 162.861 164.5 162.961C164.37 162.911 164.23 162.941 164.11 163.011C162.56 163.221 160.95 163.321 159.3 163.321L160.46 159.831C163.38 159.681 166.13 159.091 167.99 158.561Z" fill="#514E47"/>
<path d="M167.99 158.561L167.91 158.451C165.69 159.261 163.2 159.491 160.59 159.441L160.46 159.831C160.34 159.841 160.23 159.851 160.11 159.851H160.08C160.12 159.631 160.15 159.411 160.18 159.191C160.6 155.951 160.37 152.421 159.68 148.741C162.68 149.491 166.14 149.071 170.02 147.611C170.62 147.381 171.14 148.091 170.75 148.611C168.78 151.261 167.36 154.001 167.97 157.071C168.38 159.161 169.74 160.941 171.54 162.081C192.06 174.941 207.52 209.021 174.08 211.641C162.93 212.171 154.91 210.791 149.1 208.531C150.04 205.721 150.71 202.611 151.09 199.461C159.06 192.061 162.39 181.161 158.03 166.011C158.44 165.271 158.79 164.511 159.09 163.721C160.76 163.641 162.39 163.451 163.92 163.191C163.81 163.351 163.8 163.581 163.99 163.791C164.76 164.671 165.33 165.761 165.85 166.821C166.35 167.911 166.76 169.061 166.99 170.241C167.01 170.341 167.11 170.421 167.21 170.401C167.32 170.391 167.4 170.291 167.39 170.181C167.07 167.681 166.13 165.311 164.78 163.181C164.75 163.131 164.72 163.091 164.68 163.061C165.33 162.941 165.97 162.811 166.57 162.671C166.33 162.931 166.29 163.371 166.59 163.641C168.34 165.881 169.99 168.221 171.46 170.661C173.01 173.271 174.41 175.991 175.61 178.791C175.67 178.931 175.83 179.001 175.97 178.951C176.13 178.901 176.21 178.731 176.15 178.581C174.64 174.211 172.48 170.061 169.96 166.171C169.35 165.231 168.65 164.221 168 163.301C167.78 163.051 167.63 162.631 167.28 162.501C167.25 162.491 167.21 162.481 167.17 162.471C167.15 162.471 167.13 162.461 167.11 162.461C168.12 162.231 169.1 161.931 170.05 161.571L167.99 158.561Z" fill="#99968D"/>
<path d="M164.11 163.01C164.04 163.05 163.97 163.11 163.92 163.19C162.39 163.45 160.76 163.64 159.09 163.72C159.55 162.5 159.88 161.2 160.08 159.85H160.11C160.23 159.85 160.34 159.84 160.46 159.83L159.3 163.32C160.95 163.32 162.56 163.22 164.11 163.01Z" fill="#99968D"/>
<path d="M167.11 162.461C166.98 162.511 166.85 162.541 166.72 162.551C166.83 162.481 166.96 162.451 167.11 162.461Z" fill="#514E47"/>
<path d="M155.819 102.31C155.819 102.31 155.749 102.34 155.719 102.35C142.229 98.7901 128.079 97.5101 113.969 98.0001C114.089 97.0101 114.159 95.9901 114.179 94.9801C114.199 91.5501 113.989 88.2001 113.199 85.0301V85.0101C118.049 84.9001 122.989 85.1001 127.999 85.5501C136.099 86.2901 144.739 87.7601 154.069 90.0901C154.729 90.2501 155.379 90.4201 156.059 90.6001H156.069C156.189 90.6201 156.319 90.6601 156.439 90.6901C158.389 91.5501 158.789 99.8901 156.439 101.94C156.249 102.11 156.039 102.24 155.809 102.31H155.819Z" fill="#464C51"/>
<path d="M150.47 79.8805L150.31 79.8405C114.69 73.0505 90.0997 76.4705 70.9897 87.8405L70.9297 87.8605C71.9497 84.8605 73.1597 81.8905 74.5697 79.0205C94.0297 67.3405 115.79 64.1205 144.7 70.6505L144.83 70.3605C147.06 73.2505 148.92 76.4505 150.47 79.8805Z" fill="white"/>
<path d="M176.15 178.58C176.21 178.73 176.13 178.9 175.97 178.95C175.83 179 175.67 178.93 175.61 178.79C174.41 175.99 173.01 173.27 171.46 170.66C169.99 168.22 168.34 165.88 166.59 163.64C166.29 163.37 166.33 162.93 166.57 162.67C166.81 162.62 167.05 162.56 167.28 162.5C167.63 162.63 167.78 163.05 168 163.3C168.65 164.22 169.35 165.23 169.96 166.17C172.48 170.06 174.64 174.21 176.15 178.58Z" fill="#514E47"/>
<path d="M65.4098 112.211L65.5598 112.141C64.8598 117.701 64.5798 122.041 64.3298 124.081C61.3798 129.621 56.1698 133.391 49.0698 135.671C48.6398 135.821 48.2498 135.321 48.5198 134.951C51.0098 131.481 52.0398 123.781 55.4798 117.801C57.1998 114.801 59.5098 112.251 62.9098 110.881H62.9198L63.1898 110.891C63.7098 111.741 64.4598 112.281 65.4098 112.211Z" fill="#2B3036"/>
<path d="M167.169 162.471C167.169 162.471 167.249 162.491 167.279 162.501C167.049 162.561 166.809 162.621 166.569 162.671C166.619 162.621 166.659 162.581 166.719 162.551C166.849 162.541 166.979 162.511 167.109 162.461C167.129 162.461 167.149 162.471 167.169 162.471Z" fill="#514E47"/>
<path d="M113.97 98.0008C128.08 97.5108 142.23 98.7908 155.72 102.351C155.75 102.341 155.79 102.331 155.82 102.311C155.97 103.511 156.12 104.711 156.25 105.901L156.17 105.841C131.03 118.511 93.3299 114.411 70.4799 104.841L70.4199 104.731C72.2599 104.231 74.1199 103.751 75.9999 103.301C79.9399 102.351 83.9299 101.511 87.9699 100.801C96.5099 99.2708 105.22 98.3008 113.96 98.0008H113.97Z" fill="#6C6C6C"/>
<path d="M164.68 163.061C164.43 163.111 164.18 163.151 163.92 163.191C163.97 163.111 164.04 163.051 164.11 163.011C164.24 163.011 164.37 162.991 164.5 162.961C164.56 162.981 164.63 163.011 164.68 163.061Z" fill="#514E47"/>
<path d="M99.1395 86.11C88.5395 87.58 78.6695 90.42 68.9795 94.23C69.5495 92.12 70.1895 89.98 70.9295 87.86L70.9895 87.84C90.0995 76.47 114.689 73.05 150.309 79.84L150.469 79.88C151.929 83.1 153.109 86.52 154.069 90.09C144.739 87.76 136.099 86.29 127.999 85.55C122.989 85.1 118.049 84.9 113.199 85.01C108.349 85.1 103.679 85.48 99.1395 86.11Z" fill="#464C51"/>
<path d="M87.9796 100.8C83.9396 101.51 79.9496 102.35 76.0096 103.3C74.1296 103.75 72.2696 104.23 70.4296 104.73C69.8596 104.88 69.2896 105.04 68.7196 105.2C68.2196 105.34 67.7196 105.48 67.2296 105.62C66.9996 105.66 66.7796 105.56 66.5696 105.37C66.5196 105.32 66.4696 105.27 66.4296 105.21C66.0496 104.75 65.7196 103.96 65.4696 103C64.9896 101.2 64.7796 98.8098 65.0196 97.0398C65.1296 96.2398 65.6796 95.5698 66.4196 95.2598C66.7796 95.1098 67.1396 94.9598 67.5096 94.8198C67.9996 94.6198 68.4896 94.4198 68.9896 94.2298C78.6796 90.4198 88.5496 87.5798 99.1496 86.1098C103.69 85.4798 108.36 85.0998 113.21 85.0098V85.0298C114 88.1998 114.21 91.5498 114.19 94.9798C114.17 95.9898 114.1 97.0098 113.98 97.9998C105.24 98.2998 96.5296 99.2698 87.9896 100.8H87.9796Z" fill="#464C51"/>
<path d="M144.829 70.3595L144.699 70.6495C115.789 64.1195 94.0293 67.3395 74.5693 79.0095C76.0793 75.9695 77.8193 73.0395 79.8393 70.3495L80.0093 70.3095C94.2593 60.9195 106.909 56.4995 132.179 59.7495L132.269 59.7695C137.399 62.4495 141.519 66.0595 144.829 70.3595Z" fill="#464C51"/>
<path d="M157.679 122.73L157.629 122.92C149.179 134.63 140.449 134.83 131.039 131.01C127.659 129.63 123.929 129.44 120.439 130.51C116.809 131.62 112.729 133.41 108.699 135.14C99.1092 139.58 82.2292 126.48 71.1292 115.04C69.8692 113.73 68.6792 112.45 67.5892 111.22C67.5592 111.19 67.5392 111.16 67.5092 111.13C66.9692 110.52 66.4592 109.93 65.9692 109.35L65.9492 109.27C66.1292 108.01 66.3292 106.71 66.5592 105.37C66.7692 105.56 66.9892 105.66 67.2192 105.62C67.7092 105.48 68.2092 105.34 68.7092 105.2C69.2792 105.04 69.8492 104.88 70.4192 104.73L70.4792 104.84C93.3292 114.41 131.029 118.51 156.169 105.84L156.249 105.9C156.919 111.7 157.429 117.31 157.679 122.73Z" fill="#2B3036"/>
<path d="M132.18 59.7504C106.91 56.5004 94.2598 60.9204 80.0098 70.3104L79.8398 70.3504C86.4898 61.4104 96.1399 54.9204 110.23 54.6504C119.11 54.8404 126.36 56.6804 132.27 59.7704L132.18 59.7504Z" fill="white"/>
<path d="M167.389 170.181C167.399 170.291 167.319 170.391 167.209 170.401C167.109 170.421 167.009 170.341 166.989 170.241C166.759 169.061 166.349 167.911 165.849 166.821C165.329 165.761 164.759 164.671 163.989 163.791C163.799 163.581 163.809 163.351 163.919 163.191C164.179 163.151 164.429 163.111 164.679 163.061C164.719 163.091 164.749 163.131 164.779 163.181C166.129 165.311 167.069 167.681 167.389 170.181Z" fill="#514E47"/>
<path d="M167.91 158.451L167.99 158.561C166.13 159.091 163.38 159.681 160.46 159.831L160.59 159.441C163.2 159.491 165.69 159.261 167.91 158.451Z" fill="#514E47"/>
<path d="M158.03 166.01C162.39 181.16 159.06 192.06 151.09 199.46C152.06 191.32 151.06 182.91 147.49 178.63C145.8 176.61 143.56 175.5 140.68 175.77C143.52 175.39 146.01 174.78 148.16 173.98C152.97 172.19 156.13 169.43 158.03 166.01Z" fill="#6C6C6C"/>
<path d="M66.4192 105.21C66.4592 105.27 66.5092 105.32 66.5592 105.37C66.3292 106.71 66.1292 108.01 65.9492 109.27C65.8592 109.86 65.7792 110.45 65.7092 111.02C65.6592 111.41 65.6092 111.77 65.5592 112.14L65.4092 112.21C64.4592 112.28 63.7092 111.74 63.1892 110.89C63.1392 110.8 63.0892 110.7 63.0392 110.6C62.4092 109.34 62.2492 107.57 62.6492 106.04C63.0292 104.62 63.8892 103.41 65.3392 103.02L65.4592 103C65.7092 103.96 66.0392 104.75 66.4192 105.21Z" fill="#2B3036"/>
<path d="M166.72 162.551C166.66 162.581 166.62 162.621 166.57 162.671C165.97 162.811 165.33 162.941 164.68 163.061C164.63 163.011 164.56 162.981 164.5 162.961C165.26 162.861 165.99 162.731 166.72 162.551Z" fill="#99968D"/>
<path d="M127 210.44C123.04 211.23 118.87 211.75 114.56 212.02C112.24 217.61 108.82 221.55 104.66 221.51C99.9896 221.69 95.8096 217.68 93.1696 211.5C93.1096 211.49 93.0396 211.49 92.9796 211.48L91.8996 211.36C48.7396 206.27 49.1596 166.17 60.2496 138.63C62.0596 134.12 63.4496 129.45 64.2496 124.66C64.2796 124.49 64.3096 124.3 64.3296 124.08C64.5796 122.04 64.8596 117.7 65.5596 112.14C65.6096 111.77 65.6596 111.41 65.7096 111.03C65.7796 110.45 65.8596 109.86 65.9496 109.27L65.9696 109.35C66.4596 109.93 66.9696 110.52 67.5096 111.13C67.5396 111.16 67.5596 111.19 67.5896 111.22C68.6796 112.45 69.8696 113.73 71.1296 115.04C82.2296 126.48 99.1096 139.58 108.7 135.14C112.73 133.41 116.81 131.62 120.44 130.51C123.93 129.44 127.66 129.63 131.04 131.01C140.45 134.83 149.18 134.63 157.63 122.92L157.68 122.73C157.92 127.57 157.97 132.26 157.78 136.81C157.72 138.11 157.7 139.41 157.76 140.71C157.78 141.03 157.8 141.29 157.82 141.37C158.6 143.87 159.24 146.33 159.68 148.74C160.37 152.42 160.6 155.95 160.18 159.19C160.15 159.41 160.12 159.63 160.08 159.85C159.88 161.2 159.55 162.5 159.09 163.72C158.79 164.51 158.44 165.27 158.03 166C156.13 169.43 152.97 172.19 148.16 173.98C146.01 174.78 143.52 175.39 140.68 175.77C143.56 175.5 145.8 176.61 147.49 178.63C151.06 182.91 152.06 191.32 151.09 199.46C150.71 202.61 150.04 205.72 149.1 208.53C146.89 215.17 143.22 220.17 138.54 220.23C133.47 219.9 129.32 216.55 127.01 210.44H127Z" fill="#6C6C6C"/>
<path d="M159.68 148.741C162.68 149.491 166.14 149.071 170.02 147.611C170.62 147.381 171.14 148.091 170.75 148.611C168.78 151.261 167.36 154.001 167.97 157.071C168.38 159.161 169.74 160.941 171.54 162.081C192.06 174.941 207.52 209.021 174.08 211.641C162.93 212.171 154.91 210.791 149.1 208.531" stroke="#231815" stroke-linecap="round" stroke-linejoin="round"/>
<path d="M160.109 159.851C160.229 159.851 160.339 159.841 160.459 159.831C163.379 159.681 166.129 159.091 167.989 158.561C168.099 158.531 168.199 158.501 168.299 158.471" stroke="#231815" stroke-linecap="round" stroke-linejoin="round"/>
<path d="M158.039 166.01H158.029" stroke="#231815" stroke-linecap="round" stroke-linejoin="round"/>
<path d="M74.5697 79.0098C73.1597 81.8898 71.9497 84.8598 70.9297 87.8598" stroke="#231815" stroke-linecap="round" stroke-linejoin="round"/>
<path d="M132.27 59.7704C126.36 56.6804 119.11 54.8404 110.23 54.6504C96.1399 54.9204 86.4898 61.4104 79.8398 70.3504" stroke="#231815" stroke-linecap="round" stroke-linejoin="round"/>
<path d="M150.469 79.8813C148.919 76.4513 147.059 73.2513 144.829 70.3613" stroke="#231815" stroke-linecap="round" stroke-linejoin="round"/>
<path d="M155.819 102.311C155.969 103.511 156.119 104.711 156.249 105.901" stroke="#231815" stroke-linecap="round" stroke-linejoin="round"/>
<path d="M157.68 122.73C157.92 127.57 157.97 132.26 157.78 136.81C157.72 138.11 157.7 139.41 157.76 140.71C157.78 141.03 157.8 141.29 157.82 141.37C158.6 143.87 159.24 146.33 159.68 148.74C160.37 152.42 160.6 155.95 160.18 159.19C160.15 159.41 160.12 159.63 160.08 159.85C159.88 161.2 159.55 162.5 159.09 163.72C158.79 164.51 158.44 165.27 158.03 166" stroke="#231815" stroke-linecap="round" stroke-linejoin="round"/>
<path d="M151.089 199.46C150.709 202.61 150.039 205.72 149.099 208.53C146.889 215.17 143.219 220.17 138.539 220.23C133.469 219.9 129.319 216.55 127.009 210.44C123.049 211.23 118.879 211.75 114.569 212.02C112.249 217.61 108.829 221.55 104.669 221.51C99.9994 221.69 95.8194 217.68 93.1794 211.5C93.1194 211.49 93.0494 211.49 92.9894 211.48L91.9094 211.36C48.7494 206.27 49.1694 166.17 60.2594 138.63C62.0694 134.12 63.4594 129.45 64.2594 124.66C64.2894 124.49 64.3194 124.3 64.3394 124.08" stroke="#231815" stroke-linecap="round" stroke-linejoin="round"/>
<path d="M155.819 102.311V102.291" stroke="#231815" stroke-linecap="round" stroke-linejoin="round"/>
<path d="M75.6396 165.1C79.7796 169.23 83.6496 172.57 88.6296 174.66C93.5796 176.76 99.6296 177.62 108.13 176.79C108.79 176.69 109.41 176.56 110 176.4C110 176.4 110.26 176.33 110.51 176.26C110.55 176.25 110.58 176.24 110.58 176.24C118.49 173.78 119.22 166.04 114.92 161.7C113.62 160.39 111.88 159.62 110.07 159.24C101.91 157.54 95.7996 153.91 90.7096 149.34" stroke="#231815" stroke-linecap="round" stroke-linejoin="round"/>
<path d="M80.8691 182.42C83.5891 179.18 86.2591 176.4 88.7891 174.76" stroke="#231815" stroke-linecap="round" stroke-linejoin="round"/>
<path d="M121.85 179.471C123.87 177.411 125.85 175.651 127.73 174.621" stroke="#231815" stroke-linecap="round" stroke-linejoin="round"/>
<path d="M144.54 151.83C134.92 159.15 123.94 158.58 124.62 168.08C125.26 173.15 128.12 175.44 132.28 176.08C133.18 176.23 134.1 176.26 135.01 176.23C136.81 176.17 138.49 176.05 140.06 175.85C140.27 175.82 140.48 175.79 140.68 175.77" stroke="#231815" stroke-linecap="round" stroke-linejoin="round"/>
<path d="M151.09 199.46C152.06 191.32 151.06 182.91 147.49 178.63C145.8 176.61 143.56 175.5 140.68 175.77C143.52 175.39 146.01 174.78 148.16 173.98C152.97 172.19 156.13 169.43 158.03 166.01C162.39 181.16 159.06 192.06 151.09 199.46Z" stroke="#231815" stroke-linecap="round" stroke-linejoin="round"/>
<path d="M93.0598 211.241C91.6098 207.741 90.6398 203.561 90.3398 199.061" stroke="#231815" stroke-linecap="round" stroke-linejoin="round"/>
<path d="M110.909 176.391C119.469 180.581 119.529 200.071 114.559 212.021" stroke="#231815" stroke-linecap="round" stroke-linejoin="round"/>
<path d="M127 210.44C125.7 206.99 124.97 202.67 125 197.51" stroke="#231815" stroke-linecap="round" stroke-linejoin="round"/>
<path d="M99.1396 86.1113L100.08 95.4613" stroke="#231815" stroke-linecap="round" stroke-linejoin="round"/>
<path d="M65.4599 103C64.9799 101.2 64.7699 98.8105 65.0099 97.0405C65.1199 96.2405 65.6699 95.5705 66.4099 95.2605C66.7699 95.1105 67.1299 94.9605 67.4999 94.8205C67.9899 94.6205 68.4799 94.4205 68.9799 94.2305" stroke="#231815" stroke-linecap="round" stroke-linejoin="round"/>
<path d="M87.9797 100.801C83.9397 101.511 79.9497 102.351 76.0097 103.301C74.1297 103.751 72.2697 104.231 70.4297 104.731" stroke="#231815" stroke-linecap="round" stroke-linejoin="round"/>
<path d="M154.07 90.0898C154.73 90.2498 155.38 90.4198 156.06 90.5998H156.07C156.19 90.6198 156.32 90.6598 156.44 90.6898C158.39 91.5498 158.79 99.8898 156.44 101.94C156.25 102.11 156.04 102.24 155.81 102.31C155.78 102.33 155.74 102.34 155.71 102.35C142.22 98.7898 128.07 97.5098 113.96 97.9998C105.22 98.2998 96.5098 99.2699 87.9698 100.8C87.3398 99.3599 86.8698 97.7598 86.5498 96.0298" stroke="#231815" stroke-linecap="round" stroke-linejoin="round"/>
<path d="M127.999 85.55C136.099 86.29 144.739 87.76 154.069 90.09C153.109 86.52 151.929 83.1 150.469 79.88L150.309 79.84C114.689 73.05 90.0995 76.47 70.9895 87.84L70.9295 87.86C70.1895 89.98 69.5495 92.12 68.9795 94.23C78.6695 90.42 88.5395 87.58 99.1395 86.11C103.679 85.48 108.349 85.1 113.199 85.01C118.049 84.9 122.989 85.1 127.999 85.55Z" stroke="#231815" stroke-linecap="round" stroke-linejoin="round"/>
<path d="M144.829 70.3595L144.699 70.6495C115.789 64.1195 94.0293 67.3395 74.5693 79.0095C76.0793 75.9695 77.8193 73.0395 79.8393 70.3495L80.0093 70.3095C94.2593 60.9195 106.909 56.4995 132.179 59.7495L132.269 59.7695C137.399 62.4495 141.519 66.0595 144.829 70.3595Z" stroke="#231815" stroke-linecap="round" stroke-linejoin="round"/>
<path d="M66.5592 105.37C66.7692 105.56 66.9892 105.66 67.2192 105.62C67.7092 105.48 68.2092 105.34 68.7092 105.2C69.2792 105.04 69.8492 104.88 70.4192 104.73L70.4792 104.84C93.3292 114.41 131.029 118.51 156.169 105.84L156.249 105.9C156.919 111.7 157.429 117.31 157.679 122.73L157.629 122.92C149.179 134.63 140.449 134.83 131.039 131.01C127.659 129.63 123.929 129.44 120.439 130.51C116.809 131.62 112.729 133.41 108.699 135.14C99.1092 139.58 82.2292 126.48 71.1292 115.04C69.8692 113.73 68.6792 112.45 67.5892 111.22C67.5592 111.19 67.5392 111.16 67.5092 111.13C66.9692 110.52 66.4592 109.93 65.9692 109.35L65.9492 109.27" stroke="#231815" stroke-linecap="round" stroke-linejoin="round"/>
<path d="M63.1892 110.89C63.1392 110.8 63.0892 110.7 63.0392 110.6C62.4092 109.34 62.2492 107.57 62.6492 106.04C63.0292 104.62 63.8892 103.41 65.3392 103.02L65.4592 103C65.7092 103.96 66.0392 104.75 66.4192 105.21C66.4592 105.27 66.5092 105.32 66.5592 105.37C66.3292 106.71 66.1292 108.01 65.9492 109.27C65.8592 109.86 65.7792 110.45 65.7092 111.02C65.6592 111.41 65.6092 111.77 65.5592 112.14" stroke="#231815" stroke-linecap="round" stroke-linejoin="round"/>
<path d="M63.0399 110.6L62.9199 110.87" stroke="#231815" stroke-linecap="round" stroke-linejoin="round"/>
<path d="M55.4795 117.8C51.0295 119.56 45.6295 120.32 39.5295 120.33C38.7595 120.34 38.2996 119.48 38.7396 118.84C44.3296 110.79 53.0796 105.89 62.5396 105.96L62.6496 106.04" stroke="#231815" stroke-linecap="round" stroke-linejoin="round"/>
<path d="M65.5598 112.141C64.8598 117.701 64.5798 122.041 64.3298 124.081C61.3798 129.621 56.1698 133.391 49.0698 135.671C48.6398 135.821 48.2498 135.321 48.5198 134.951C51.0098 131.481 52.0398 123.781 55.4798 117.801C57.1998 114.801 59.5098 112.251 62.9098 110.881H62.9198L63.1898 110.891C63.7098 111.741 64.4598 112.281 65.4098 112.211L65.5598 112.141Z" stroke="#231815" stroke-linecap="round" stroke-linejoin="round"/>
<path d="M114.57 104.031C112.32 107.011 108.65 108.961 103.34 109.731" stroke="#231815" stroke-linecap="round" stroke-linejoin="round"/>
<path d="M130.739 103.939C132.989 107.229 136.639 108.579 142.059 107.509" stroke="#231815" stroke-linecap="round" stroke-linejoin="round"/>
<path d="M75.8591 103.08C74.1291 100.33 73.8191 96.7803 73.9491 92.5703" stroke="#231815" stroke-linecap="round" stroke-linejoin="round"/>
<path d="M87.9895 100.831C87.9895 100.831 87.9795 100.811 87.9795 100.801" stroke="#231815" stroke-linecap="round" stroke-linejoin="round"/>
<path d="M86.5594 96.03C86.1294 93.86 85.9294 91.5 85.8594 89" stroke="#231815" stroke-linecap="round" stroke-linejoin="round"/>
<path d="M100.409 98.7809L100.079 95.4609" stroke="#231815" stroke-linecap="round" stroke-linejoin="round"/>
<path d="M99.1396 86.1096V86.0996" stroke="#231815" stroke-linecap="round" stroke-linejoin="round"/>
<path d="M113.199 85.0312C113.989 88.2013 114.199 91.5513 114.179 94.9813C114.159 95.9913 114.089 97.0113 113.969 98.0013V98.0513" stroke="#231815" stroke-linecap="round" stroke-linejoin="round"/>
<path d="M128.38 85.6699C129.52 88.3999 129.84 91.1099 129.48 94.2099C129.39 95.4699 129.13 96.7699 128.67 98.0999" stroke="#231815" stroke-linecap="round" stroke-linejoin="round"/>
<path d="M143.22 87.8906C144.53 91.0906 145.12 94.8106 144.07 99.7206" stroke="#231815" stroke-linecap="round" stroke-linejoin="round"/>
<path d="M159.09 163.721C160.76 163.641 162.39 163.451 163.92 163.191C164.18 163.151 164.43 163.111 164.68 163.061C165.33 162.941 165.97 162.811 166.57 162.671C166.81 162.621 167.05 162.561 167.28 162.501C168.44 162.221 169.47 161.921 170.34 161.641" stroke="#231815" stroke-linecap="round" stroke-linejoin="round"/>
<path d="M100.01 125.179C105.2 127.169 110.67 127.719 114 122.419C114.32 121.939 115.1 122.359 114.88 122.889C112.42 129.549 104.8 129.129 99.5895 126.089C99.0495 125.799 99.4295 124.959 99.9995 125.179H100.01Z" fill="white"/>
<path d="M134.4 121.991C138.25 125.841 142.86 125.321 147.38 122.981C147.71 122.801 148.03 123.301 147.73 123.531C143.49 127.161 136.96 127.831 133.65 122.651C133.32 122.181 134 121.601 134.41 122.001L134.4 121.991Z" fill="white"/>
<path d="M119.55 139.25C122.85 136.77 128.06 135.12 131.65 138.06C131.87 138.23 131.91 138.55 131.74 138.77C131.59 138.96 131.34 139.01 131.13 138.92C127.47 137.05 123.53 138.18 120.08 140.11C119.54 140.4 119.05 139.61 119.55 139.26V139.25Z" fill="#231815"/>
<path d="M171.26 202.08C170.81 202.02 170.36 201.88 169.96 201.64C168.74 200.92 168.2 199.57 167.83 198.67L163.86 188.789C163.59 188.129 163.91 187.38 164.57 187.11C165.23 186.85 165.98 187.17 166.24 187.82L170.21 197.7C170.45 198.31 170.79 199.14 171.25 199.41C171.6 199.62 172.19 199.499 172.61 199.149C173.1 198.729 173.46 198.009 173.62 197.119C173.75 196.419 173.64 194.58 173.59 193.7C173.55 192.96 173.98 192.26 174.65 191.97C175.32 191.68 176.08 191.85 176.58 192.39C177.15 193.01 177.64 193.89 178.02 194.59C178.18 194.88 178.32 195.14 178.44 195.33C178.61 195.59 178.77 195.86 178.94 196.14C179.42 196.94 179.83 197.63 180.45 198.02C180.69 198.17 180.94 198.229 181.14 198.179C181.54 198.079 181.81 197.49 181.92 196.44C182.34 192.48 181.06 188.399 178.51 185.539C178.04 185.009 178.08 184.2 178.61 183.72C179.14 183.24 179.95 183.29 180.43 183.82C183.46 187.22 184.97 192.03 184.48 196.7C184.25 198.94 183.34 200.27 181.78 200.67C180.9 200.89 179.94 200.73 179.1 200.2C177.96 199.49 177.31 198.41 176.74 197.46C176.6 197.22 176.45 196.98 176.3 196.74C176.28 196.71 176.26 196.68 176.25 196.66C176.24 197.01 176.21 197.319 176.16 197.59C175.97 198.63 175.49 200.089 174.29 201.119C173.4 201.879 172.29 202.21 171.25 202.08H171.26Z" fill="#514E47"/>
<path d="M163.51 197.14C162.86 197.06 162.37 196.51 162.38 195.84C162.39 195.13 162.98 194.56 163.69 194.57C171.25 194.7 178.88 192.93 185.74 189.45C186.37 189.13 187.15 189.38 187.47 190.02C187.79 190.65 187.54 191.43 186.9 191.75C179.66 195.42 171.62 197.29 163.64 197.15C163.59 197.15 163.55 197.15 163.5 197.15L163.51 197.14Z" fill="#514E47"/>
<path d="M22.3605 4.26953H19.4805C18.3759 4.26953 17.4805 5.16496 17.4805 6.26953V230.29C17.4805 231.394 18.3759 232.29 19.4805 232.29H22.3605C23.465 232.29 24.3605 231.394 24.3605 230.29V6.26953C24.3605 5.16496 23.465 4.26953 22.3605 4.26953Z" fill="#2B3036" stroke="#231815" stroke-miterlimit="10"/>
<path d="M56.4601 4.26953H53.5801C52.4755 4.26953 51.5801 5.16496 51.5801 6.26953V230.29C51.5801 231.394 52.4755 232.29 53.5801 232.29H56.4601C57.5646 232.29 58.4601 231.394 58.4601 230.29V6.26953C58.4601 5.16496 57.5646 4.26953 56.4601 4.26953Z" fill="#2B3036" stroke="#231815" stroke-miterlimit="10"/>
<path d="M90.5607 4.26953H87.6807C86.5761 4.26953 85.6807 5.16496 85.6807 6.26953V230.29C85.6807 231.394 86.5761 232.29 87.6807 232.29H90.5607C91.6652 232.29 92.5607 231.394 92.5607 230.29V6.26953C92.5607 5.16496 91.6652 4.26953 90.5607 4.26953Z" fill="#2B3036" stroke="#231815" stroke-miterlimit="10"/>
<path d="M124.66 4.26953H121.78C120.676 4.26953 119.78 5.16496 119.78 6.26953V230.29C119.78 231.394 120.676 232.29 121.78 232.29H124.66C125.765 232.29 126.66 231.394 126.66 230.29V6.26953C126.66 5.16496 125.765 4.26953 124.66 4.26953Z" fill="#2B3036" stroke="#231815" stroke-miterlimit="10"/>
<path d="M158.761 4.26953H155.881C154.776 4.26953 153.881 5.16496 153.881 6.26953V230.29C153.881 231.394 154.776 232.29 155.881 232.29H158.761C159.865 232.29 160.761 231.394 160.761 230.29V6.26953C160.761 5.16496 159.865 4.26953 158.761 4.26953Z" fill="#2B3036" stroke="#231815" stroke-miterlimit="10"/>
<path d="M192.86 4.26953H189.98C188.876 4.26953 187.98 5.16496 187.98 6.26953V230.29C187.98 231.394 188.876 232.29 189.98 232.29H192.86C193.965 232.29 194.86 231.394 194.86 230.29V6.26953C194.86 5.16496 193.965 4.26953 192.86 4.26953Z" fill="#2B3036" stroke="#231815" stroke-miterlimit="10"/>
<path d="M226.96 4.26953H224.08C222.976 4.26953 222.08 5.16496 222.08 6.26953V230.29C222.08 231.394 222.976 232.29 224.08 232.29H226.96C228.065 232.29 228.96 231.394 228.96 230.29V6.26953C228.96 5.16496 228.065 4.26953 226.96 4.26953Z" fill="#2B3036" stroke="#231815" stroke-miterlimit="10"/>
<path d="M243.95 0.5H2.5C1.39543 0.5 0.5 1.39543 0.5 2.5V9.05C0.5 10.1546 1.39543 11.05 2.5 11.05H243.95C245.055 11.05 245.95 10.1546 245.95 9.05V2.5C245.95 1.39543 245.055 0.5 243.95 0.5Z" fill="#2B3036" stroke="#231815" stroke-miterlimit="10"/>
<path d="M243.95 226.539H2.5C1.39543 226.539 0.5 227.434 0.5 228.539V235.089C0.5 236.194 1.39543 237.089 2.5 237.089H243.95C245.055 237.089 245.95 236.194 245.95 235.089V228.539C245.95 227.434 245.055 226.539 243.95 226.539Z" fill="#2B3036" stroke="#231815" stroke-miterlimit="10"/>
</svg>
