<svg width="64" height="58" viewBox="0 0 64 58" fill="none" xmlns="http://www.w3.org/2000/svg">
<g opacity="0.5">
<path d="M41.7242 53.7813C43.3762 55.6932 42.4162 58.1531 40.1442 57.9891C38.7362 57.8891 37.2042 56.6092 36.9482 55.2013C37.7442 55.0413 38.6082 54.8293 39.5242 54.5533C40.3202 54.3133 41.0562 54.0493 41.7242 53.7773V53.7813Z" fill="#7D828E"/>
<path d="M27.1918 55.2051C26.9358 56.613 25.4038 57.8929 23.9958 57.9929C21.7238 58.1569 20.8518 55.737 22.6238 53.7852C22.8678 53.8852 23.1198 53.9851 23.3798 54.0851C23.6998 54.2131 24.0318 54.3291 24.3678 54.4331C24.4918 54.4771 24.6198 54.5171 24.7478 54.5571C25.6118 54.8291 26.4278 55.0411 27.1838 55.2051H27.1918Z" fill="#7D828E"/>
<path d="M64 13.4952C64 20.0068 59.42 25.4425 53.328 26.7104C54.452 29.4023 54.84 32.3821 53.804 35.0819C52.284 39.0297 48.96 40.0976 46.996 40.4856C46.824 40.5216 46.788 40.7496 46.94 40.8416C47.96 41.4296 49.452 42.8695 49.596 44.9254C49.572 44.7014 49.532 44.4694 49.468 44.2214C49.468 44.2214 47.792 45.8373 45.436 45.9893C45.436 45.9893 45.564 46.8892 45.592 48.6371H45.472C44.892 54.4048 38.184 55.6927 32.032 55.7487C29.404 55.7247 26.68 55.4767 24.372 54.7488C24.028 54.6368 23.7 54.5208 23.384 54.4008C20.772 53.3529 18.876 51.561 18.596 48.5891H18.528C18.556 46.8732 18.68 45.9893 18.68 45.9893C16.328 45.8373 14.648 44.2214 14.648 44.2214C14.46 44.9414 14.468 45.5653 14.576 46.0933C14.516 45.8693 14.484 45.6373 14.476 45.4053C14.42 43.5574 15.476 41.7535 17.064 40.8416C17.216 40.7536 17.18 40.5216 17.008 40.4856C15.048 40.0976 11.72 39.0337 10.2 35.0819C9.16 32.3821 9.552 29.4023 10.676 26.7104C4.58 25.4425 0 20.0068 0 13.4952C0 6.04365 5.996 0 13.396 0C20.796 0 26.796 6.04365 26.796 13.4952C26.796 14.2112 26.74 14.9111 26.636 15.5991L26.424 15.7471C28.252 15.4911 30.116 15.3991 32.004 15.4311C33.9 15.4711 35.808 15.5671 37.688 15.8191L37.368 15.5951C37.26 14.9111 37.208 14.2072 37.208 13.4912C37.204 6.04364 43.204 0 50.6 0C57.996 0 64 6.04365 64 13.4952ZM51.256 23.2106C55.588 22.6227 58.932 18.8789 58.932 14.3512C58.932 9.41145 54.956 5.40768 50.056 5.40768C45.156 5.40768 41.176 9.41145 41.176 14.3512C41.176 15.1351 41.28 15.8991 41.468 16.623C42.928 16.995 45.192 17.771 47.512 19.4749C49.26 20.7588 50.472 22.1467 51.256 23.2106ZM36.86 47.2772C36.86 45.1214 34.668 43.3775 31.96 43.3775C29.252 43.3775 27.06 45.1214 27.06 47.2772C27.06 49.4331 29.252 51.177 31.96 51.177C34.668 51.177 36.86 49.4331 36.86 47.2772ZM22.532 16.627C22.72 15.9031 22.82 15.1391 22.82 14.3552C22.82 9.41545 18.844 5.41168 13.944 5.41168C9.044 5.41168 5.068 9.41545 5.068 14.3552C5.068 18.8829 8.408 22.6267 12.744 23.2146C13.508 22.1787 14.652 20.8668 16.272 19.6388C18.664 17.827 21.024 17.015 22.532 16.627Z" fill="#A5AAB7"/>
<path d="M58.9318 14.3497C58.9318 18.8775 55.5878 22.6212 51.2558 23.2092C50.4678 22.1453 49.2598 20.7573 47.5118 19.4734C45.1878 17.7695 42.9278 16.9936 41.4678 16.6216C41.2798 15.8976 41.1758 15.1337 41.1758 14.3497C41.1758 9.41002 45.1518 5.40625 50.0558 5.40625C54.9598 5.40625 58.9318 9.41002 58.9318 14.3497Z" fill="#7D828E"/>
<path d="M49.6003 44.9386C49.6283 45.3426 49.6043 45.7666 49.5163 46.2185C49.5163 46.2225 49.5163 46.2305 49.5163 46.2345C49.3523 46.9105 49.0283 47.4105 48.7843 47.7105C48.7723 47.7265 48.7603 47.7425 48.7443 47.7544C48.0163 48.5544 46.8843 48.9944 45.6683 48.6384H45.6003C45.5723 46.8865 45.4443 45.9906 45.4443 45.9906C47.7963 45.8386 49.4763 44.2227 49.4763 44.2227C49.5403 44.4666 49.5803 44.7026 49.6043 44.9266C49.6043 44.9266 49.6043 44.9346 49.6043 44.9386H49.6003Z" fill="#7D828E"/>
<path d="M31.9605 43.3789C34.6685 43.3789 36.8605 45.1228 36.8605 47.2787C36.8605 49.4346 34.6685 51.1784 31.9605 51.1784C29.2525 51.1784 27.0605 49.4346 27.0605 47.2787C27.0605 45.1228 29.2525 43.3789 31.9605 43.3789Z" fill="#7D828E"/>
<path d="M22.8243 14.3497C22.8243 15.1337 22.7243 15.8976 22.5363 16.6216C21.0243 17.0056 18.6683 17.8215 16.2763 19.6334C14.6563 20.8613 13.5123 22.1733 12.7483 23.2092C8.41227 22.6212 5.07227 18.8775 5.07227 14.3497C5.07227 9.41002 9.04827 5.40625 13.9483 5.40625C18.8483 5.40625 22.8243 9.41002 22.8243 14.3497Z" fill="#7D828E"/>
<path d="M18.6763 45.9906C18.6763 45.9906 18.5523 46.8746 18.5243 48.5905H18.4523C16.7243 49.0945 15.0123 47.7705 14.5803 46.1146C14.5803 46.1066 14.5803 46.1026 14.5763 46.0906C14.4683 45.5627 14.4603 44.9387 14.6483 44.2188C14.6483 44.2188 16.3243 45.8347 18.6803 45.9866L18.6763 45.9906Z" fill="#7D828E"/>
<path d="M36.4839 41.4303C33.4959 41.6342 30.4919 41.6142 27.5039 41.4062" stroke="#7D828E" stroke-miterlimit="10" stroke-linecap="round"/>
<path d="M33.2318 29.8741C33.2318 30.4861 32.6278 30.7341 32.0358 30.7301C31.4438 30.7261 30.8838 30.4861 30.8838 29.8741C30.8838 28.6622 33.2318 28.6302 33.2318 29.8741Z" fill="#FF555D"/>
<path d="M34.2879 25.5742C34.2879 25.5742 34.1239 26.1582 33.4639 26.5982" stroke="#7D828E" stroke-miterlimit="10" stroke-linecap="round"/>
<path d="M29.7881 25.5742C29.7881 25.5742 29.9521 26.1582 30.6121 26.5982" stroke="#7D828E" stroke-miterlimit="10" stroke-linecap="round"/>
<path d="M27.9278 31.7891C27.4358 31.8251 27.0998 32.401 27.2078 32.885C27.3158 33.369 27.7558 33.7249 28.2318 33.8569C28.7318 33.9929 29.2638 33.9249 29.7718 33.8249C30.1078 33.7609 30.4438 33.673 30.7758 33.585C31.1438 33.485 31.5238 33.413 31.8918 33.393C31.9838 33.389 32.0798 33.389 32.1718 33.393C32.5798 33.425 32.9638 33.493 33.3518 33.601C33.6678 33.689 33.9918 33.7689 34.3118 33.8289C34.8118 33.9249 35.3358 33.9929 35.8318 33.8569C36.3278 33.7209 36.7518 33.369 36.8558 32.885C36.9598 32.401 36.6278 31.8251 36.1358 31.7891" stroke="#7D828E" stroke-miterlimit="10" stroke-linecap="round"/>
<path d="M24.6878 27.3789C26.2238 27.3789 27.5758 27.6629 27.5758 28.4868C27.5758 29.3108 26.2238 29.5948 24.6878 29.5948C23.1518 29.5948 21.7998 29.3508 21.7998 28.4868C21.7998 27.6229 23.1518 27.3789 24.6878 27.3789Z" fill="white"/>
<mask id="mask0_4953_10210" style="mask-type:luminance" maskUnits="userSpaceOnUse" x="21" y="27" width="7" height="3">
<path d="M24.6878 27.3789C26.2238 27.3789 27.5758 27.6629 27.5758 28.4868C27.5758 29.3108 26.2238 29.5948 24.6878 29.5948C23.1518 29.5948 21.7998 29.3508 21.7998 28.4868C21.7998 27.6229 23.1518 27.3789 24.6878 27.3789Z" fill="white"/>
</mask>
<g mask="url(#mask0_4953_10210)">
<path d="M23.1445 28.4889C23.1445 27.397 23.7925 27.021 24.5805 26.965V26.957C24.6165 26.957 24.6525 26.957 24.6885 26.957C24.7245 26.957 24.7605 26.957 24.7965 26.957V26.965C25.5885 27.021 26.2325 27.393 26.2325 28.4889C26.2325 29.4689 25.5845 29.9369 24.7965 30.0089V30.0209C24.7605 30.0209 24.7245 30.0209 24.6885 30.0209C24.6525 30.0209 24.6165 30.0209 24.5805 30.0209V30.0089C23.7885 29.9369 23.1445 29.4689 23.1445 28.4889Z" fill="#494949"/>
</g>
<path d="M39.8597 27.3789C38.3237 27.3789 36.9717 27.6629 36.9717 28.4868C36.9717 29.3508 38.3237 29.5948 39.8597 29.5948C41.3957 29.5948 42.7477 29.3508 42.7477 28.4868C42.7477 27.6229 41.3957 27.3789 39.8597 27.3789Z" fill="white"/>
<mask id="mask1_4953_10210" style="mask-type:luminance" maskUnits="userSpaceOnUse" x="36" y="27" width="7" height="3">
<path d="M39.8597 27.3789C38.3237 27.3789 36.9717 27.6629 36.9717 28.4868C36.9717 29.3508 38.3237 29.5948 39.8597 29.5948C41.3957 29.5948 42.7477 29.3508 42.7477 28.4868C42.7477 27.6229 41.3957 27.3789 39.8597 27.3789Z" fill="white"/>
</mask>
<g mask="url(#mask1_4953_10210)">
<path d="M41.4044 28.4889C41.4044 27.397 40.7564 27.021 39.9684 26.965V26.957C39.9324 26.957 39.8964 26.957 39.8604 26.957C39.8244 26.957 39.7884 26.957 39.7524 26.957V26.965C38.9604 27.021 38.3164 27.393 38.3164 28.4889C38.3164 29.4689 38.9644 29.9369 39.7524 30.0089V30.0209C39.7884 30.0209 39.8244 30.0209 39.8604 30.0209C39.8964 30.0209 39.9324 30.0209 39.9684 30.0209V30.0089C40.7604 29.9369 41.4044 29.4689 41.4044 28.4889Z" fill="#494949"/>
</g>
<path d="M19.3284 41.9492C19.3284 41.9492 18.3804 44.4291 18.2764 47.9209" stroke="#7D828E" stroke-miterlimit="10" stroke-linecap="round"/>
<path d="M44.8281 41.9492C44.8281 41.9492 45.7761 44.4291 45.8801 47.9209" stroke="#7D828E" stroke-miterlimit="10" stroke-linecap="round"/>
<path d="M31.964 9.13084C34.784 9.05884 53.028 10.9107 55.188 29.8216C55.212 30.0176 55.032 30.1616 54.88 30.0736C52.948 28.9577 42.736 23.034 31.96 22.882C20.52 23.186 11.1 28.2417 9.23204 29.3656C9.08004 29.4576 8.90004 29.3137 8.92404 29.1177C11.088 10.2188 29.14 9.06284 31.964 9.13484V9.13084Z" fill="#1D232B"/>
<mask id="mask2_4953_10210" style="mask-type:luminance" maskUnits="userSpaceOnUse" x="8" y="9" width="48" height="22">
<path d="M31.964 9.13084C34.784 9.05884 53.028 10.9107 55.188 29.8216C55.212 30.0176 55.032 30.1616 54.88 30.0736C52.948 28.9577 42.736 23.034 31.96 22.882C20.52 23.186 11.1 28.2417 9.23204 29.3656C9.08004 29.4576 8.90004 29.3137 8.92404 29.1177C11.088 10.2188 29.14 9.06284 31.964 9.13484V9.13084Z" fill="white"/>
</mask>
<g mask="url(#mask2_4953_10210)">
<path d="M8.908 24.2482L8 22.7963C11.156 20.7924 19.84 16.1607 32.268 16.4207C43.912 16.6647 51.888 20.9604 54.776 22.7963L53.868 24.2482C51.1 22.4883 43.452 18.3726 32.236 18.1366C19.928 17.8806 11.268 22.7483 8.908 24.2482Z" fill="white"/>
<path d="M8.908 20.1115L8 18.6596C11.156 16.6557 19.836 12.024 32.268 12.2839C43.912 12.5279 51.888 16.8237 54.776 18.6596L53.868 20.1115C51.1 18.3516 43.452 14.2358 32.236 13.9998C19.928 13.7439 11.268 18.6116 8.908 20.1115Z" fill="white"/>
</g>
</g>
</svg>
