<svg width="242" height="237" viewBox="0 0 242 237" fill="none" xmlns="http://www.w3.org/2000/svg">
<g clip-path="url(#clip0_5477_10983)">
<path d="M101.63 204.862L101.25 203.292L100.99 201.692L100.98 200.082L101.31 198.482L101.57 196.902L101.48 195.262L101.74 193.672L102.36 192.172L102.93 190.672L103.33 189.112L103.91 187.602L104.11 187.192L104.03 187.142L102.54 186.652L100.87 186.682L99.35 186.252L97.96 185.462L97.73 185.292L97.03 185.162L95.54 184.542L93.84 184.452L92.56 183.382L91.16 182.582L89.64 182.012L88.35 181.022L86.69 180.602L85.59 179.352L84.45 178.192L83.82 177.872L82.98 177.442L81.9 176.222L80.8 175.052L79.45 174.112L78.64 172.672L77.81 171.692L77.6 171.442L76.27 170.442L75.61 168.922L74.54 167.692L73.69 166.322L72.74 165.012L72.03 163.552L71.23 162.142L70.42 160.742L70.22 159.062L69.19 157.732L68.51 156.252L68.32 154.612L67.73 153.102L67.3 151.542L67.14 149.922L66.55 148.402L66.29 146.822L66.31 145.212L66.08 143.632L66.1 142.032L65.59 140.472L65.57 138.872L65.69 137.402L64.76 137.322L63.21 136.912L61.68 136.492L60.06 136.482L58.54 136.002L57.01 135.592L55.53 135.002L54.03 134.512L52.57 133.902L50.98 133.572L49.61 132.762L48.16 132.112L46.82 131.242L45.27 130.772L44.04 129.732L42.52 129.172L41.3 128.132L40.06 127.132L38.71 126.292L37.56 125.192L36.35 124.172L35.01 123.292L33.84 122.212L32.85 120.962L31.78 119.792L30.83 118.522L29.67 117.402L28.91 115.992L28.26 114.532L27.19 113.302L26.52 111.842L25.84 110.382L25.47 108.802L24.94 107.302L24.59 106.742L24.57 106.772L23.35 107.802L22.06 108.762L21.03 110.012L19.61 110.822L18.49 111.962L17.33 113.062L16.34 114.332L15.37 115.602L14.23 116.722L13.01 117.782L12.23 119.202L11.26 120.472L10.26 121.712L9.38 123.042L8.51 124.382L7.54 125.652L6.8 127.072L6.14 128.532L5.61 130.042L4.88 131.462L4.26 132.922L3.65 134.392L3.03 135.862L2.61 137.402L2.12 138.912L1.81 140.482L1.32 142.002L1 143.562L0.89 145.162L0.35 146.692L0.32 148.302L0.19 149.892L0.15 151.482L0.17 153.082L0 154.672L0.33 156.262L0.12 157.872L0.26 159.462L0.67 161.022L1.01 162.582L1.17 164.162L1.4 165.742L1.97 167.252L2.29 168.812L2.84 170.312L3.29 171.832L3.62 173.402L4.04 174.952L4.86 176.342L5.64 177.742L5.95 179.352L6.75 180.732L7.5 182.152L8.35 183.502L9.14 184.882L10.01 186.222L11.05 187.442L11.75 188.892L12.61 190.232L13.77 191.352L14.48 192.832L15.49 194.072L16.86 194.992L17.75 196.332L19.03 197.312L20.03 198.562L21.24 199.602L22.43 200.662L23.63 201.702L24.67 202.942L26.05 203.782L27.21 204.882L28.66 205.592L30.01 206.432L31.21 207.512L32.69 208.192L34.06 209.052L35.41 209.952L37.02 210.362L38.31 211.422L39.87 211.892L41.29 212.682L42.85 213.132L44.38 213.682L45.86 214.342L47.42 214.762L48.95 215.292L50.54 215.572L52.05 216.182L53.67 216.372L55.27 216.552L56.79 217.212L58.45 217.072L60 217.642L61.62 217.672L63.22 217.802L64.84 217.742L66.45 217.792L68.06 218.072L69.68 218.162L71.29 217.782L72.9 217.672L74.51 217.612L76.1 217.372L77.69 217.072L79.32 217.112L80.88 216.642L82.47 216.402L84.07 216.132L85.64 215.742L87.23 215.412L88.74 214.812L90.24 214.222L91.69 213.522L93.21 213.002L94.79 212.602L96.28 211.962L97.66 211.122L99.1 210.402L100.33 209.342L101.91 208.652L101.99 207.902L101.75 206.472L101.63 204.862Z" fill="#E9AC4F"/>
<path d="M123.77 229.929L122.39 229.129L120.97 228.409L119.59 227.639L118.18 226.909L116.87 225.989L115.37 225.389L114.08 224.449L112.85 223.439L111.9 222.559L110.57 221.859L110.27 223.499L110.24 225.129L110.46 226.749L110.91 228.319L111.69 229.759L112.66 231.069L113.8 232.259L115.19 233.119L116.7 233.729L118.29 234.049L119.92 234.099L121.53 233.859L123.09 233.409L124.55 232.689L125.86 231.719L126.52 231.019L125.25 230.519L123.77 229.929Z" fill="#7C818E"/>
<path d="M221.89 180.409L220.69 181.479L219.39 182.429L217.95 183.149L216.49 183.729L214.96 184.049L213.39 184.159L211.83 184.009L210.32 183.599L209.5 183.239L209.55 183.399L209.95 184.959L210.17 186.559L210.59 188.109L210.67 189.719L210.81 191.319L211 192.909L211.12 194.149L211.65 195.029L212.69 196.209L213.79 197.329L214.93 198.399L216.13 199.419L217.45 200.259L218.73 201.149L220.11 201.199L220.81 200.019L220.8 198.309L220.91 196.599L220.97 194.889L221.57 193.299L222.37 192.019L223.48 190.959L224.86 190.289L226.32 189.809L227.85 189.689L229.68 189.389L231.47 188.939L233.08 188.089L234.27 186.889L235.11 185.399L235.57 183.749L235.94 182.079L236.1 180.549L236 179.019L235.52 177.569L234.13 177.219L232.47 177.469L230.86 177.899L229.2 178.109L227.56 178.379L225.9 178.529L224.24 178.519L223.32 178.449L222.89 179.149L221.89 180.409Z" fill="#E9AC4F"/>
<path d="M219.13 165.932L217.7 166.682L216.29 167.422L215.16 168.562L213.89 169.522L212.46 170.212L211.27 171.312L209.88 172.072L208.61 173.042L206.93 173.262L205.72 174.332L205.57 174.422L206.16 174.482L206.71 175.892L207.54 177.292L207.87 178.892L208.44 180.392L209.08 181.872L209.5 183.242L210.32 183.602L211.83 184.012L213.39 184.162L214.96 184.052L216.49 183.732L217.95 183.152L219.39 182.432L220.69 181.482L221.89 180.412L222.89 179.152L223.32 178.452L223.73 177.792L224.42 176.332L224.8 174.772L224.96 173.102L224.76 171.442L224.36 169.822L223.72 168.282L222.81 166.872L221.65 165.672L220.38 164.582L220.22 164.492L220.08 164.592L219.13 165.932Z" fill="#8C94A2"/>
<path d="M240.82 119.487L240.97 117.877L240.58 116.277L240.7 114.658L240.88 113.017L240.22 111.478L239.92 109.897L239.9 108.247L239.17 106.767L239.2 105.107L238.57 103.618L238.46 103.298L238.33 103.327L236.78 102.987L235.29 102.478L233.71 102.387L232.15 101.987L231.23 101.817L230.52 101.688L228.94 102.158L227.39 102.587L225.73 102.497L224.28 103.317L222.66 103.527L221.26 104.408L219.65 104.677L218.24 105.467L216.82 106.228L215.24 106.658L213.68 107.167L212.27 107.947L210.81 108.637L209.57 109.728L208.09 110.377L206.76 111.298L205.37 112.107L204.12 113.147L202.51 113.607L201.37 114.827L199.75 115.298L198.71 116.667L197.31 117.478L195.81 118.158L194.55 119.188L193.04 119.857L192 121.217L190.56 121.997L189.28 123.007L187.77 123.697L186.44 124.647L185.18 125.688L183.94 126.757L182.47 127.517L181.34 128.738L180.06 129.757L178.73 130.677L178.16 130.917L177.59 131.537L176.15 132.188L176.04 132.217L175.91 132.318L174.92 133.688L173.57 134.598L172.43 135.768L171.17 136.787L169.62 137.408L168.32 138.348L167.35 139.697L165.79 140.337L164.69 141.548L163.74 142.927L162.26 143.677L160.9 144.577L159.96 145.967L158.56 146.827L157.48 148.057L155.98 148.818L154.89 150.048L153.69 151.158L152.41 152.167L151.15 153.197L150.22 154.617L148.71 155.367L147.61 156.587L146.53 157.827L145.29 158.878L143.97 159.837L142.81 160.977L141.57 162.018L140.31 163.037L139 163.988L137.91 165.188L136.77 166.307L136.66 165.967L136.14 164.768L136.65 165.967L137.13 167.438L137.18 167.837L137.42 168.958L137.5 170.318V170.367L137.52 170.557V172.158L137.43 173.757L137.17 175.337L136.87 176.908L136.35 178.427L135.86 179.947L135.37 181.467L134.74 182.938L134.16 184.427L133.49 185.878L132.85 187.348L131.75 188.427L130.56 189.387L129.27 190.217L127.84 190.768L126.4 191.277L124.89 191.518L123.37 191.598L121.84 191.548L121.59 191.488L122.01 190.227L122.45 188.658L123 187.128L123.41 185.548L124.06 184.057L124.48 182.477L125.16 180.988L125.61 179.417L126.01 177.837L126.57 176.307L126.77 175.217L125.58 175.117L124.03 174.727L122.52 174.238L121.09 173.568L119.75 172.738L118.5 171.768L117.45 170.598L116.43 169.397L115.6 168.068L114.84 166.697L114.28 165.318L114.14 165.577L113.68 166.477L113.45 166.927L113 168.378L112.48 169.818L112.33 170.647L112.21 171.318L111.97 172.827L111.87 174.348L111.72 175.867L111.7 177.387L111.78 178.908L111.72 180.527L111.98 182.128L112.46 183.677L113.05 184.988L112.76 185.147L111.24 185.628L109.72 186.137L108.16 186.568L106.56 186.958L104.93 186.348L104.09 186.587L103.3 186.807L101.71 186.427H100.07L98.63 185.477L98.41 185.438L97.75 185.307L97.98 185.477L99.37 186.268L100.9 186.697L102.57 186.667L104.06 187.158L104.14 187.208L103.94 187.628L103.35 189.128L102.96 190.688L102.39 192.188L101.77 193.688L101.51 195.277L101.6 196.908L101.34 198.488L101.02 200.087V201.708L101.29 203.307L101.67 204.878L101.79 206.477L102.03 207.908L102.06 208.068L102.55 209.598L102.95 211.167L103.55 212.667L104.25 214.117L105.02 215.537L106.08 216.768L106.93 218.147L108.03 219.337L109.29 220.327L110.34 221.548L111.73 222.367L111.95 222.568L112.9 223.447L114.13 224.458L115.42 225.397L116.92 226.007L118.22 226.917L119.63 227.647L121.02 228.427L122.44 229.147L123.82 229.947L125.3 230.537L126.57 231.037L126.78 231.117L128.22 231.818L129.7 232.417L131.25 232.798L132.86 232.958L134.32 233.658L135.91 233.848L137.44 234.268L138.99 234.628L140.59 234.677L142.14 235.037L143.73 235.137L145.3 235.367L146.88 235.568L148.45 235.938L150.05 235.887L151.65 235.827L153.24 236.117L154.83 235.988L156.43 236.177L158.02 236.117L159.59 235.628L161.17 235.497L162.75 235.378L164.35 235.417L165.9 235.007L167.51 235.027L169.05 234.587L170.64 234.458L172.23 234.287L173.77 233.857L175.29 233.367L176.82 232.908L178.4 232.637L180 232.387L181.49 231.617L183.03 231.068L184.59 230.568L186.12 229.967L187.43 229.367L187 228.158L186.82 226.548L187 224.938L187.4 223.357L187.93 221.827L188.64 220.378L189.35 218.908L190.15 217.477L191.13 216.247L192.24 215.137L193.4 214.077L194.65 213.128L195.94 212.238L197.5 211.607L199.15 211.348L200.82 211.408L202.39 211.967L203.73 212.947L204.33 213.857L205.36 212.688L206.21 211.318L207.05 209.947L207.59 208.417L208.22 206.947L208.94 205.507L209.53 204.007L209.82 202.417L210.37 200.897L210.71 199.327L210.97 197.738L211.17 196.137L211.21 194.527L211.18 194.158L211.06 192.917L210.87 191.327L210.72 189.738L210.64 188.128L210.23 186.568L210.01 184.977L209.61 183.417L209.56 183.257L209.14 181.887L208.5 180.408L207.93 178.908L207.6 177.307L206.77 175.908L206.22 174.497L205.63 174.438L205.77 174.357L206.99 173.287L208.66 173.068L209.93 172.098L211.32 171.337L212.5 170.238L213.94 169.548L215.2 168.587L216.33 167.447L217.75 166.708L219.18 165.958L220.13 164.617L220.27 164.518L221.41 163.688L222.59 162.637L223.53 161.337L224.86 160.438L225.84 159.188L227.11 158.197L228.3 157.128L229.08 155.717L230.04 154.458L231.13 153.257L232.13 151.977L232.54 150.327L233.54 149.048L234.56 147.747L234.71 146.018L235.61 144.658L236.05 143.098L237.04 141.747L237.48 140.188L237.81 138.598L238.17 137.018L238.99 135.557L239.43 133.997L239.84 132.427L239.77 130.768L239.8 129.137L240.05 127.548L240.72 126.007L240.86 124.397V122.777L241.21 121.177L240.88 119.557L240.82 119.487ZM192.79 125.447L193.93 124.247L195.37 123.417L196.97 122.978L198.63 123.017L200.13 123.707L201.1 125.037L201.3 126.658L200.6 128.128L199.4 129.238L197.94 129.997L196.39 130.438L194.79 130.467L193.32 129.867L192.38 128.577L192.18 126.947L192.78 125.427L192.79 125.447ZM179.63 133.607C180.36 132.937 181.5 132.968 182.18 133.708C182.86 134.438 182.81 135.577 182.08 136.257L181.31 136.967L181.03 137.577L181 138.307L181.23 139.087L181.72 139.787L182.39 140.327L183.25 140.647L184.22 140.777L185.29 140.647L186.42 140.357L188.79 139.257L193.13 136.667L196.18 135.307L198.71 134.837L200.29 134.688L205.49 134.548L207.96 134.217L208.96 133.908L209.91 133.357L210.7 132.757L211.19 132.027L211.52 131.098L211.64 130.287L211.41 129.548L211.02 128.917L210.5 128.617L209.48 128.477C208.49 128.337 207.81 127.427 207.94 126.447C208.08 125.457 208.98 124.778 209.97 124.908L211.68 125.147L213.6 126.257L214.77 128.257L215.32 129.997L214.98 132.137L214.31 133.867L213.12 135.467L211.8 136.447L210.22 137.307L208.56 137.798L206.17 138.107L206.44 139.068L206.56 140.637L206.49 142.208L206.24 143.757L205.74 145.247L205.05 146.658L204.1 147.908L203.01 149.037L201.79 150.037L200.41 150.807L198.93 151.367L197.41 151.757L195.86 151.917L194.31 151.837L192.79 151.518L191.42 150.787L190.24 149.787L189.32 148.537L188.65 147.137L188.26 145.637L188.12 144.098L188.18 143.518L187.46 143.848L185.86 144.247L184.22 144.458L182.19 144.147L180.36 143.367L178.91 142.107L177.87 140.447L177.38 138.827L177.46 136.757L178.35 134.848L179.63 133.658V133.607ZM196.95 199.857L196.69 201.397L196.34 202.927L195.63 204.337L194.77 205.647L193.8 206.878L192.74 208.037L191.52 209.027L190.25 209.958L188.87 210.708L187.47 211.427L185.98 211.927L184.48 212.378L182.95 212.747L181.4 213.048L179.83 213.147L178.26 213.107L176.7 212.908L175.15 212.667L173.65 212.227L172.17 211.697L170.82 210.897L169.48 210.077L168.39 208.947L167.44 207.708L166.61 206.378L166.07 204.897L165.83 203.348L165.86 201.787L166.08 200.238L166.48 198.717L167.19 197.318L168.07 196.018L169.03 194.777L170.12 193.658L171.28 192.598L172.59 191.738L173.9 190.867L175.36 190.277L176.8 189.667L178.3 189.188L179.83 188.837L181.39 188.587L182.96 188.467L184.53 188.507L186.09 188.667L187.64 188.938L189.14 189.387L190.58 190.007L192.01 190.658L193.28 191.587L194.42 192.667L195.37 193.917L196.23 195.238L196.74 196.727L196.98 198.277L196.95 199.837V199.857ZM200.09 178.307L198.66 179.087L195.61 180.527L194.01 181.167L191.14 182.518L189.47 183.137L187.76 183.617L186.37 184.137L183.09 185.057L181.4 185.427L179.81 185.947L178.22 186.268L176.43 186.458L169.8 187.408H168.16L166.59 187.548L164.86 187.507L163.3 187.537L158.01 187.188L156.4 186.857C155.43 186.658 154.8 185.697 155 184.727C155.2 183.747 156.14 183.128 157.13 183.327L158.63 183.637L160.16 183.768L161.67 183.798L163.42 183.947L164.87 183.917L166.47 183.958L168 183.827H169.67L178.99 182.458L180.45 181.977L185.25 180.727L186.65 180.208L188.36 179.727L189.76 179.208L197.02 175.897L198.35 175.167C199.22 174.687 200.32 175.007 200.8 175.878C201.28 176.748 200.96 177.847 200.09 178.327V178.307ZM224.11 115.327L222.86 116.167L222.06 116.597L221.53 116.877L220.14 117.457L219.45 117.757L218.76 118.057L218.17 118.287L217.2 118.667L216.04 119.087L215.62 119.237L214.03 119.737L212.4 120.097L210.74 120.298L209.13 119.908L208.01 118.717L207.96 117.217L208.82 115.967L210.1 115.097L211.48 114.417L212.87 113.747L214.31 113.197L215.73 112.587L217.18 112.037L218.6 111.427L220.04 110.887L221.51 110.457L223.01 110.118L224.51 110.357L225.48 111.487L225.74 112.938L225.14 114.277L224.1 115.347L224.11 115.327Z" fill="#A3A9B7"/>
<path d="M193.32 129.877L194.79 130.477L196.39 130.447L197.94 130.007L199.4 129.247L200.6 128.127L201.3 126.657L201.09 125.047L200.12 123.707L198.63 123.017L196.97 122.977L195.36 123.417L193.92 124.247L192.79 125.447L192.18 126.967L192.38 128.597L193.32 129.877Z" fill="#FF4156"/>
<path d="M177.38 138.782L177.87 140.402L178.91 142.062L180.36 143.322L182.19 144.102L184.22 144.412L185.86 144.202L187.46 143.802L188.18 143.472L188.12 144.052L188.26 145.592L188.65 147.092L189.32 148.492L190.24 149.742L191.42 150.742L192.79 151.472L194.31 151.792L195.86 151.872L197.41 151.712L198.93 151.322L200.41 150.762L201.79 149.992L203.01 148.992L204.1 147.862L205.05 146.612L205.74 145.202L206.24 143.712L206.49 142.162L206.56 140.592L206.44 139.022L206.17 138.062L208.56 137.752L210.22 137.262L211.8 136.402L213.12 135.422L214.31 133.822L214.98 132.092L215.32 129.952L214.77 128.212L213.6 126.212L211.68 125.102L209.97 124.862C208.97 124.722 208.07 125.412 207.94 126.402C207.8 127.392 208.49 128.302 209.48 128.432L210.5 128.572L211.02 128.872L211.41 129.502L211.64 130.242L211.52 131.052L211.19 131.982L210.7 132.712L209.91 133.312L208.96 133.862L207.96 134.172L205.49 134.502L200.29 134.642L198.71 134.792L196.18 135.262L193.13 136.622L188.79 139.212L186.42 140.312L185.29 140.602L184.22 140.732L183.25 140.602L182.39 140.282L181.72 139.742L181.23 139.042L181 138.262L181.03 137.532L181.31 136.922L182.08 136.212C182.81 135.532 182.85 134.392 182.18 133.662C181.5 132.932 180.36 132.892 179.63 133.562L178.35 134.752L177.46 136.662L177.38 138.732V138.782Z" fill="#7C818E"/>
<path d="M177.18 131.308L176.04 132.208L176.15 132.178L177.59 131.528L178.16 130.898L177.18 131.308Z" fill="white"/>
<path d="M225.75 112.912L225.49 111.462L224.52 110.342L223.02 110.102L221.52 110.442L220.05 110.882L218.61 111.412L217.19 112.022L215.74 112.572L214.32 113.182L212.88 113.732L211.49 114.412L210.11 115.082L208.82 115.952L207.96 117.202L208.01 118.702L209.13 119.902L210.74 120.292L212.4 120.092L214.03 119.732L215.62 119.232L216.04 119.082L215.62 119.232L214.37 119.632L213.97 119.412L212.86 118.212L212.16 116.742L211.81 115.122L211.83 114.242L212.88 113.732L214.32 113.182L215.74 112.572L217.19 112.022L218.61 111.412L220.05 110.882L220.72 110.682L221.61 111.792L222.29 113.302L222.66 114.892L222.54 116.332L222.06 116.592L222.86 116.162L224.11 115.332L225.15 114.262L225.75 112.912Z" fill="white"/>
<path d="M218.17 118.28L218.76 118.05L219.45 117.75L218.76 118.05L218.17 118.28Z" fill="white"/>
<path d="M222.66 114.89L222.29 113.3L221.61 111.79L220.72 110.68L220.05 110.88L218.61 111.41L217.19 112.02L215.74 112.57L214.32 113.18L212.88 113.73L211.83 114.24L211.81 115.12L212.16 116.74L212.86 118.21L213.97 119.41L214.37 119.63L215.62 119.23L216.04 119.08L217.19 118.66L218.17 118.28L218.76 118.05L219.45 117.75L220.14 117.45L221.53 116.87L222.06 116.59L222.54 116.33L222.66 114.89Z" fill="#494949"/>
<path d="M154.46 46.89L156.05 46.57L157.69 46.74L159.31 46.68L160.91 46.4L162.53 46.03L164.15 46.46L165.77 46.07L167.4 46.16L169.02 46.27L170.63 46.44L172.21 46.99L173.85 46.85L175.42 47.33L176.54 47.15L176.47 46.1L176.5 44.51L176.57 42.91L176.82 41.33L176.9 39.72L177.4 38.19L177.67 36.61L178.24 35.11L178.68 33.57L179.3 32.09L180.09 30.69L180.7 29.21L181.55 27.86L182.43 26.52L183.43 25.27L184.52 24.1L185.64 22.96L186.91 22L188.15 20.99L189.5 20.16L190.78 19.19L192.22 18.49L193.68 17.83L195.17 17.26L196.69 16.77L198.25 16.43L199.83 16.19L201.42 16.05L203.01 15.87L204.6 15.96L206.19 16.04L207.75 16.39L209.31 16.71L210.85 17.1L212.31 17.73L213.84 18.22L215.22 19.02L216.5 19.98L217.81 20.88L219.08 21.85L220.22 22.98L221.15 24.3L222.18 25.53L223.18 26.81L223.84 28.28L224.61 29.7L225.12 31.23L225.57 32.77L226.01 34.31L226.35 35.89L226.41 37.5L226.51 39.1L226.65 40.71L226.43 42.3L226.32 43.91L226.2 45.51L225.87 47.09L225.49 48.66L224.96 50.18L224.55 51.73L223.99 53.23L223.36 54.71L222.72 56.18L221.95 57.59L221.14 58.98L220.37 60.4L219.4 61.68L218.36 62.9L217.31 64.1L216.28 65.16L216.35 65.23L217.09 65.97L217.49 66.37L218.72 67.43L219.76 68.68L220.67 70.04L221.19 70.47L221.94 69.46L223.13 68.4L224.13 67.17L224.94 65.8L226.05 64.65L226.83 63.27L227.69 61.94L228.52 60.6L229.26 59.2L229.99 57.8L230.53 56.31L231.16 54.86L231.68 53.37L232.29 51.9L232.5 50.32L232.9 48.79L233.42 47.28L233.63 45.71L233.73 44.13L233.91 42.56L233.85 40.98L233.88 39.4L233.8 37.83L233.89 36.24L233.77 34.66L233.36 33.12L233.21 31.53L232.7 30.03L232.28 28.5L231.89 26.96L231.1 25.57L230.39 24.11L229.95 22.52L229.07 21.16L228.14 19.82L227.37 18.4L226.43 17.08L225.38 15.85L224.32 14.62L223.26 13.4L222.19 12.18L220.96 11.13L219.66 10.16L218.48 9.04L217.24 8L215.83 7.19L214.49 6.29L213.13 5.39L211.63 4.76L210.23 3.92L208.73 3.3L207.18 2.83L205.68 2.22L204.13 1.74L202.51 1.53L200.98 0.92L199.38 0.7L197.76 0.55L196.17 0.24L194.55 0.21L192.93 0L191.31 0.05L189.69 0.11L188.07 0.15L186.46 0.33L184.86 0.64L183.29 1.02L181.71 1.37L180.12 1.6L178.65 2.26L177.15 2.78L175.66 3.34L174.11 3.79L172.7 4.54L171.33 5.35L169.91 6.09L168.59 6.99L167.33 7.96L165.94 8.76L164.67 9.73L163.53 10.85L162.27 11.84L161.21 13.03L160.11 14.19L159.26 15.56L158.28 16.81L157.27 18.04L156.42 19.39L155.65 20.79L154.75 22.12L154.1 23.59L153.63 25.12L153.2 26.66L152.61 28.14L152.29 29.7L152 31.27L151.69 32.83L151.49 34.41L151.47 36L151.35 37.59L151.19 39.18L151.4 40.77L151.29 42.38L151.54 43.97L152.01 45.52L152.25 46.96L152.84 47L154.46 46.89Z" fill="#A3A9B7"/>
<path d="M208.77 59.1272L209.88 60.3872L211.2 61.3072L212.71 62.0072L213.71 63.3372L215.15 64.1372L216.28 65.1572L217.31 64.0972L218.36 62.8972L219.4 61.6772L220.37 60.3972L221.14 58.9772L221.95 57.5872L222.72 56.1772L223.36 54.7072L223.99 53.2272L224.55 51.7272L224.96 50.1772L225.49 48.6572L225.87 47.0872L226.2 45.5072L226.32 43.9072L226.43 42.2972L226.65 40.7072L226.51 39.0972L226.41 37.4972L226.35 35.8872L226.01 34.3072L225.57 32.7672L225.12 31.2272L224.61 29.6972L223.84 28.2772L223.18 26.8072L222.18 25.5272L221.15 24.2972L220.22 22.9772L219.08 21.8472L217.81 20.8772L216.5 19.9772L215.22 19.0172L213.84 18.2172L212.31 17.7272L210.85 17.0972L209.31 16.7072L207.75 16.3872L206.19 16.0372L204.6 15.9572L203.01 15.8672L201.42 16.0472L199.83 16.1872L198.25 16.4272L196.69 16.7672L195.17 17.2572L193.68 17.8272L192.22 18.4872L190.78 19.1872L189.5 20.1572L188.15 20.9872L186.91 21.9972L185.64 22.9572L184.52 24.0972L183.43 25.2672L182.43 26.5172L181.55 27.8572L180.7 29.2072L180.09 30.6872L179.3 32.0872L178.68 33.5672L178.24 35.1072L177.67 36.6072L177.4 38.1872L176.9 39.7172L176.82 41.3272L176.57 42.9072L176.5 44.5072L176.47 46.0972L176.54 47.1472L177.09 47.0572L178.71 47.2372L180.29 47.6572L181.84 48.1472L183.41 48.5472L184.91 49.2472L186.53 49.4372L188.19 49.5472L189.75 50.0072L191.11 51.0572L192.61 51.6572L194.2 52.0272L195.69 52.6572L197.11 53.4372L198.81 53.6272L200.05 54.7872L201.61 55.2972L203.02 56.0972L204.35 57.0272L205.85 57.6772L207.26 58.4572H207.27L208.77 59.1272Z" fill="#7C818E"/>
<path d="M202.34 211.958L200.77 211.388L199.1 211.328L197.45 211.598L195.89 212.228L194.6 213.118L193.35 214.068L192.2 215.128L191.08 216.238L190.1 217.458L189.3 218.888L188.6 220.358L187.89 221.808L187.36 223.338L186.96 224.918L186.78 226.528L186.96 228.138L187.39 229.348L187.5 229.658L188.51 230.918L189.79 231.908L191.56 232.438L193.39 232.218L195.17 231.678L196.51 230.958L197.77 230.138L199.01 229.258L200.14 228.248L201.17 227.128L202.08 225.918L202.88 224.638L203.71 223.018L204.37 221.318L204.86 219.568L205.05 217.838L205.06 216.098L204.64 214.398L204.28 213.848L203.68 212.938L202.34 211.958Z" fill="#7C818E"/>
<path d="M25.47 108.799L25.84 110.379L26.52 111.839L27.19 113.299L28.26 114.529L28.91 115.989L29.67 117.399L30.83 118.519L31.78 119.789L32.85 120.959L33.84 122.209L35.01 123.289L36.35 124.169L37.56 125.189L38.71 126.289L40.06 127.129L41.3 128.129L42.52 129.169L44.04 129.729L45.27 130.769L46.82 131.239L48.16 132.109L49.61 132.759L50.98 133.569L52.57 133.899L54.03 134.509L55.53 134.999L57.01 135.589L58.54 135.999L60.06 136.479L61.68 136.489L63.21 136.909L64.76 137.319L65.69 137.399L65.7 137.269L65.62 135.679L65.87 134.089L65.72 132.489L66.3 130.929L66.36 129.349L66.65 127.789L66.68 126.189L67.09 124.649L67.21 123.709L66.56 123.499L65.11 122.879L63.62 122.309L62.24 121.519L60.85 120.749L59.46 119.979L58.27 118.899L56.91 118.069L55.83 116.889L54.71 115.759L53.6 114.629L52.38 113.579L51.55 112.219L50.47 111.029L49.61 109.689L48.89 108.269L48.12 106.879L47.49 105.419L46.79 103.999L46.28 102.489L45.69 101.019L45.25 99.4887L44.81 97.9587L44.68 96.3688L44.31 94.8187L44.08 93.2387L44.21 91.6488L44.2 90.0587L44.21 88.4788L44.41 86.8988L44.48 85.3087L44.75 83.7288L45.18 82.1987L45.63 80.6687L46.17 79.1687L46.92 77.7588L47.51 76.2687L48.49 74.9788L49.32 73.6087L50.12 72.2087L51.04 70.8887L51.95 69.5488L53.13 68.4388L54.25 67.2887L55.41 66.1787L56.62 65.1188L57.86 64.0987L59.08 63.0387L60.48 62.2388L61.9 61.4888L63.3 60.7087L64.64 59.7987L66.17 59.2687L67.65 58.6287L69.19 58.1887L70.72 57.6887L72.27 57.2687L73.86 57.0387L75.45 56.8187L77.04 56.4888L78.64 56.4087L80.25 56.4587L81.87 56.4187L83.46 56.6587L85.06 56.8387L86.62 57.1987L88.17 57.6287L89.78 57.8288L91.24 58.5287L92.82 58.9187L94.23 59.6987L95.66 60.4287L97.03 61.2587L98.45 62.0287L99.77 62.9487L100.97 64.0187L102.15 65.1087L103.36 66.1687L104.03 66.9487L104.04 66.9287L105.38 66.0187L106.7 65.0887L107.89 63.9688L109.55 63.5387L110.73 62.4087L111.17 62.2487L110.97 61.9187L110.22 60.5087L109.47 59.0987L108.75 57.6587L107.84 56.3288L106.73 55.1587L105.75 53.8988L104.8 52.6087L103.77 51.3687L102.64 50.2388L101.34 49.2787L100.36 47.9688L99.06 47.0287L97.86 45.9487L96.47 45.1287L95.04 44.3988L93.74 43.4487L92.29 42.7787L90.84 42.1087L89.54 41.0887L88.02 40.5588L86.42 40.2787L84.95 39.5987L83.38 39.3088L81.81 38.9587L80.28 38.4587L78.69 38.2687L77.1 38.0187L75.49 38.1488L73.9 37.7188L72.29 37.8887L70.68 37.7987L69.08 37.9287L67.5 38.2887L65.92 38.5387L64.3 38.5588L62.73 38.9087L61.19 39.3288L59.64 39.7388L58.06 40.0487L56.53 40.5287L55.14 41.3787L53.59 41.8187L52.18 42.5887L50.7 43.2087L49.31 43.9987L47.84 44.6488L46.47 45.4888L45.26 46.5588L43.81 47.2687L42.7 48.4688L41.44 49.4487L40.26 50.5287L39.14 51.6687L37.81 52.5887L36.71 53.7587L35.82 55.0987L34.77 56.3088L33.53 57.3587L32.77 58.7887L31.74 60.0287L30.98 61.4387L29.92 62.6687L29.41 64.2188L28.39 65.4788L27.76 66.9587L26.9 68.3288L26.39 69.8487L25.73 71.3087L25.39 72.8887L24.76 74.3688L24.31 75.8988L23.92 77.4487L23.5 78.9987L22.96 80.5187V82.1387L22.45 83.6787L22.3 85.2787L22.14 86.8688L22.23 88.4788L21.87 90.0687L22.07 91.6687L22.16 93.2687L22.3 94.8587L22.32 96.4587L22.67 98.0287L22.72 99.6387L22.87 101.239L23.4 102.759L23.96 104.269L24.07 105.899L24.59 106.739L24.94 107.299L25.47 108.799Z" fill="#A3A9B7"/>
<path d="M67.23 121.436L67.56 119.866L67.82 118.286L68.72 116.886L69.29 115.396L69.44 113.776L69.68 112.176L70.55 110.786L71.13 109.306L71.54 107.756L72.18 106.286L73.1 104.956L73.59 103.426L74.31 102.006L75.4 100.776L75.69 99.1163L76.44 97.7062L77.36 96.3963L78.16 95.0162L79.11 93.7362L80.32 92.6262L80.7 90.9562L82 89.9263L82.64 88.4162L83.86 87.3362L84.79 86.0463L85.74 84.7662L86.76 83.5363L87.65 82.1962L88.95 81.2163L89.75 79.7963L90.98 78.7563L92.34 77.8663L93.27 76.5363L94.34 75.3563L95.54 74.3062L96.57 73.0662L98.14 72.4363L99.37 71.4263L100.46 70.2163L101.65 69.1262L103.1 68.3563L104.03 66.9462L103.36 66.1662L102.15 65.1063L100.97 64.0162L99.77 62.9463L98.45 62.0262L97.03 61.2562L95.66 60.4263L94.23 59.6963L92.82 58.9162L91.24 58.5262L89.78 57.8263L88.17 57.6263L86.62 57.1963L85.06 56.8363L83.46 56.6562L81.87 56.4162L80.25 56.4562L78.64 56.4062L77.04 56.4863L75.45 56.8162L73.86 57.0363L72.27 57.2663L70.72 57.6862L69.19 58.1862L67.65 58.6263L66.17 59.2663L64.64 59.7962L63.3 60.7062L61.9 61.4863L60.48 62.2363L59.08 63.0363L57.86 64.0962L56.62 65.1163L55.41 66.1763L54.25 67.2863L53.13 68.4363L51.95 69.5463L51.04 70.8862L50.12 72.2062L49.32 73.6063L48.49 74.9763L47.51 76.2662L46.92 77.7563L46.17 79.1662L45.63 80.6662L45.18 82.1962L44.75 83.7263L44.48 85.3062L44.41 86.8963L44.21 88.4763L44.2 90.0562L44.21 91.6463L44.08 93.2362L44.31 94.8162L44.68 96.3663L44.81 97.9562L45.25 99.4862L45.69 101.016L46.28 102.486L46.79 103.996L47.49 105.416L48.12 106.876L48.89 108.266L49.61 109.686L50.47 111.026L51.55 112.216L52.38 113.576L53.6 114.626L54.71 115.756L55.83 116.886L56.91 118.066L58.27 118.896L59.46 119.976L60.85 120.746L62.24 121.516L63.62 122.306L65.11 122.876L66.56 123.496L67.21 123.706L67.29 123.066L67.23 121.436Z" fill="#7C818E"/>
<path d="M200.8 175.863C200.32 174.993 199.23 174.673 198.35 175.153L197.02 175.883L189.76 179.193L188.36 179.713L186.65 180.193L185.25 180.713L180.45 181.963L178.99 182.443L169.67 183.813H168L166.47 183.953L164.87 183.913L163.42 183.943L161.67 183.793L160.16 183.763L158.63 183.633L157.13 183.323C156.14 183.113 155.2 183.743 155 184.723C154.8 185.703 155.42 186.653 156.4 186.853L158.01 187.183L163.3 187.533L164.86 187.503L166.59 187.543L168.16 187.393H169.8L176.43 186.443L178.22 186.253L179.81 185.933L181.4 185.413L183.09 185.043L186.37 184.123L187.76 183.603L189.47 183.123L191.14 182.503L194.01 181.153L195.61 180.513L198.66 179.073L200.09 178.293C200.96 177.813 201.28 176.723 200.8 175.843V175.863Z" fill="#7C818E"/>
<path d="M196.24 195.252L195.38 193.942L194.43 192.692L193.3 191.612L192.03 190.682L190.6 190.032L189.16 189.412L187.66 188.962L186.11 188.692L184.55 188.532L182.97 188.492L181.4 188.612L179.85 188.862L178.31 189.212L176.82 189.692L175.37 190.302L173.91 190.902L172.6 191.762L171.29 192.632L170.12 193.682L169.03 194.802L168.07 196.042L167.2 197.342L166.48 198.742L166.08 200.262L165.87 201.812L165.84 203.372L166.08 204.922L166.62 206.392L167.45 207.722L168.41 208.952L169.5 210.082L170.84 210.902L172.19 211.702L173.67 212.232L175.17 212.672L176.72 212.922L178.28 213.112L179.85 213.152L181.42 213.062L182.96 212.752L184.49 212.382L185.99 211.932L187.48 211.432L188.88 210.712L190.26 209.962L191.53 209.032L192.75 208.032L193.81 206.882L194.78 205.642L195.64 204.332L196.35 202.922L196.7 201.392L196.95 199.862L196.99 198.292L196.75 196.752L196.24 195.252Z" fill="#7C818E"/>
<path d="M239.56 99.25L239.7 99.57L239.56 99.25Z" fill="#000912"/>
<path d="M83.82 177.867L84.45 178.187L83.82 177.867Z" fill="#000912"/>
<path d="M231.09 99.7762L230.95 98.1662L230.58 96.5962L230.53 94.9562L230.31 94.4462L229.54 93.9162L227.88 93.8262L226.38 93.1962L224.77 92.9762L223.18 92.7262L221.58 92.5562L220.01 92.1562L218.42 91.8462L216.79 92.0162L215.19 91.6462L213.57 91.4062L211.96 91.8362L210.34 91.8062L208.73 91.8562L207.11 91.9362L205.53 92.2762L203.95 92.6162L202.33 92.6762L200.74 92.9462L199.19 93.4462L197.52 93.3662L195.95 93.7662L194.34 94.0162L192.91 94.9062L191.33 95.2562L189.85 95.9062L188.22 96.1462L186.73 96.7662L185.19 97.2462L183.78 98.0962L182.25 98.6062L180.77 99.2462L179.22 99.7462L177.7 100.316L176.29 101.096L174.82 101.796L173.44 102.636L172.03 103.426L170.75 104.426L169.46 105.406L167.82 105.816L166.56 106.846L165.26 107.796L164.13 108.986L162.69 109.766L161.2 110.496L160.06 111.676L158.6 112.456L157.58 113.786L156.22 114.706L155.18 115.986L153.9 116.986L152.53 117.896L151.22 118.876L150.32 120.296L149.16 121.436L148.09 122.666L146.57 123.436L145.59 124.766L144.59 126.056L143.21 126.996L142.22 128.296L141.15 129.516L140.26 130.906L139.19 132.126L138.15 133.376L136.7 134.286L135.86 135.696L135.12 137.186L133.95 138.336L133.01 139.666L131.7 140.716L131.13 142.316L129.85 143.396L128.96 144.756L128.29 146.276L126.94 147.266L126.33 148.776L125.29 149.986L124.32 151.256L123.59 152.676L122.85 154.096L121.66 155.206L120.84 156.176L120.96 158.566L120.97 158.646L122.05 158.166L123.23 157.806L123.47 157.726L123.99 157.666L125.03 157.546L126.57 157.456L128.09 157.746L129.55 158.236L130.71 158.796L130.94 158.906L131.09 159.006L132.25 159.726L133.39 160.776L134.17 161.676L134.42 161.936L135.32 163.186L135.97 164.436L136.04 164.556L136.13 164.776L136.64 165.976L136.76 166.326L137.9 165.206L138.99 164.006L140.3 163.046L141.56 162.036L142.8 160.986L143.96 159.846L145.28 158.886L146.53 157.836L147.61 156.596L148.71 155.376L150.22 154.626L151.14 153.206L152.41 152.176L153.69 151.156L154.89 150.056L155.98 148.826L157.48 148.066L158.56 146.836L159.96 145.976L160.9 144.576L162.26 143.686L163.73 142.926L164.68 141.546L165.79 140.336L167.35 139.696L168.32 138.346L169.63 137.396L171.17 136.786L172.43 135.756L173.58 134.596L174.93 133.686L175.91 132.306L176.04 132.206L177.18 131.306L178.16 130.896L178.73 130.666L180.07 129.746L181.34 128.726L182.47 127.506L183.94 126.746L185.18 125.666L186.44 124.636L187.77 123.686L189.28 122.996L190.56 121.986L192 121.206L193.03 119.846L194.54 119.186L195.8 118.156L197.3 117.476L198.7 116.656L199.74 115.286L201.36 114.816L202.5 113.596L204.12 113.136L205.37 112.096L206.76 111.286L208.09 110.366L209.57 109.716L210.81 108.626L212.27 107.936L213.68 107.156L215.25 106.646L216.83 106.226L218.26 105.456L219.67 104.666L221.28 104.406L222.68 103.526L224.3 103.316L225.75 102.496L227.41 102.586L228.96 102.156L230.54 101.686L231.24 101.816L231.21 101.386L231.09 99.7762Z" fill="#000912"/>
<path d="M217.85 72.6303L216.47 71.7703L214.87 71.5203L213.5 70.5803L211.96 70.1403L210.35 69.9503L208.82 69.5003L207.28 69.0803L205.68 68.9303L204.09 68.7703L202.59 68.0303L201.01 67.7903L199.36 68.0803L197.78 67.9003L196.21 67.5103L194.63 67.2303L193.02 67.5003H191.43L189.84 67.3603L188.24 67.0903L186.64 67.0703L185.06 67.4803L183.45 67.2003L181.89 67.7003L180.27 67.4103L178.7 67.7803L177.1 67.8203L175.54 68.1803L173.93 68.1203L172.37 68.5303L170.85 69.0703L169.24 69.1303L167.64 69.2303L166.11 69.7203L164.55 70.0603L162.94 70.1603L161.46 70.8303L159.88 71.0903L158.46 71.8803L156.79 71.8303L155.31 72.4203L153.88 73.1303L152.37 73.6303L150.79 73.9303L149.27 74.4003L147.8 75.0203L146.41 75.8103L145.12 76.8203L143.65 77.4103L142.21 78.0703L140.82 78.8203L139.26 79.2603L137.85 79.9903L136.45 80.7303L135.07 81.5303L133.69 82.3103L132.43 83.2803L130.98 83.9603L129.66 84.8403L128.58 86.0703L127.27 86.9603L125.66 87.4603L124.63 88.7303L123.49 89.8303L122.19 90.7503L120.92 91.7003L119.6 92.6003L118.45 93.6903L117.32 94.8103L115.98 95.7003L114.86 96.8303L113.91 98.1303L113.03 99.4803L111.94 100.62L110.89 101.81L109.72 102.89L108.63 104.06L107.78 105.41L106.64 106.54L105.91 107.97L104.87 109.18L104 110.51L102.84 111.64L101.91 112.93L101.18 114.35L100.37 115.72L99.6 117.11L99.04 118.62L98.02 119.88L97.47 121.38L96.84 122.84L95.76 124.09L95.37 125.66L94.84 127.16L94.26 128.64L93.53 130.05L92.99 131.54L92.1 132.9L91.75 134.47L91.17 135.95L90.59 137.43L90.24 138.99L89.73 140.5L89.3 142.03L88.61 143.49L88.46 144.13L89.18 145.37L90.11 146.68L91.3 147.78L92.12 149.19L93.23 150.35L94.31 151.53L95.46 152.64L96.56 153.8L97.78 154.85L98.94 155.94L100.13 157.02L101.34 158.06L102.45 159.23L103.84 160.05L105.11 161.04L106.26 162.19L106.84 162.41L106.92 162.29L107.39 160.74L108.15 159.31L108.86 157.86L109.78 156.52L109.91 154.8L111.05 153.56L111.36 151.92L112.41 150.65L113.26 149.27L113.74 147.71L114.71 146.4L115.26 144.87L116.04 143.46L117.08 142.2L117.73 140.72L118.65 139.39L119.35 137.94L119.88 136.37L121.2 135.3L121.66 133.68L122.7 132.43L123.41 130.97L124.48 129.75L125.25 128.32L126.18 127L127.43 125.93L128.36 124.61L129.29 123.3L130.38 122.1L131.36 120.83L132.37 119.58L133.54 118.46L134.43 117.1L135.75 116.12L136.84 114.94L137.91 113.75L139.02 112.59L139.87 111.17L141.3 110.33L142.41 109.17L143.62 108.11L144.83 107.05L145.7 105.61L147.16 104.83L148.33 103.73L149.68 102.85L150.94 101.84L152.13 100.75L153.47 99.8503L154.91 99.1203L156.27 98.2503L157.51 97.2103L158.73 96.1303L160.33 95.6603L161.61 94.6803L163.1 94.0403L164.34 92.9603L165.72 92.1003L167.29 91.6603L168.78 91.0403L170.2 90.2603L171.72 89.7303L173.08 88.7803L174.71 88.5403L176.16 87.7903L177.63 87.1103L179.25 86.8603L180.84 86.5603L182.34 85.9303L183.94 85.6603L185.5 85.2603L187.13 85.1903L188.66 84.6503L190.18 84.0103L191.83 84.1203L193.36 83.5703L194.94 83.3103L196.54 83.1703L198.13 83.0403L199.72 82.8903L201.33 83.0103L202.92 82.9303L204.52 83.2903L206.11 83.0903L207.71 82.9103L209.31 82.9603L210.88 83.4403L212.45 83.6603L214.08 83.3803L215.67 83.4803L217.22 83.9103L218.84 83.8803L220.37 84.4103L221.89 84.9303L223.47 85.1403L225.04 85.4203L226.62 85.6603L227.32 85.9603L227.26 85.8403L226.68 84.3303L225.9 82.9203L225.19 81.4703L224.46 80.0303L223.76 78.5603L222.9 77.1903L221.99 75.8503L221.13 74.4903L220.62 73.7503L219.33 73.2003L217.85 72.6303Z" fill="#000912"/>
<path d="M98.39 185.416L97.03 185.156L97.73 185.286L98.39 185.416Z" fill="#000912"/>
<path d="M217.09 65.9666L216.35 65.2266L217.09 65.9666Z" fill="#000912"/>
<path d="M109.55 63.5413L107.89 63.9713L106.7 65.0912L105.38 66.0212L104.04 66.9313L104.03 66.9512L103.1 68.3613L101.65 69.1312L100.46 70.2213L99.37 71.4313L98.14 72.4413L96.57 73.0713L95.54 74.3112L94.34 75.3613L93.27 76.5413L92.34 77.8713L90.98 78.7613L89.75 79.8013L88.95 81.2213L87.65 82.2012L86.76 83.5413L85.74 84.7712L84.79 86.0513L83.86 87.3412L82.64 88.4212L82 89.9313L80.7 90.9613L80.32 92.6312L79.11 93.7412L78.16 95.0212L77.36 96.4013L76.44 97.7113L75.69 99.1213L75.4 100.781L74.31 102.011L73.59 103.431L73.1 104.961L72.18 106.291L72.61 105.681L72.68 105.881L72.87 107.471L73.12 109.041L73.31 110.631L73.96 112.121L74.31 113.671L74.64 115.241L75.17 116.751L75.68 118.261L75.87 119.881L76.68 121.291L77.15 122.821L77.51 124.401L78.2 125.851L78.76 127.361L79.4 128.831L80.25 130.201L80.79 131.351L80.82 131.221L81.27 129.691L81.97 128.231L82.19 126.621L83.01 125.211L83.18 123.571L84 122.171L84.64 120.701L85.15 119.191L85.71 117.701L86.36 116.231L87.06 114.801L87.69 113.331L88.22 111.811L89.18 110.501L89.52 108.871L90.79 107.741L91.13 106.091L91.95 104.711L93.13 103.561L93.87 102.131L94.89 100.891L95.73 99.5312L96.67 98.2313L97.43 96.8013L98.75 95.8013L99.57 94.4113L100.53 93.1113L101.91 92.2012L102.98 91.0212L104 89.7812L105.11 88.6312L106.01 87.2613L107.26 86.2513L108.48 85.2113L109.71 84.2012L110.9 83.1312L112.1 82.0713L113.32 81.0413L114.63 80.1213L115.85 79.0912L117.11 78.1113L118.34 77.0813L119.58 76.0612L120.85 75.0912L122.14 74.1413L123.62 73.4813L125.01 72.6813L126.4 71.8913L127.85 71.2113L128.99 70.0013L130.58 69.5612L131.9 68.6513L133.41 68.0912L134.67 67.0312L136.27 66.6712L137.7 65.9713L139.13 65.2513L140.59 64.6113L141.92 63.6513L143.44 63.1313L144.94 62.5713L146.5 62.1813L147.97 61.5413L149.51 61.0813L151.05 60.6413L152.54 60.1012L154.08 59.6613L155.77 59.8813L157.25 59.1712L158.82 58.8613L160.42 58.7413L161.95 58.2113L163.6 58.4212L165.17 58.1613L166.75 57.8512L168.33 57.6413L169.93 57.5112L171.54 57.6413L173.13 57.5213L174.73 57.5413L176.33 57.1213L177.93 57.5013L179.53 57.3413L181.12 57.5913L182.73 57.3213L184.31 57.6813L185.91 57.7713L187.52 57.7913L189.06 58.3613H190.67L192.27 58.4613L193.79 59.0513L195.44 58.9113L196.97 59.4212L198.54 59.7113L200.11 60.0513L201.7 60.2812L203.2 60.8512L204.76 61.2113L206.3 61.6313L207.8 62.1912L209.21 63.0013L210.78 63.3313L212.13 63.5013L211.91 63.3113L210.79 62.1413L209.78 60.8713L208.68 59.7013L207.45 58.6413L207.26 58.4613L205.85 57.6813L204.35 57.0312L203.02 56.1012L201.61 55.3013L200.05 54.7913L198.81 53.6313L197.11 53.4412L195.69 52.6613L194.2 52.0312L192.61 51.6613L191.11 51.0613L189.75 50.0112L188.19 49.5513L186.53 49.4412L184.91 49.2513L183.41 48.5513L181.84 48.1513L180.29 47.6613L178.71 47.2413L177.09 47.0613L176.54 47.1513L175.42 47.3313L173.85 46.8512L172.21 46.9913L170.63 46.4412L169.02 46.2713L167.4 46.1613L165.77 46.0713L164.15 46.4613L162.53 46.0312L160.91 46.4013L159.31 46.6813L157.69 46.7413L156.05 46.5713L154.46 46.8913L152.84 47.0013L152.25 46.9613L151.19 46.8913L149.65 47.5613L148.08 47.9513L146.43 47.8913L144.9 48.4513L143.21 48.3013L141.71 48.9813L140.09 49.1712L138.62 49.9412L136.99 50.1213L135.49 50.7513L133.94 51.2013L132.36 51.5813L130.94 52.3913L129.49 53.1313L127.88 53.4313L126.32 53.9013L124.82 54.5013L123.5 55.5013L121.86 55.8113L120.46 56.6313L119.08 57.5013L117.55 58.0513L116.15 58.8713L114.98 60.0813L113.36 60.5112L112.28 61.8413L111.17 62.2513L110.73 62.4113L109.55 63.5413Z" fill="#000912"/>
<path d="M83.82 177.867L82.98 177.438L83.82 177.867Z" fill="white"/>
<path d="M217.09 65.9688L217.49 66.3688L217.09 65.9688Z" fill="white"/>
<path d="M221.19 70.4691L221.92 71.0791L221.19 70.4691L220.67 70.0391L221.19 70.4691Z" fill="white"/>
<path d="M80.93 131.647L81.62 133.097L82.29 134.547L82.97 136.007L84 137.267L84.68 138.727L85.6 140.047L86.42 141.427L87.32 142.747L88.37 143.977L88.46 144.127L88.61 143.487L89.3 142.027L89.73 140.497L90.24 138.987L90.59 137.427L91.17 135.947L91.75 134.467L92.1 132.897L92.99 131.537L93.53 130.047L94.26 128.637L94.84 127.157L95.37 125.657L95.76 124.087L96.84 122.837L97.47 121.377L98.02 119.877L99.04 118.617L99.6 117.107L100.37 115.717L101.18 114.347L101.91 112.927L102.84 111.637L104 110.507L104.87 109.177L105.91 107.967L106.64 106.537L107.78 105.407L108.63 104.057L109.72 102.887L110.89 101.807L111.94 100.617L113.03 99.4772L113.91 98.1272L114.86 96.8272L115.98 95.6972L117.32 94.8072L118.45 93.6872L119.6 92.5972L120.92 91.6972L122.19 90.7472L123.49 89.8272L124.63 88.7272L125.66 87.4572L127.27 86.9572L128.58 86.0672L129.66 84.8372L130.98 83.9572L132.43 83.2772L133.69 82.3072L135.07 81.5272L136.45 80.7272L137.85 79.9872L139.26 79.2572L140.82 78.8172L142.21 78.0672L143.65 77.4072L145.12 76.8172L146.41 75.8072L147.8 75.0172L149.27 74.3972L150.79 73.9272L152.37 73.6272L153.88 73.1272L155.31 72.4172L156.79 71.8272L158.46 71.8772L159.88 71.0872L161.46 70.8272L162.94 70.1572L164.55 70.0572L166.11 69.7172L167.64 69.2272L169.24 69.1272L170.85 69.0672L172.37 68.5272L173.93 68.1172L175.54 68.1772L177.1 67.8172L178.7 67.7772L180.27 67.4072L181.89 67.6972L183.45 67.1972L185.06 67.4772L186.64 67.0672L188.24 67.0872L189.84 67.3572L191.43 67.4972H193.02L194.63 67.2272L196.21 67.5072L197.78 67.8972L199.36 68.0772L201.01 67.7872L202.59 68.0272L204.09 68.7672L205.68 68.9272L207.28 69.0772L208.82 69.4972L210.35 69.9472L211.96 70.1372L213.5 70.5772L214.87 71.5172L216.47 71.7672L217.85 72.6272L219.33 73.1972L220.62 73.7472L220.22 73.1472L219.14 71.9372L218.3 70.5572L217.3 69.2972L216.2 68.1172L215.11 66.9272L214.18 65.5972L213.12 64.3772L212.13 63.4972L210.78 63.3272L209.21 62.9972L207.8 62.1872L206.3 61.6272L204.76 61.2072L203.2 60.8472L201.7 60.2772L200.11 60.0472L198.54 59.7072L196.97 59.4172L195.44 58.9072L193.79 59.0472L192.27 58.4572L190.67 58.3572H189.06L187.52 57.7872L185.91 57.7672L184.31 57.6772L182.73 57.3172L181.12 57.5872L179.53 57.3372L177.93 57.4972L176.33 57.1172L174.73 57.5372L173.13 57.5172L171.54 57.6372L169.93 57.5072L168.33 57.6372L166.75 57.8472L165.17 58.1572L163.6 58.4172L161.95 58.2072L160.42 58.7372L158.82 58.8572L157.25 59.1672L155.77 59.8772L154.08 59.6572L152.54 60.0972L151.05 60.6372L149.51 61.0772L147.97 61.5372L146.5 62.1772L144.94 62.5672L143.44 63.1272L141.92 63.6472L140.59 64.6072L139.13 65.2472L137.7 65.9672L136.27 66.6672L134.67 67.0272L133.41 68.0872L131.9 68.6472L130.58 69.5572L128.99 69.9972L127.85 71.2072L126.4 71.8872L125.01 72.6772L123.62 73.4772L122.14 74.1372L120.85 75.0872L119.58 76.0572L118.34 77.0772L117.11 78.1072L115.85 79.0872L114.63 80.1172L113.32 81.0372L112.1 82.0672L110.9 83.1272L109.71 84.1972L108.48 85.2072L107.26 86.2472L106.01 87.2572L105.11 88.6272L104 89.7772L102.98 91.0172L101.91 92.1972L100.53 93.1072L99.57 94.4072L98.75 95.7972L97.43 96.7972L96.67 98.2272L95.73 99.5272L94.89 100.887L93.87 102.127L93.13 103.557L91.95 104.707L91.13 106.087L90.79 107.737L89.52 108.867L89.18 110.497L88.22 111.807L87.69 113.327L87.06 114.797L86.36 116.227L85.71 117.697L85.15 119.187L84.64 120.697L84 122.167L83.18 123.567L83.01 125.207L82.19 126.617L81.97 128.227L81.27 129.687L80.82 131.217L80.79 131.347L80.93 131.647Z" fill="white"/>
<path d="M239.56 99.2516L239.08 98.1016L239.56 99.2516Z" fill="white"/>
<path d="M115.07 163.913L115.23 163.703L115.77 162.873L116.5 162.093L116.99 161.523L117.37 161.173L117.24 160.643L116.99 158.953L116.82 155.583L116.89 153.793L117.29 150.413L118.07 146.843L118.62 145.323C118.91 144.513 119.68 144.003 120.5 144.003C120.73 144.003 120.96 144.043 121.18 144.123C122.22 144.503 122.76 145.653 122.38 146.693L121.88 148.073L121.23 151.103L120.88 154.093L120.82 155.573L120.85 156.173L121.67 155.203L122.86 154.093L123.6 152.673L124.33 151.243L125.3 149.983L126.34 148.773L126.95 147.263L128.3 146.273L128.97 144.753L129.86 143.393L131.14 142.313L131.71 140.703L133.02 139.653L133.96 138.323L135.13 137.173L135.87 135.683L136.72 134.273L138.17 133.363L139.21 132.113L140.28 130.893L141.17 129.503L142.24 128.273L143.24 126.973L144.61 126.033L145.61 124.743L146.59 123.423L148.11 122.643L149.18 121.423L150.34 120.283L151.24 118.863L152.56 117.883L153.92 116.963L155.2 115.963L156.24 114.683L157.6 113.773L158.62 112.443L160.08 111.663L161.23 110.483L162.72 109.753L164.16 108.973L165.29 107.783L166.59 106.823L167.85 105.793L169.49 105.383L170.78 104.413L172.06 103.413L173.47 102.623L174.85 101.783L176.31 101.093L177.73 100.313L179.25 99.7428L180.8 99.2528L182.28 98.6128L183.81 98.0928L185.21 97.2528L186.76 96.7728L188.25 96.1428L189.87 95.9028L191.36 95.2528L192.94 94.9028L194.37 94.0128L195.98 93.7628L197.55 93.3628L199.22 93.4428L200.76 92.9428L202.35 92.6628L203.97 92.6128L205.55 92.2728L207.14 91.9228L208.75 91.8428L210.37 91.7928L211.99 91.8328L213.6 91.4028L215.22 91.6428L216.82 92.0228L218.45 91.8428L220.04 92.1528L221.61 92.5528L223.21 92.7228L224.8 92.9728L226.41 93.1928L227.91 93.8228L229.58 93.9128L230.35 94.4428L229.92 93.4428L229.64 91.8428L229.25 90.2728L228.46 88.8428L227.96 87.3128L227.35 85.9528L226.65 85.6628L225.07 85.4228L223.5 85.1328L221.92 84.9228L220.4 84.4028L218.87 83.8728L217.25 83.9028L215.7 83.4728L214.11 83.3728L212.49 83.6528L210.91 83.4428L209.34 82.9628L207.74 82.9028L206.14 83.0828L204.55 83.2828L202.95 82.9228L201.36 83.0028L199.75 82.8828L198.16 83.0328L196.57 83.1628L194.98 83.3028L193.4 83.5628L191.87 84.1028L190.22 83.9928L188.7 84.6328L187.17 85.1728L185.54 85.2328L183.98 85.6428L182.38 85.9128L180.88 86.5328L179.29 86.8328L177.68 87.0928L176.2 87.7728L174.75 88.5128L173.12 88.7628L171.76 89.7028L170.24 90.2328L168.82 91.0128L167.33 91.6328L165.75 92.0828L164.38 92.9428L163.13 94.0228L161.65 94.6628L160.36 95.6428L158.77 96.1128L157.55 97.1928L156.31 98.2328L154.96 99.0928L153.51 99.8228L152.18 100.723L150.99 101.813L149.73 102.813L148.37 103.693L147.2 104.803L145.74 105.573L144.87 107.023L143.66 108.073L142.46 109.133L141.35 110.293L139.92 111.133L139.08 112.563L137.96 113.713L136.89 114.913L135.8 116.093L134.48 117.063L133.6 118.423L132.43 119.543L131.41 120.793L130.43 122.073L129.34 123.263L128.41 124.573L127.49 125.893L126.24 126.973L125.31 128.293L124.54 129.723L123.47 130.943L122.76 132.403L121.72 133.643L121.26 135.263L119.94 136.333L119.41 137.903L118.71 139.363L117.79 140.683L117.14 142.163L116.1 143.423L115.32 144.833L114.78 146.363L113.8 147.663L113.32 149.223L112.47 150.593L111.42 151.873L111.11 153.513L109.97 154.753L109.84 156.473L108.92 157.823L108.21 159.273L107.45 160.703L106.97 162.253L106.9 162.363L107.87 162.723L109.08 163.803L110.52 164.523L111.9 165.333L113.25 166.203L113.74 166.423L114.2 165.523L114.34 165.263L114.31 165.183L115.12 163.873L115.07 163.913Z" fill="white"/>
<path d="M98.39 185.422L98.6 185.462L98.39 185.422Z" fill="white"/>
<path d="M77.4 169.71L77.44 168.14L77.34 166.59L77.16 165.04L77.14 163.48L76.79 161.93L76.98 160.29L76.85 158.65L76.93 157.01L76.9 155.37L77.19 153.74L77.52 152.12L77.41 150.47L77.49 148.82L77.69 147.2L78.14 145.6L78.3 143.97L78.35 142.32L78.61 140.7L78.88 139.08L79.61 137.55L79.57 135.86L79.75 134.26L80.4 132.77L80.79 131.35L80.25 130.2L79.4 128.83L78.76 127.36L78.2 125.85L77.51 124.4L77.15 122.82L76.68 121.29L75.87 119.88L75.68 118.26L75.17 116.75L74.64 115.24L74.31 113.67L73.96 112.12L73.31 110.63L73.12 109.04L72.87 107.47L72.68 105.88L72.61 105.68L72.18 106.29L71.54 107.76L71.13 109.31L70.55 110.79L69.68 112.18L69.44 113.78L69.29 115.4L68.72 116.89L67.82 118.29L67.56 119.87L67.23 121.44L67.29 123.07L67.21 123.71L67.09 124.65L66.68 126.19L66.65 127.79L66.36 129.35L66.3 130.93L65.72 132.49L65.87 134.09L65.62 135.68L65.7 137.27L65.69 137.4L65.57 138.87L65.59 140.47L66.1 142.03L66.08 143.63L66.31 145.21L66.29 146.82L66.55 148.4L67.14 149.92L67.3 151.54L67.73 153.1L68.32 154.61L68.51 156.25L69.19 157.73L70.22 159.06L70.42 160.74L71.23 162.14L72.03 163.55L72.74 165.01L73.69 166.32L74.54 167.69L75.61 168.92L76.27 170.44L77.6 171.44L77.81 171.69L77.91 171.22L77.4 169.71Z" fill="#000408"/>
<path d="M98.39 185.423L98.38 184.913L99.19 183.483L99.92 182.023L100.27 180.443L100.5 178.823L101.3 177.393L101.8 175.853L102.12 174.263L102.62 172.723L103.32 171.273L104.15 169.863L104.22 168.163L104.78 166.653L105.51 165.203L106.03 163.673L106.84 162.413L106.26 162.193L105.11 161.043L103.84 160.053L102.45 159.233L101.34 158.063L100.13 157.023L98.94 155.943L97.78 154.853L96.56 153.803L95.46 152.643L94.31 151.533L93.23 150.353L92.12 149.193L91.3 147.783L90.11 146.683L89.18 145.373L88.46 144.133L88.24 145.033L88.04 146.623L87.41 148.113L87.19 149.693L87.18 151.323L86.34 152.773L86.22 154.373L85.75 155.903L85.65 157.503L85.52 159.093L85.33 160.673L85.4 162.283L85.19 163.863L84.8 165.413L84.48 166.983L84.73 168.603L84.58 170.183L84.18 171.743L83.94 173.323L84.16 174.923L84.05 176.513L83.82 177.873L84.45 178.193L85.59 179.353L86.69 180.603L88.35 181.023L89.64 182.013L91.16 182.583L92.56 183.383L93.84 184.453L95.54 184.543L97.03 185.163L98.39 185.423Z" fill="#000408"/>
<path d="M84.05 176.512L84.16 174.922L83.94 173.322L84.18 171.742L84.58 170.182L84.73 168.602L84.48 166.982L84.8 165.412L85.19 163.862L85.4 162.282L85.33 160.672L85.52 159.092L85.65 157.502L85.75 155.902L86.22 154.372L86.34 152.772L87.18 151.322L87.19 149.692L87.41 148.112L88.04 146.622L88.24 145.032L88.46 144.132L88.37 143.982L87.32 142.752L86.42 141.432L85.6 140.052L84.68 138.732L84 137.272L82.97 136.012L82.29 134.552L81.62 133.102L80.93 131.652L80.79 131.352L80.4 132.772L79.75 134.262L79.57 135.862L79.61 137.552L78.88 139.082L78.61 140.702L78.35 142.322L78.3 143.972L78.14 145.602L77.69 147.202L77.49 148.822L77.41 150.472L77.52 152.122L77.19 153.742L76.9 155.372L76.93 157.012L76.85 158.652L76.98 160.292L76.79 161.932L77.14 163.482L77.16 165.042L77.34 166.592L77.44 168.142L77.4 169.712L77.91 171.222L77.81 171.692L78.64 172.672L79.45 174.112L80.8 175.052L81.9 176.222L82.98 177.442L83.82 177.872L84.05 176.512Z" fill="#747575"/>
<path d="M110.68 172.721L110.08 174.201L109.26 175.561L108.6 177.011L107.65 178.311L107.09 179.811L106.47 181.271L105.93 182.781L105.33 184.251L104.28 185.521L104.06 186.571L104.91 186.331L106.53 186.941L108.13 186.561L109.69 186.131L111.22 185.621L112.74 185.141L113.03 184.981L112.45 183.671L111.97 182.121L111.71 180.521L111.77 178.901L111.69 177.381L111.71 175.851L111.86 174.341L111.96 172.821L112.2 171.311L112.32 170.641L111.65 171.441L110.68 172.721Z" fill="#000408"/>
<path d="M111.84 165.376L110.46 164.566L109.02 163.836L107.81 162.756L106.84 162.406L106.03 163.666L105.51 165.196L104.78 166.646L104.22 168.156L104.15 169.856L103.32 171.266L102.62 172.716L102.12 174.256L101.8 175.846L101.3 177.386L100.5 178.816L100.27 180.436L99.92 182.016L99.19 183.476L98.38 184.906L98.39 185.416L98.6 185.456L100.04 186.396L101.69 186.406L103.27 186.786L104.06 186.566L104.28 185.516L105.33 184.246L105.93 182.776L106.47 181.266L107.09 179.806L107.65 178.306L108.6 177.006L109.26 175.556L110.08 174.196L110.68 172.716L111.65 171.436L112.32 170.636L112.48 169.806L113 168.376L113.45 166.916L113.68 166.466L113.19 166.246L111.84 165.376Z" fill="#747575"/>
<path d="M212.42 63.5409L213.83 64.3209L215.29 64.9709L216.63 65.8909L217.09 65.9709L216.35 65.2309L216.28 65.1609L215.15 64.1409L213.71 63.3409L212.71 62.0109L211.2 61.3109L209.88 60.3909L208.77 59.1309L207.27 58.4609H207.26L207.45 58.6409L208.68 59.7009L209.78 60.8709L210.79 62.1409L211.91 63.3109L212.13 63.5009L212.42 63.5409Z" fill="#000408"/>
<path d="M223.7 75.13L222.42 74.12L220.8 73.82L220.62 73.75L221.13 74.49L221.99 75.85L222.9 77.19L223.76 78.56L224.46 80.03L225.19 81.47L225.9 82.92L226.68 84.33L227.26 85.84L227.32 85.96L228.1 86.29L229.78 86.19L231.21 86.97L232.71 87.51L233.62 87.76L233.02 86.83L232.56 85.23L231.63 83.91L230.9 82.46L229.75 81.29L229.02 79.83L227.68 78.81L226.72 77.53L226.03 76.33L225.1 75.89L223.7 75.13Z" fill="#000408"/>
<path d="M239.52 99.2131L238.17 98.3331L236.81 97.4731L235.36 96.7531L234.03 95.8031L232.49 95.2731L230.92 94.8731L230.31 94.4531L230.53 94.9631L230.58 96.6031L230.95 98.1731L231.09 99.7831L231.21 101.393L231.24 101.823L232.16 101.993L233.73 102.393L235.31 102.483L236.8 102.993L238.35 103.333L238.48 103.313L240.26 102.933L240.56 100.973L239.7 99.5731L239.56 99.2531L239.52 99.2131Z" fill="#000408"/>
<path d="M220.67 70.04L219.76 68.68L218.72 67.43L217.49 66.37L217.09 65.97L216.63 65.89L215.29 64.97L213.83 64.32L212.42 63.54L212.13 63.5L213.12 64.38L214.18 65.6L215.11 66.93L216.2 68.12L217.3 69.3L218.3 70.56L219.14 71.94L220.22 73.15L220.62 73.75L220.8 73.82L222.42 74.12L223.7 75.13L225.1 75.89L226.03 76.33L225.92 76.13L225.17 74.67L224.25 73.33L223.11 72.18L221.92 71.08L221.19 70.47L220.67 70.04Z" fill="#747575"/>
<path d="M231.21 86.9709L229.78 86.1909L228.1 86.2909L227.32 85.9609L227.93 87.3109L228.43 88.8509L229.22 90.2809L229.61 91.8509L229.88 93.4509L230.31 94.4509L230.92 94.8709L232.49 95.2709L234.03 95.8009L235.36 96.7509L236.81 97.4709L238.17 98.3309L239.52 99.2109L239.56 99.2509L239.08 98.1009L238.33 96.6809L238.03 95.0509L237.23 93.6509L236.56 92.1909L235.36 91.0209L234.96 89.4109L233.89 88.1809L233.62 87.7609L232.71 87.5109L231.21 86.9709Z" fill="#747575"/>
<path d="M120.62 156.44L120.21 158.07L119.14 159.27L118.37 160.3L119.35 159.6L119.91 159.26L120.52 158.82L120.97 158.65L120.96 158.57L120.84 156.18L120.62 156.44Z" fill="#00070E"/>
<path d="M120.21 158.073L120.62 156.443L120.83 156.193L120.8 155.593L120.86 154.113L121.21 151.123L121.86 148.093L122.36 146.713C122.74 145.673 122.2 144.523 121.16 144.143C120.94 144.063 120.7 144.023 120.48 144.023C119.66 144.023 118.89 144.533 118.6 145.343L118.05 146.863L117.27 150.433L116.87 153.813L116.8 155.603L116.97 158.973L117.22 160.663L117.35 161.193L118.1 160.503L118.37 160.313L119.14 159.283L120.21 158.083V158.073Z" fill="#C6C5C5"/>
<path d="M123.99 157.672L123.47 157.732L123.23 157.812L123.51 157.732L123.99 157.672Z" fill="#A3A9B7"/>
<path d="M130.94 158.907L131.09 159.007L130.94 158.907L130.71 158.797L130.94 158.907Z" fill="#A3A9B7"/>
<path d="M134.42 161.94L135.32 163.19L135.97 164.43V164.44L135.32 163.19L134.42 161.94L134.17 161.68L134.42 161.94Z" fill="#A3A9B7"/>
<path d="M115.22 163.704L115.97 162.684L116.48 162.094L115.76 162.874L115.22 163.704Z" fill="#A3A9B7"/>
<path d="M119.91 159.258L120.65 158.788L120.97 158.648L120.52 158.818L119.91 159.258Z" fill="#A3A9B7"/>
<path d="M137.48 171.693L136.23 172.673L134.83 173.443L133.39 174.123L131.9 174.673L130.35 175.033L128.77 175.263L127.17 175.253L126.77 175.223L126.56 176.313L126 177.853L125.6 179.433L125.15 180.993L124.47 182.483L124.05 184.063L123.4 185.563L122.99 187.143L122.44 188.663L122 190.233L121.58 191.493L121.83 191.553L123.36 191.593L124.88 191.523L126.39 191.283L127.83 190.773L129.26 190.223L130.54 189.393L131.74 188.433L132.83 187.353L133.48 185.893L134.14 184.433L134.72 182.943L135.35 181.483L135.84 179.963L136.33 178.443L136.85 176.923L137.16 175.353L137.42 173.773L137.52 172.173L137.51 170.573L137.48 170.383V171.693Z" fill="#8C94A2"/>
<path d="M134.42 161.94L134.17 161.68L134.4 161.95L135.27 163.22L135.97 164.43L135.32 163.19L134.42 161.94Z" fill="#8C94A2"/>
<path d="M137.08 167.459L137.17 167.859L137.12 167.459L136.64 165.979L136.13 164.789L136.62 165.989L137.08 167.459Z" fill="#8C94A2"/>
<path d="M135.97 164.441V164.431L135.27 163.221L134.4 161.951L134.17 161.681L133.39 160.781L132.25 159.731L131.09 159.011L130.94 158.911L130.71 158.801L129.55 158.241L128.09 157.751L126.57 157.461L125.03 157.551L123.99 157.671L123.51 157.731L123.23 157.811L122.05 158.171L120.97 158.651L120.65 158.791L119.91 159.261L119.35 159.601L118.37 160.301L118.1 160.491L117.35 161.181L116.98 161.521L116.48 162.091L115.97 162.681L115.22 163.701L115.07 163.911L114.26 165.221L114.29 165.301L114.85 166.681L115.61 168.051L116.44 169.381L117.46 170.591L118.51 171.761L119.75 172.731L121.09 173.561L122.52 174.231L124.03 174.731L125.58 175.121L126.77 175.221L127.17 175.251L128.77 175.261L130.35 175.031L131.9 174.671L133.39 174.121L134.83 173.441L136.23 172.671L137.48 171.691V170.381V170.331L137.41 168.971L137.17 167.861L137.08 167.461L136.62 165.991L136.13 164.791V164.781L136.04 164.561L135.97 164.441Z" fill="#7C818E"/>
</g>
<defs>
<clipPath id="clip0_5477_10983">
<rect width="241.15" height="236.14" fill="white"/>
</clipPath>
</defs>
</svg>
